<svg width="94" height="100" viewBox="0 0 94 100" fill="none" xmlns="http://www.w3.org/2000/svg">
<g clip-path="url(#clip0_0_3207)">
<path d="M60.1663 0.000273189C62.6282 -0.0122216 65.019 0.404271 67.3511 1.17062C70.0432 2.05775 70.3279 3.11564 68.3643 5.08565C64.8263 8.63418 61.2926 12.1827 57.6919 15.6687C56.8712 16.4601 56.708 17.1015 57.1225 18.1719C58.7749 22.4312 61.742 25.3647 66.0238 26.9724C66.991 27.3347 67.6148 27.2639 68.3727 26.4892C71.9273 22.8616 75.5448 19.2964 79.1581 15.7271C81.0338 13.8737 82.2438 14.1402 83.01 16.6558C85.6645 25.3647 84.1363 33.3364 78.0863 40.1419C71.9064 47.0931 63.989 49.538 54.8406 47.7179C53.5259 47.4555 52.8016 47.7637 51.9433 48.6217C41.3588 59.1923 30.7869 69.7795 20.1229 80.271C13.5034 86.7808 2.66769 83.857 0.402579 74.9732C-0.73207 70.5209 0.565868 66.6725 3.86514 63.4114C14.2528 53.1323 24.5777 42.7949 34.978 32.5284C36.121 31.3997 36.502 30.4543 36.1922 28.7716C33.366 13.4863 44.6832 -0.0163865 60.1663 0.000273189ZM64.5458 4.11939C64.1899 3.90281 64.0895 3.80286 63.9722 3.77787C48.958 0.724971 35.7777 14.6358 39.7929 29.3755C40.2744 31.1415 40.019 32.291 38.6876 33.5779C33.68 38.4093 28.7897 43.3614 23.8576 48.2718C17.9373 54.161 11.9961 60.0294 6.10513 65.9478C2.4081 69.6671 2.48347 74.9815 6.18468 78.3093C9.6305 81.408 14.525 81.1123 18.176 77.493C28.9488 66.8099 39.7092 56.1227 50.4234 45.3814C51.6837 44.1152 52.7597 43.6612 54.6145 44.1527C62.6785 46.281 69.7125 44.1985 75.3438 38.1635C80.1755 32.9865 81.7498 26.76 80.2634 19.3131C77.1107 22.4701 74.0626 25.1356 71.5003 28.2052C69.1849 30.9749 67.1333 30.9499 63.8006 29.842C58.793 28.1719 55.9459 25.4022 54.2419 20.4043C53.0905 17.0182 53.0737 14.9232 55.9083 12.5742C58.9814 10.0253 61.6485 6.99319 64.5416 4.12356L64.5458 4.11939Z" fill="#DCDFEE" fill-opacity="0.5"/>
<path d="M56.497 99.971C54.8223 99.971 53.1475 99.9293 51.4769 99.9835C50.0073 100.033 49.2788 99.3587 49.1197 97.9468C49.0276 97.1222 48.701 96.285 48.789 95.4853C49.2202 91.512 46.8504 89.9293 43.5135 88.9672C42.7138 88.734 42.2281 88.8215 41.6336 89.2796C40.097 90.4749 38.5018 91.5995 36.9861 92.8198C35.797 93.7819 34.788 93.7569 33.7036 92.6532C31.3631 90.275 28.9891 87.9218 26.5942 85.5978C25.5182 84.5524 25.3047 83.557 26.3305 82.3408C27.1804 81.3371 27.8964 80.2167 28.7379 79.1963C29.8893 77.7969 31.07 76.4974 29.7051 74.5191C29.144 73.7028 29.7093 72.8739 30.5634 72.5033C31.4217 72.1284 32.1628 72.3991 32.728 73.2071C34.8173 76.1934 34.8131 76.7515 32.5396 79.7544C30.5411 82.3922 30.742 84.9023 33.1425 87.2846C35.55 89.6711 35.6965 89.8377 38.2757 87.5137C40.8506 85.198 43.2916 84.2067 46.2852 86.5766C46.3354 86.6182 46.4108 86.6432 46.4778 86.6474C51.0373 87.1263 52.0631 90.2417 52.0129 94.0818C51.9836 96.0976 52.733 96.9681 54.8558 96.6515C56.8111 96.36 59.3986 97.497 60.6169 96.1434C61.7055 94.9314 61.4627 92.4699 61.6469 90.5416C61.7976 88.9797 62.3671 87.9593 64.0041 87.5886C65.9134 87.1555 67.6886 86.3308 69.3801 85.3562C70.4227 84.7523 71.3103 84.819 72.2523 85.5686C73.6675 86.6932 75.1832 87.6969 76.569 88.8506C77.3687 89.517 77.8921 89.567 78.629 88.759C80.1697 87.068 82.7363 85.6603 83.1466 83.7694C83.5444 81.9202 80.8983 80.2167 79.6213 78.43C78.8927 77.4137 78.6457 76.5349 79.3533 75.4021C80.4251 73.6903 81.1788 71.816 81.6896 69.871C82.0204 68.6174 82.661 67.9427 83.9756 67.8802C84.5995 67.851 85.215 67.6969 85.8304 67.597C87.3838 67.3471 89.988 67.6928 90.2685 66.664C90.9175 64.2734 90.5616 61.5995 90.5239 59.0422C90.5114 58.2967 89.7452 58.3258 89.2176 58.3383C84.5492 58.43 81.5096 56.8973 80.0525 51.8619C79.257 49.1172 78.9179 47.2888 80.9694 45.2896C81.5598 44.7148 81.9324 43.9152 82.5102 43.3279C83.5276 42.295 83.6951 41.437 82.4097 40.45C81.4719 39.7294 81.183 38.6757 82.146 37.7636C83.0168 36.9389 83.8877 37.3138 84.7209 38.0468C87.1186 40.1515 87.3587 42.4727 85.4411 45.0106C85.3573 45.123 85.2945 45.2563 85.1856 45.3396C81.8361 47.926 83.2764 50.7873 84.6455 53.6903C85.0349 54.5149 85.7048 54.4608 86.3747 54.5566C88.3049 54.8315 90.2309 55.1355 92.1652 55.3646C93.4506 55.5187 93.9865 56.2059 93.9865 57.4429C93.9781 60.9831 93.9698 64.5191 93.9865 68.0593C93.9949 69.3254 93.4087 69.9876 92.1485 70.1168C91.3195 70.2001 90.4946 70.4416 89.6656 70.4458C86.3747 70.45 84.1096 71.537 83.2346 75.0897C82.9122 76.3975 82.8368 77.1888 83.6826 78.1884C84.8046 79.5128 85.7593 80.9747 86.8562 82.3158C87.7564 83.4154 87.8276 84.3691 86.7641 85.4062C84.2771 87.8385 81.8194 90.2958 79.3659 92.7615C78.4238 93.7069 77.4818 93.8235 76.4267 92.9489C75.8405 92.4616 75.1078 92.1118 74.6095 91.5537C72.1267 88.7965 69.4136 88.4258 66.2358 90.3958C65.457 90.8789 64.9713 91.2288 64.8792 92.1826C64.6992 94.0401 64.36 95.8852 64.1256 97.7386C63.9288 99.2921 63.1919 100.092 61.5088 99.996C59.8424 99.9002 58.1634 99.9751 56.4887 99.9751L56.497 99.971Z" fill="#DCDFEE" fill-opacity="0.5"/>
<path d="M75.0387 62.1244C75.0303 71.6079 68.122 79.6754 59.5765 80.8041C49.9132 82.0786 41.2128 76.4434 38.8011 67.3514C38.73 67.0848 38.6881 66.8099 38.6337 66.5392C38.3824 65.2731 38.0935 63.8528 39.8604 63.5613C41.4598 63.2989 41.6859 64.665 41.9664 65.8437C43.3439 71.5913 46.8902 75.3814 52.5676 77.064C58.7852 78.9091 65.4214 76.4268 69.0724 71.0498C72.6941 65.7229 72.4387 58.6425 68.436 53.5738C67.9629 52.974 67.4353 52.4201 66.9161 51.8578C66.1499 51.0332 65.9155 50.1544 66.7863 49.3006C67.6823 48.4218 68.57 48.7758 69.3487 49.5338C72.1246 52.2202 73.9041 55.4563 74.641 59.2381C74.8671 60.3918 74.9634 61.5663 75.0387 62.1202V62.1244Z" fill="#DCDFEE" fill-opacity="0.5"/>
<path d="M18.573 67.0345C18.5186 68.0299 14.7588 71.8242 13.7665 71.845C13.1049 71.8617 12.5732 71.5826 12.2173 70.9912C11.8489 70.379 11.8698 69.7542 12.3304 69.2669C13.5111 68.0175 14.7336 66.8013 15.9897 65.6226C16.488 65.152 17.1746 65.2145 17.7482 65.4935C18.3511 65.785 18.64 66.3348 18.573 67.0262V67.0345Z" fill="#DCDFEE" fill-opacity="0.5"/>
</g>
<defs>
<clipPath id="clip0_0_3207">
<rect width="94" height="100" fill="white"/>
</clipPath>
</defs>
</svg>
