<svg width="100" height="100" viewBox="0 0 100 100" fill="none" xmlns="http://www.w3.org/2000/svg">
<g clip-path="url(#clip0_0_3220)">
<path d="M25.0017 61.8942C25.0017 58.4052 24.9494 54.9201 25.0299 51.4351C25.058 50.1231 24.8247 49.3303 23.3159 49.604C21.1755 49.9903 20.1616 48.9279 19.5501 46.9802C18.9305 45.0082 14.7744 43.2778 12.9679 44.2557C11.0488 45.294 9.58429 45.0928 8.2928 43.3261C7.90253 42.7909 7.40766 42.3039 6.87658 41.9055C4.82871 40.3682 4.17693 38.6539 5.66154 36.2795C6.42195 35.0642 4.45454 30.6495 3.00211 30.2753C0.604204 29.6555 -0.297023 28.2671 0.0892169 25.8847C0.185777 25.2972 0.181754 24.6694 0.0892169 24.0778C-0.30507 21.5787 0.523737 20.0334 3.13086 19.3734C4.67984 18.979 6.3616 14.5161 5.52072 13.1116C4.27349 11.031 4.68789 9.49776 6.54265 8.12548C7.07373 7.73109 7.56055 7.2361 7.96288 6.70892C9.42336 4.79335 11.0206 4.1897 13.2656 5.60224C14.6054 6.44332 19.0271 4.55189 19.4334 2.97034C20.0611 0.527585 21.5014 -0.281301 23.851 0.0849113C24.3741 0.165397 24.9293 0.153324 25.4563 0.0849113C27.9307 -0.22496 29.709 0.32637 30.3487 3.15143C30.6947 4.69274 35.2009 6.32661 36.6251 5.50163C38.5925 4.3708 40.1174 4.58409 41.4612 6.41515C41.8152 6.89404 42.2578 7.33671 42.7366 7.69488C44.8408 9.26435 45.5127 10.9787 44.0401 13.4939C43.0061 15.2565 45.223 18.2708 47.2628 18.2225C53.6519 18.0736 59.9846 18.4478 66.1645 20.2185C67.4479 20.5847 68.7112 21.0435 69.9343 21.5747C73.3622 23.0637 75.2934 25.2972 75.0802 29.4583C74.7543 35.8127 75.0238 42.1953 74.9675 48.5657C74.9554 49.8656 75.1566 50.6745 76.6774 50.4008C78.8098 50.0185 79.8357 51.0648 80.4473 53.0166C81.0629 54.9845 85.227 56.727 87.0295 55.7491C88.9486 54.7068 90.4091 54.904 91.7006 56.6707C92.0908 57.2059 92.5897 57.6929 93.1168 58.0913C95.1566 59.6286 95.8245 61.3389 94.3358 63.7213C93.5754 64.9366 95.5388 69.3553 96.9872 69.7296C99.3771 70.3493 100.294 71.7296 99.9041 74.1201C99.8076 74.7076 99.8116 75.3354 99.9041 75.927C100.29 78.418 99.4817 79.9795 96.8665 80.6354C95.3175 81.0258 93.6277 85.4887 94.4726 86.8972C95.7159 88.9778 95.3014 90.5151 93.4547 91.8874C92.9237 92.2818 92.4368 92.7768 92.0345 93.308C90.574 95.2396 88.9647 95.795 86.7277 94.4106C85.3839 93.5776 80.9623 95.473 80.5599 97.0506C79.9363 99.4974 78.4839 100.282 76.1383 99.9239C75.6153 99.8434 75.0601 99.8555 74.533 99.9239C72.0506 100.242 70.2723 99.6664 69.6527 96.8453C69.3348 95.4087 64.7965 93.6259 63.5493 94.4147C61.3123 95.8352 59.707 95.2074 58.2465 93.2959C57.8442 92.7687 57.3574 92.2697 56.8263 91.8793C54.9635 90.503 54.6537 88.9979 55.8084 86.8852C57.0194 84.6678 55.0118 81.7381 52.5253 81.7944C46.2047 81.9353 39.9404 81.5329 33.8249 79.7903C32.5414 79.4241 31.2781 78.9613 30.055 78.4341C26.6191 76.9492 24.5028 74.7036 24.9414 70.5465C25.2431 67.6933 24.9977 64.7837 24.9977 61.9023L25.0017 61.8942ZM41.3284 11.3168C41.3163 10.0732 38.508 8.20999 37.3896 8.80156C35.8768 9.6024 34.5249 9.64264 33.0765 8.63254C32.3805 8.1456 31.5155 7.80756 30.6827 7.63853C28.8561 7.26427 27.6772 6.32259 27.3071 4.44726C26.9933 2.86973 25.7219 3.37277 24.7362 3.33253C23.7706 3.29228 22.6521 3.05485 22.3865 4.47945C22.0365 6.3749 20.8013 7.2683 18.9949 7.65061C18.158 7.82768 17.289 8.15365 16.601 8.64461C15.1445 9.67886 13.7243 9.67886 12.3081 8.74522C10.9764 7.86792 10.389 8.91424 9.66475 9.64264C8.94055 10.367 7.8623 10.9626 8.7595 12.2826C9.78948 13.7997 9.57222 15.2726 8.58248 16.7616C8.14796 17.4176 7.83011 18.2023 7.66918 18.975C7.29099 20.7779 6.4139 22.0295 4.50684 22.3755C3.08258 22.6331 3.29581 23.7438 3.34812 24.7177C3.3964 25.6956 2.86934 26.9753 4.45051 27.2973C6.31734 27.6715 7.26685 28.8346 7.64906 30.6656C7.83816 31.5671 8.21233 32.4846 8.72329 33.2452C9.6205 34.5772 9.7412 35.8892 8.86009 37.1729C7.94277 38.505 8.75548 39.2173 9.61245 40.0221C10.4171 40.7787 11.0367 41.8532 12.4368 40.8994C13.7806 39.9819 15.1486 40.0664 16.5447 41.0282C17.297 41.5473 18.2264 41.9095 19.1276 42.0987C20.8899 42.4649 22.0325 43.3583 22.3624 45.1652C22.6481 46.7186 23.8551 46.3765 24.877 46.3765C25.9029 46.3765 27.1059 46.6944 27.3674 45.129C27.6732 43.2899 28.8842 42.4488 30.6223 42.0906C31.3948 41.9296 32.1834 41.6158 32.8392 41.1811C34.3882 40.1509 35.9009 39.9296 37.4982 40.992C38.7092 41.7968 39.3127 40.831 39.9725 40.1268C40.6485 39.4024 41.8756 38.8551 40.9945 37.515C39.9444 35.9133 40.1496 34.4163 41.1634 32.8508C41.6986 32.0258 42.0969 31.0399 42.2779 30.074C42.5515 28.6092 43.3763 27.7762 44.7321 27.5146C46.3012 27.2128 46.426 26.2067 46.4099 24.8907C46.3938 23.6191 46.438 22.5325 44.8046 22.2025C43.9235 22.0254 42.8211 21.7478 42.644 20.6531C42.1612 17.6108 38.7535 14.999 41.256 11.5099C41.2922 11.4576 41.3083 11.3852 41.3324 11.3248L41.3284 11.3168ZM74.7744 96.6964C76.09 96.624 77.3815 97.0626 77.6792 95.3805C77.985 93.65 79.0673 92.7808 80.7732 92.4427C81.6744 92.2657 82.5917 91.8874 83.3521 91.3763C84.8005 90.3984 86.2087 90.2696 87.645 91.2274C89.0612 92.1731 89.6446 90.9779 90.4453 90.2616C91.2701 89.5251 92.0144 88.837 91.1896 87.5854C90.2924 86.2292 90.3367 84.869 91.3143 83.4806C91.8011 82.7884 92.1311 81.9232 92.3121 81.0862C92.7144 79.2108 93.6479 77.9432 95.6193 77.5649C97.0999 77.2792 96.6533 76.0719 96.6493 75.1543C96.6493 74.2368 97.1039 73.0255 95.6193 72.7397C93.6479 72.3615 92.7265 71.0938 92.3081 69.2185C92.1069 68.3211 91.7167 67.4196 91.2137 66.651C90.3769 65.3753 90.2884 64.1237 91.1051 62.9003C91.95 61.6367 91.3988 60.86 90.4533 60.031C89.5682 59.2543 88.9245 58.1275 87.4559 59.1497C86.1805 60.039 84.8649 59.9062 83.5332 59.0128C82.7728 58.5017 81.8555 58.1275 80.9542 57.9383C79.1196 57.5601 77.9649 56.6063 77.5867 54.739C77.2689 53.1615 75.9935 53.6766 75.0118 53.6323C74.0462 53.5881 72.9317 53.3627 72.6702 54.7833C72.3202 56.6787 71.085 57.5641 69.2785 57.9504C68.4417 58.1275 67.5766 58.4535 66.8846 58.9444C65.4282 59.9787 64.012 59.9787 62.5958 59.045C61.264 58.1637 60.6766 59.21 59.9524 59.9384C59.2322 60.6628 58.1459 61.2544 59.0391 62.5743C60.0651 64.0915 59.8599 65.5564 58.8701 67.0494C58.3994 67.7617 58.0574 68.6108 57.8804 69.4479C57.5264 71.1099 56.7458 72.2367 54.9916 72.6029C53.33 72.953 53.68 74.3173 53.6036 75.4924C53.5312 76.6071 53.7082 77.4562 54.9876 77.7098C56.601 78.0317 57.5264 78.9774 57.7999 80.6596C57.9367 81.4926 58.323 82.3377 58.7857 83.0581C59.8197 84.6718 60.0731 86.2212 58.9587 87.9033C58.1379 89.1388 59.3087 89.6901 59.9605 90.3421C60.6163 90.994 61.1675 92.157 62.4026 91.32C64.0844 90.1891 65.6334 90.495 67.2467 91.5051C68.0273 91.992 68.9365 92.3663 69.8378 92.5474C71.2459 92.8291 72.1592 93.5454 72.465 94.9338C72.7788 96.3423 73.5272 97.0184 74.7663 96.6844L74.7744 96.6964ZM55.8245 63.1941C54.3479 61.0894 55.2451 59.8257 56.6372 58.6225C57.5947 57.7935 58.4879 56.8719 59.3369 55.9262C60.2341 54.9282 61.1675 54.7873 62.3745 55.3668C63.1832 55.7531 64.0804 56.6304 64.9293 56.1998C67.0013 55.1495 69.9625 55.1012 70.3367 51.8858C70.3648 51.6363 70.4936 51.3103 70.6867 51.1815C72.1391 50.2076 71.7931 48.8555 71.6322 47.3061C65.6857 50.4089 59.3811 51.1413 53.0242 51.4391C45.6977 51.7852 38.4557 51.1614 31.4632 48.7307C29.54 48.0627 28.2848 48.9199 28.2526 51.0326C28.2284 52.5739 28.4095 54.1354 28.2123 55.6485C27.9025 58.0027 29.009 59.3066 31.0045 60.1235C31.9902 60.53 32.9679 60.9646 33.9818 61.2866C40.9864 63.516 48.1882 63.504 55.8205 63.1901L55.8245 63.1941ZM31.8856 45.4107C32.9317 45.7688 33.7967 46.123 34.6939 46.3685C42.298 48.4209 50.0309 48.6543 57.808 47.8293C61.8032 47.4067 65.7581 46.6703 69.3751 44.7748C70.3648 44.2557 71.6402 43.7527 71.6845 42.477C71.8011 39.1126 71.7247 35.7443 71.7247 32.1908C62.7929 36.4043 53.5795 36.517 44.3057 36.2433C44.767 38.5613 44.1058 40.6137 42.3222 42.4005C41.7066 43.0162 41.0749 43.6199 40.4755 44.2477C39.7432 45.0163 38.8661 45.3382 37.9609 44.7225C35.8567 43.2858 33.9898 43.9056 31.8856 45.4107ZM28.2485 62.4737C28.2485 65.2948 28.4738 67.8583 28.1882 70.3694C27.8703 73.1784 29.182 74.5708 31.5195 75.5407C37.2487 77.919 43.2797 78.4341 49.3831 78.5508C49.6849 78.5549 50.2481 78.3979 50.2562 78.2893C50.3367 77.0981 50.5137 75.8626 50.2924 74.7116C50.1113 73.7659 49.0532 74.2328 48.4014 74.2207C47.2306 74.2006 46.088 74.0396 46.0759 72.6512C46.0598 71.1542 47.2709 70.8081 48.502 70.9731C50.5016 71.2427 52.123 70.2286 53.837 69.5565C55.0077 69.0977 55.225 67.7939 55.1003 66.8602C54.9997 66.0916 53.837 66.5504 53.1691 66.5665C44.704 66.7757 36.3435 66.3371 28.2485 62.4737ZM50.5016 33.048C54.195 33.1607 57.8522 32.7703 61.4813 32.1385C63.6499 31.7602 65.8104 31.2693 67.8221 30.3356C69.363 29.6233 71.6322 29.1766 71.5879 27.2329C71.5477 25.3334 69.3228 24.8103 67.7416 24.1825C62.3101 22.0335 56.5849 21.5828 50.8195 21.4258C49.8217 21.3976 49.5119 21.784 49.5964 22.7055C49.6446 23.2367 49.5762 23.78 49.6084 24.3112C49.7814 27.1283 49.9665 29.9332 46.1081 30.4604C45.9311 30.4845 45.742 30.6495 45.6253 30.7984C45.2069 31.3377 44.8891 32.0218 45.058 32.6335C45.227 33.2291 45.9834 33.0158 46.4863 33.0319C47.8221 33.0722 49.1618 33.048 50.5016 33.048Z" fill="#DCDFEE" fill-opacity="0.5"/>
<path d="M87.0724 39.8123C87.0724 30.7012 87.0442 22.057 87.0965 13.4128C87.1046 11.8635 86.1631 12.1089 85.2498 12.1049C75.5295 12.1049 65.8131 12.1049 56.0927 12.1049C55.5576 12.1049 55.0185 12.121 54.4834 12.0969C53.3488 12.0405 52.4355 11.5616 52.5079 10.3222C52.5763 9.19535 53.4695 8.82913 54.5357 8.84523C55.6059 8.86535 56.6801 8.84523 57.7544 8.84523C67.338 8.84523 76.9256 8.84523 86.5091 8.84523C89.0599 8.84523 90.3353 10.1531 90.3353 12.7689C90.3353 21.0147 90.3353 29.2605 90.3353 37.5063V39.4702C91.1722 39.5547 91.2486 38.8263 91.6872 38.5768C92.3309 38.2106 92.9706 38.1502 93.558 38.613C94.1977 39.1201 94.5116 39.8203 94.0328 40.5568C92.7172 42.577 91.4136 44.6092 89.9531 46.5208C89.1042 47.6315 88.0541 47.3297 87.2937 46.2592C86.2436 44.7863 85.2418 43.2812 84.2319 41.7802C83.6003 40.8385 82.7031 39.8284 83.8175 38.7539C85.0447 37.5667 85.9579 38.6613 87.0764 39.8123H87.0724Z" fill="#DCDFEE" fill-opacity="0.5"/>
<path d="M9.38641 60.0426C8.28401 61.3988 7.40693 62.3284 6.21602 61.3425C5.03316 60.3646 5.7815 59.3062 6.44937 58.3363C7.4713 56.8473 8.4369 55.31 9.49906 53.8492C10.521 52.4447 11.5268 52.4246 12.5608 53.817C13.7557 55.4308 14.8219 57.1371 15.9646 58.7911C16.552 59.6402 16.8819 60.5215 15.9646 61.2901C14.9829 62.1111 14.1138 61.7409 13.4017 60.7992C13.289 60.6503 13.1201 60.5456 12.9672 60.4128C12.3959 60.7428 12.6534 61.266 12.6534 61.6725C12.6332 69.7855 12.6775 77.8985 12.6051 86.0115C12.593 87.5125 12.9953 87.9351 14.5081 87.927C24.3613 87.8586 34.2184 87.8908 44.0716 87.8989C44.7395 87.8989 45.4194 87.8948 46.0631 88.0357C46.8758 88.2128 47.2983 88.8084 47.242 89.6655C47.1856 90.5227 46.7189 91.0217 45.8579 91.1022C45.3912 91.1465 44.9205 91.1545 44.4538 91.1545C33.7276 91.1545 23.0014 91.1626 12.2752 91.1545C9.65195 91.1545 9.39445 90.8849 9.39445 88.249C9.39043 79.6651 9.39445 71.0853 9.39445 62.5015C9.39445 61.8415 9.39445 61.1855 9.39445 60.0386L9.38641 60.0426Z" fill="#DCDFEE" fill-opacity="0.5"/>
<path d="M24.8934 38.3352C17.3899 38.3432 11.371 32.3349 11.375 24.8377C11.375 17.3444 17.406 11.3522 24.9175 11.3643C32.3084 11.3804 38.3153 17.3766 38.3394 24.7612C38.3595 32.2786 32.3688 38.3271 24.8934 38.3352ZM24.7888 35.1037C30.3812 35.1359 35.0523 30.5441 35.1087 24.9664C35.165 19.3686 30.5985 14.6723 25.0262 14.5958C19.3493 14.5193 14.6138 19.1674 14.6057 24.8296C14.5977 30.4153 19.2125 35.0715 24.7888 35.1037Z" fill="#DCDFEE" fill-opacity="0.5"/>
<path d="M61.6642 75.065C61.6844 67.5959 67.7395 61.6359 75.2792 61.6681C82.7304 61.7003 88.6769 67.7891 88.6246 75.3387C88.5763 82.6871 82.5212 88.647 75.1062 88.639C67.6268 88.6309 61.6401 82.5864 61.6602 75.069L61.6642 75.065ZM85.3979 75.1133C85.3818 69.5316 80.7389 64.9036 75.1545 64.8996C69.5661 64.8956 64.9191 69.5115 64.8909 75.0932C64.8628 80.7675 69.558 85.4518 75.2309 85.4115C80.8073 85.3713 85.414 80.7071 85.3939 75.1173L85.3979 75.1133Z" fill="#DCDFEE" fill-opacity="0.5"/>
<path d="M50.175 55.8495C50.8388 55.8495 51.5067 55.8253 52.1706 55.8535C53.1523 55.8978 53.8885 56.3726 53.9408 57.3868C53.9931 58.413 53.273 59.0005 52.3154 59.0528C50.7906 59.1373 49.2577 59.1373 47.7288 59.0649C46.7712 59.0206 46.035 58.4532 46.0551 57.431C46.0752 56.4209 46.7954 55.9098 47.7811 55.8615C48.5777 55.8213 49.3784 55.8535 50.175 55.8495Z" fill="#DCDFEE" fill-opacity="0.5"/>
<path d="M50.0749 40.7176C50.7428 40.7176 51.4106 40.7257 52.0785 40.7176C53.193 40.7015 53.9333 41.2247 53.9333 42.3394C53.9333 43.3415 53.2292 43.9089 52.2274 43.9371C50.7588 43.9773 49.2863 43.9773 47.8178 43.9371C46.7234 43.9089 45.9872 43.2972 46.0596 42.1905C46.124 41.2086 46.8321 40.6935 47.8661 40.7176C48.6023 40.7337 49.3346 40.7176 50.0709 40.7176H50.0749Z" fill="#DCDFEE" fill-opacity="0.5"/>
</g>
<defs>
<clipPath id="clip0_0_3220">
<rect width="100" height="100" fill="white"/>
</clipPath>
</defs>
</svg>
