<svg width="100" height="100" viewBox="0 0 100 100" fill="none" xmlns="http://www.w3.org/2000/svg">
<g clip-path="url(#clip0_0_3236)">
<path d="M60.5098 75.7361C63.7335 82.7697 66.8012 89.4244 69.8221 96.0986C70.2319 97.0046 70.9227 96.8562 71.6135 96.8601C74.6695 96.8679 77.7293 96.8757 80.7853 96.8601C81.9796 96.8523 83.1466 96.9616 83.1036 98.5003C83.0646 99.8946 81.964 100.004 80.8399 100.004C60.2873 99.9961 39.7307 99.9961 19.1781 100.004C17.9994 100.004 16.7973 99.9414 16.8246 98.3988C16.852 96.8562 18.0853 96.8562 19.2444 96.8601C22.3004 96.8757 25.3603 96.825 28.4162 96.8874C29.4154 96.907 29.9228 96.5633 30.3248 95.6612C33.0958 89.5025 35.8708 83.3476 38.7511 77.2436C39.4849 75.6854 38.8058 75.7205 37.6232 75.7244C28.4514 75.7479 19.2796 75.7557 10.1078 75.7322C5.06522 75.7166 1.29503 72.9477 0.225632 68.5308C0.0617102 67.8435 0.0109726 67.1171 0.0109726 66.4102C-0.000736132 47.399 -0.00463903 28.3918 0.00706966 9.38842C0.0109726 4.1709 3.98412 0.0390533 9.22571 0.0312427C36.3508 -0.011716 63.476 -0.00781067 90.6011 0.0273373C95.952 0.035148 99.9173 4.13966 99.9212 9.48606C99.9329 28.1653 99.8041 46.8484 99.9993 65.5237C100.058 71.1786 95.9598 75.7908 89.719 75.7479C80.8087 75.6893 71.8984 75.7322 62.9842 75.7322C62.2739 75.7322 61.5635 75.7322 60.5098 75.7322V75.7361ZM49.9837 63.5945C64.9435 63.5945 79.8993 63.5749 94.8591 63.6257C96.3461 63.6296 96.8379 63.3016 96.8301 61.7121C96.7677 44.4037 96.7989 27.0913 96.7872 9.78286C96.7872 5.80333 94.2347 3.16332 90.2264 3.15942C63.3667 3.13598 36.507 3.13208 9.64722 3.15942C5.64675 3.16332 3.13329 5.81114 3.12939 9.82582C3.12158 27.0054 3.1489 44.185 3.09036 61.3645C3.08255 63.0946 3.46113 63.6491 5.2994 63.6413C20.1928 63.5593 35.0863 63.5945 49.9797 63.5945H49.9837ZM49.968 66.7539C35.0199 66.7539 20.068 66.7539 5.11986 66.7539C2.93424 66.7539 2.70397 67.0819 3.71482 69.0346C5.15109 71.8035 7.64504 72.5845 10.5644 72.5845C34.8092 72.5728 59.054 72.5767 83.2949 72.5767C85.5703 72.5767 87.8456 72.6236 90.121 72.5611C92.7555 72.4869 94.9411 71.5106 96.2017 69.0502C97.2087 67.0897 96.9901 66.7578 94.8162 66.7539C79.8681 66.7539 64.9161 66.7539 49.968 66.7539ZM66.6646 96.7703C63.4994 89.8617 60.4356 83.2149 57.4187 76.5485C57.0206 75.6659 56.361 75.7401 55.6546 75.7361C51.9507 75.7361 48.2469 75.8064 44.5469 75.6971C43.1926 75.658 42.6267 76.1853 42.1154 77.3452C40.1874 81.7387 38.1462 86.0814 36.1518 90.4436C35.2151 92.4939 34.2862 94.5442 33.2754 96.7625H66.6646V96.7703Z" fill="#DCDFEE" fill-opacity="0.5"/>
<path d="M88.6878 20.7495C88.5629 21.6907 87.7862 22.6124 87.2593 23.6395C86.1899 25.7288 87.0018 27.8377 89.1874 28.5016C93.3674 29.7708 93.0395 29.0015 93.0473 33.7738C93.0499 35.953 91.9845 37.3576 89.8509 37.9877C86.7598 38.9015 86.0104 40.7643 87.5872 43.6426C88.6358 45.5614 88.3691 47.3123 86.7871 48.8953C86.51 49.1725 86.19 49.4147 85.9675 49.7271C84.6366 51.6095 83.1379 51.6017 81.2957 50.3949C80.3512 49.7779 79.4614 48.907 77.947 49.5045C76.4171 50.1059 75.7419 51.0276 75.3477 52.5116C74.493 55.7335 74.4383 55.7179 71.1287 55.7179C70.5432 55.7179 69.9539 55.6749 69.3724 55.7257C67.6707 55.878 66.7926 55.1516 66.3164 53.4684C65.9612 52.2109 66.1017 50.7425 64.4664 49.8716C62.6594 48.907 61.348 49.5084 60.0171 50.4496C58.3233 51.6446 56.926 51.5548 55.681 49.856C55.5288 49.649 55.318 49.485 55.1346 49.3014C51.821 45.9819 52.2582 46.802 54.2643 42.9943C55.3024 41.026 54.4009 38.882 52.2777 38.2024C48.0508 36.8473 48.4099 37.683 48.4099 32.9224C48.4099 30.7407 49.4741 29.3321 51.6025 28.6969C54.6897 27.7752 55.4664 25.9358 53.9442 23.1357C52.867 21.1544 53.1324 19.3592 54.7404 17.7502C54.8341 17.6565 54.9239 17.5667 55.0175 17.4729C57.8979 14.5791 57.4295 14.8056 60.6884 16.645C61.8983 17.3284 62.9014 17.5393 64.2635 16.8793C65.2977 16.3755 65.6373 15.7038 65.9651 14.7626C66.3984 13.5168 66.1798 11.6969 67.6395 11.2322C69.6065 10.6034 71.7726 10.7167 73.7865 11.1853C75.1291 11.4978 75.0628 13.0365 75.3282 14.1222C75.6912 15.6062 76.382 16.5396 77.8846 17.1722C79.5511 17.8713 80.5073 16.8012 81.5611 16.1412C83.2355 15.0907 84.5039 15.1493 85.7411 16.7465C86.3734 17.5628 87.1813 18.2462 87.9267 18.9726C88.36 19.3944 88.7307 19.8278 88.6878 20.7417V20.7495ZM62.5306 45.6929C64.2284 46.3841 65.9729 46.9387 67.5536 47.7979C68.6581 48.3954 68.5918 49.8286 68.9001 50.926C69.2006 51.9961 69.5792 52.5819 70.8477 52.578C72.1083 52.5741 72.2995 51.8164 72.5884 50.9299C72.9474 49.8403 72.8069 48.2704 73.931 47.8213C76.5303 46.7786 79.1413 44.4783 82.0958 47.1808C82.9232 47.9384 83.6336 47.6416 84.4219 46.8684C85.2298 46.0717 84.9918 45.4781 84.5702 44.6619C84.0121 43.5879 82.7125 42.4944 83.2238 41.3462C84.3283 38.8625 84.4102 35.3711 88.3522 35.1446C89.3435 35.0899 89.9445 34.6095 89.9133 33.3872C89.886 32.2429 89.445 31.8407 88.4068 31.536C87.2632 31.2002 85.6396 31.333 85.1479 30.0911C84.1136 27.4745 81.846 24.8306 84.6093 21.9055C85.3352 21.1361 85.0191 20.4722 84.3127 19.7497C83.5867 19.0038 83.0364 18.9531 82.1465 19.4607C81.0928 20.0622 80.0429 21.1947 78.8369 20.9057C77.1001 20.4918 75.3828 19.7419 73.8373 18.8281C72.8069 18.2189 72.8928 16.7622 72.5493 15.6648C72.2683 14.7665 72.0381 14.0401 70.7774 14.0792C69.6261 14.1143 69.2475 14.5635 68.947 15.5945C68.6113 16.7465 68.7245 18.3985 67.5341 18.8867C64.9387 19.9489 62.312 22.2374 59.3653 19.5232C58.4911 18.7187 57.8276 19.1366 57.0548 19.8669C56.2274 20.648 56.4811 21.226 56.9065 22.0461C57.4607 23.1161 58.7136 24.1784 58.2374 25.3734C57.1875 27.9939 56.8675 31.4033 52.9217 31.6298C51.7781 31.6962 51.5127 32.3757 51.4854 33.4731C51.4581 34.6174 52.063 34.8751 52.9217 35.1407C54.0808 35.5 55.7278 35.375 56.2274 36.5193C57.3554 39.1007 59.5254 41.729 56.9338 44.7009C56.325 45.3961 56.2391 46.06 57.047 46.845C57.8276 47.6026 58.4247 47.8213 59.3888 47.2199C60.3684 46.6106 61.3441 45.935 62.5111 45.6968L62.5306 45.6929Z" fill="#DCDFEE" fill-opacity="0.5"/>
<path d="M26.35 37.1907C21.9943 37.1907 17.6348 37.1907 13.2792 37.1907C12.1629 37.1907 10.8516 37.3039 10.8516 35.6949C10.8516 34.0391 12.1629 34.0312 13.3845 34.0312C22.1622 34.0312 30.9437 34.0312 39.7213 34.0312C40.8687 34.0312 42.102 34.0469 42.1528 35.5895C42.2035 37.1868 40.9663 37.1907 39.815 37.1868C35.3266 37.1868 30.8422 37.1868 26.3539 37.1868L26.35 37.1907Z" fill="#DCDFEE" fill-opacity="0.5"/>
<path d="M26.461 51.6516C22.039 51.6516 17.617 51.6516 13.195 51.6516C12.0554 51.6516 10.7947 51.6946 10.8494 50.0738C10.9001 48.5508 12.1139 48.4922 13.2731 48.4922C22.117 48.4922 30.961 48.4922 39.805 48.4922C40.968 48.4922 42.174 48.5937 42.1545 50.1402C42.135 51.7531 40.8431 51.6477 39.7308 51.6477C35.3088 51.6555 30.8868 51.6477 26.4649 51.6477L26.461 51.6516Z" fill="#DCDFEE" fill-opacity="0.5"/>
<path d="M26.4307 56.577C22.2038 56.577 17.977 56.577 13.7502 56.577C13.2311 56.577 12.6964 56.6082 12.1968 56.5067C11.3499 56.3349 10.7801 55.8233 10.8269 54.886C10.8698 53.9565 11.4045 53.4722 12.3295 53.441C12.915 53.4215 13.5004 53.4137 14.0858 53.4137C22.278 53.4137 30.4741 53.3785 38.6663 53.4488C39.9659 53.4605 42.175 52.6248 42.0891 55.0266C42.0071 57.237 39.8879 56.5301 38.5297 56.5575C34.498 56.6317 30.4663 56.5848 26.4346 56.5848L26.4307 56.577Z" fill="#DCDFEE" fill-opacity="0.5"/>
<path d="M26.5491 24.4439C30.9047 24.4439 35.2604 24.4322 39.6199 24.4517C40.7751 24.4556 42.2036 24.3033 42.149 26.0568C42.0982 27.7517 40.6854 27.615 39.5301 27.615C30.8813 27.6307 22.2364 27.6268 13.5876 27.615C12.3621 27.615 10.8477 27.7752 10.8594 25.9592C10.8712 24.2369 12.3386 24.4517 13.4822 24.4478C17.8378 24.4283 22.1935 24.44 26.553 24.44L26.5491 24.4439Z" fill="#DCDFEE" fill-opacity="0.5"/>
<path d="M26.453 29.2787C30.8086 29.2787 35.1681 29.2787 39.5238 29.2787C40.6829 29.2787 42.1036 29.0678 42.1426 30.7862C42.1816 32.4733 40.8273 32.4186 39.6174 32.4186C30.8398 32.4186 22.0583 32.4147 13.2807 32.4186C12.1176 32.4186 10.9038 32.3991 10.8531 30.8682C10.8024 29.2865 12.0201 29.267 13.187 29.2709C17.609 29.2826 22.031 29.2748 26.453 29.2748V29.2787Z" fill="#DCDFEE" fill-opacity="0.5"/>
<path d="M26.3503 38.9166C30.8386 38.9166 35.3231 38.9088 39.8114 38.9205C40.9393 38.9205 42.2078 38.9049 42.157 40.5217C42.1063 42.0799 40.8574 42.0877 39.7255 42.0877C30.8816 42.0956 22.0376 42.0916 13.1975 42.0877C12.0267 42.0877 10.8246 41.9667 10.848 40.4319C10.8714 38.8346 12.1672 38.9244 13.2834 38.9205C17.639 38.9127 21.9947 38.9205 26.3542 38.9205L26.3503 38.9166Z" fill="#DCDFEE" fill-opacity="0.5"/>
<path d="M26.4489 43.7432C30.8045 43.7432 35.1641 43.7432 39.5197 43.7432C40.6828 43.7432 42.1151 43.5362 42.1346 45.2506C42.1542 47.0901 40.6437 46.8753 39.4221 46.8753C30.7733 46.8792 22.1245 46.8753 13.4757 46.8753C12.297 46.8753 10.9076 47.0237 10.8568 45.3405C10.8061 43.6182 12.1838 43.7354 13.3781 43.7393C17.7337 43.7432 22.0933 43.7393 26.4489 43.7393V43.7432Z" fill="#DCDFEE" fill-opacity="0.5"/>
<path d="M18.0214 15.2151C16.269 15.2151 14.5205 15.2151 12.7681 15.2151C11.648 15.2151 10.8205 14.7816 10.8362 13.5436C10.8518 12.3838 11.6714 12.0635 12.7056 12.0674C16.2729 12.0791 19.8401 12.0752 23.4074 12.0674C24.5197 12.0674 25.3862 12.4228 25.3471 13.6881C25.312 14.8207 24.4885 15.2034 23.4698 15.2112C21.655 15.2268 19.8401 15.2112 18.0214 15.2151Z" fill="#DCDFEE" fill-opacity="0.5"/>
<path d="M60.4767 33.2107C60.5079 27.544 65.1212 23.0217 70.8389 23.0529C76.4786 23.0841 81.1308 27.7784 81.0918 33.3942C81.0528 39.0023 76.342 43.7004 70.753 43.7043C65.0275 43.7082 60.4455 39.0296 60.4767 33.2107ZM63.6225 33.0701C63.521 36.6747 65.8354 39.592 69.387 40.334C72.6655 41.0213 76.0766 39.1819 77.3255 36.1436C77.7353 35.1477 77.6768 34.7298 76.4669 34.7962C74.9096 34.8822 73.3485 34.8665 71.7873 34.8743C69.5236 34.8861 69.1529 34.5307 69.1255 32.3203C69.1099 30.7581 69.0904 29.1999 69.1294 27.6378C69.1568 26.6028 68.8172 26.4076 67.8571 26.7981C65.5154 27.7471 63.6927 30.3754 63.6186 33.0701H63.6225ZM77.6729 31.6681C76.9977 29.235 75.6122 27.751 73.5905 26.7981C72.7474 26.4037 72.3454 26.4896 72.2596 27.5831C71.9317 31.7266 71.8966 31.7227 76.0376 31.6681C76.4864 31.6642 76.9352 31.6681 77.6729 31.6681Z" fill="#DCDFEE" fill-opacity="0.5"/>
</g>
<defs>
<clipPath id="clip0_0_3236">
<rect width="100" height="100" fill="white"/>
</clipPath>
</defs>
</svg>
