<svg width="101" height="100" viewBox="0 0 101 100" fill="none" xmlns="http://www.w3.org/2000/svg">
<g clip-path="url(#clip0_0_3256)">
<path d="M52.1504 75.353C49.5323 77.9906 46.9346 80.6119 44.3288 83.2292C43.372 84.1909 42.403 85.1363 41.4502 86.098C40.6807 86.8771 39.8419 87.502 38.8322 86.5687C37.6962 85.5137 38.4494 84.6332 39.2597 83.8257C43.2417 79.8572 47.1952 75.8562 51.2261 71.9404C52.2277 70.9666 52.6878 69.9805 52.6308 68.5765C52.529 65.943 52.5005 63.2974 52.6389 60.6679C52.7244 58.9961 52.0893 58.639 50.5421 58.6634C44.9111 58.7445 39.276 58.7567 33.645 58.6593C31.939 58.6309 31.4707 59.1503 31.4911 60.8302C31.6132 72.8007 31.6417 84.7711 31.6947 96.7375C31.7069 99.7768 31.5074 99.9716 28.4862 99.9757C26.992 99.9757 25.5018 99.9473 24.0075 99.9838C22.5824 100.016 21.9188 99.3954 21.8373 97.9508C21.4953 92.0143 21.1004 86.0778 20.7258 80.1412C20.6525 78.9929 20.6443 77.8404 20.4978 76.7043C20.4326 76.193 20.738 75.2313 19.83 75.2962C19.0442 75.349 19.2641 76.266 19.2274 76.8098C18.7796 83.6918 18.3154 90.5697 17.9897 97.4558C17.896 99.3954 17.1468 100.118 15.2536 100C13.6982 99.9026 12.1306 99.9107 10.5753 100C8.7105 100.106 8.06719 99.2899 8.0794 97.4761C8.13641 89.2956 8.05904 81.111 8.14048 72.9265C8.15676 71.279 7.77403 70.7393 6.03953 70.7718C1.21876 70.857 0.00950039 69.5788 0.00542879 64.8312C0.00542879 59.0164 -0.00678599 53.1975 0.00542879 47.3827C0.0217152 41.6653 3.38485 38.5692 9.14616 38.273C12.8676 38.0823 15.3391 38.7965 17.1387 42.5296C19.3211 47.0622 20.7136 47.0622 22.9529 42.5256C24.7241 38.9385 27.0205 37.7739 30.7419 38.3176C33.934 38.7843 36.6905 37.6481 39.2638 35.7653C42.1587 33.6471 45.1757 31.6953 48.1602 29.707C50.9207 27.8689 53.7423 28.3801 55.371 30.969C56.9304 33.4483 56.2097 36.1062 53.4451 37.8835C47.069 41.9818 40.4527 45.715 34.3575 50.2435C33.0831 51.1889 31.6295 52.0167 31.6621 54.0172C31.6824 55.2629 31.8982 55.8635 33.3152 55.7539C34.9356 55.6281 36.5684 55.7255 38.197 55.7255C57.2643 55.7255 76.3316 55.7052 95.3988 55.7621C97.1456 55.7661 97.8133 55.4739 97.8052 53.5059C97.7156 37.4777 97.7319 21.4494 97.7889 5.42526C97.7929 3.76156 97.5324 3.09203 95.6106 3.09609C70.9774 3.16913 46.3483 3.16101 21.7152 3.10826C19.9644 3.10826 19.5247 3.67229 19.5939 5.30758C19.712 8.20889 19.6672 11.1224 19.6102 14.0278C19.5898 15.095 19.8707 15.4723 21.023 15.6671C25.9944 16.5192 29.2883 20.1104 29.6304 24.8012C29.9724 29.4717 26.4545 34.8685 22.1549 36.2928C19.6427 37.1247 17.3341 36.6377 15.2006 35.1972C9.39046 31.2693 7.20401 21.1248 15.449 16.7059C16.4384 16.1784 16.5157 15.4804 16.5117 14.5634C16.4913 10.5746 16.5728 6.58172 16.475 2.59292C16.4343 0.657361 17.1387 0 19.089 0C45.4852 0.0446356 71.8813 0.0284045 98.2775 0.0324623C100.749 0.0324623 100.965 0.25564 100.965 2.70248C100.969 20.6217 100.944 38.5449 100.997 56.464C101.001 58.424 100.305 59.0448 98.3792 59.0367C84.8778 58.9799 71.3724 59.0367 57.8709 58.9636C56.1446 58.9555 55.6804 59.4465 55.7578 61.1143C55.9084 64.2834 54.9883 67.8137 56.112 70.5405C57.2317 73.2673 60.2895 75.2069 62.5207 77.4671C64.7112 79.6827 66.9302 81.8739 69.137 84.0691C69.9229 84.8523 70.5051 85.7328 69.532 86.6864C68.5792 87.6197 67.6998 87.0881 66.9058 86.2887C63.3757 82.7422 59.8294 79.2079 55.7944 75.1704C55.7944 77.9297 55.7944 80.0966 55.7944 82.2634C55.7944 83.006 55.7822 83.7526 55.7944 84.4952C55.8107 85.5786 55.7374 86.6255 54.2961 86.6418C52.7652 86.6621 52.6186 85.5502 52.6145 84.3978C52.6023 81.9632 52.6227 79.5285 52.5982 77.0938C52.5942 76.5866 52.7896 76.0226 52.1544 75.3409L52.1504 75.353ZM11.125 75.0122C11.125 81.7765 11.1575 88.5368 11.0965 95.3011C11.0842 96.6848 11.6013 97.0135 12.8839 97.0094C14.1379 97.0094 14.6184 96.7294 14.6876 95.3376C14.9848 89.1941 15.4897 83.0628 15.8073 76.9193C16.0638 71.9201 15.9905 71.9567 21.023 72.0094C22.7616 72.0257 23.584 72.5734 23.6736 74.4603C23.9993 81.3464 24.5531 88.2243 24.8381 95.1104C24.9195 97.0946 25.8601 97.123 27.3788 97.1677C29.2598 97.2245 28.8283 96.0193 28.8242 95.0252C28.7713 82.6489 28.9585 70.2646 28.5229 57.9005C28.3315 52.5077 30.0457 48.949 34.6425 46.2263C40.3468 42.8461 45.8231 39.0846 51.3849 35.465C52.3539 34.832 53.4818 34.1584 52.5168 32.7382C51.5559 31.3301 50.4932 31.8739 49.3898 32.6367C46.6618 34.5277 43.8484 36.2969 41.1733 38.2568C37.9323 40.6346 34.4023 41.994 30.3592 41.5273C28.0628 41.2636 26.4993 41.8357 25.6443 44.1284C25.2778 45.1144 24.5246 45.9706 23.8772 46.8349C21.5767 49.9107 18.238 49.9026 15.8806 46.8349C15.3431 46.137 14.6265 45.4877 14.3578 44.6924C13.2992 41.5274 10.9417 41.2677 8.11605 41.5192C5.13157 41.787 3.18535 43.5684 3.16092 46.5793C3.11206 53.0028 3.20977 59.4303 3.10798 65.8538C3.07134 68.1667 4.52897 67.7771 5.94182 67.8908C7.48495 68.0125 8.09162 67.5824 8.03462 65.9065C7.9084 62.1896 8.00204 58.4686 8.00611 54.7476C8.00611 54.0456 8.11605 53.3639 8.84894 53.0433C9.43932 52.7877 10.0501 52.7999 10.5671 53.2543C11.2756 53.8792 11.1209 54.7395 11.1209 55.5267C11.1331 62.0192 11.129 68.5116 11.129 75.0041L11.125 75.0122ZM26.4219 25.4017C26.4342 21.7578 23.4945 18.7875 19.883 18.7957C16.1697 18.8038 13.2748 21.632 13.23 25.2922C13.1811 29.4676 16.4343 33.4808 19.8463 33.4524C23.124 33.424 26.4097 29.4027 26.4219 25.4017Z" fill="#DCDFEE" fill-opacity="0.5"/>
<path d="M66.0911 10.4085C66.4291 10.5789 66.9136 10.6641 67.1253 10.9522C68.2531 12.5063 69.5031 12.1127 70.977 11.4757C72.0275 11.0212 72.4428 10.4247 72.3858 9.36155C72.2881 7.59235 73.2083 6.93499 74.8898 7.03644C75.8344 7.09324 76.7872 7.04455 77.7359 7.04455C79.6685 7.04455 80.8221 8.01166 81.1967 9.94587C81.5143 11.5893 84.5151 12.6443 85.7243 11.4432C87.1005 10.0757 88.2447 10.1204 89.4499 11.5893C89.9181 12.1614 90.4963 12.6483 91.0215 13.1759C92.5388 14.6881 92.7112 16.372 91.5386 18.2278C90.879 19.2706 92.3122 22.2044 93.6314 22.2085C96.0336 22.2166 96.7014 23.4258 96.4611 25.5602C96.3797 26.2947 96.4489 27.0454 96.4489 27.7879C96.4449 30.6365 96.4408 30.7461 93.611 31.026C91.8317 31.2046 92.247 32.7993 91.563 33.6636C90.9645 34.4224 91.2861 35.027 91.9254 35.5667C93.4848 36.8855 93.3545 38.1393 91.8317 39.4094C91.1559 39.9694 90.5777 40.643 89.9547 41.2638C87.8619 43.3455 87.8416 43.3455 85.4393 41.6087C84.2708 40.7647 81.4655 41.9861 81.1886 43.4632C80.8276 45.3784 79.6685 46.3374 77.7114 46.3401C76.8971 46.3401 76.0787 46.2955 75.2726 46.3482C73.3752 46.4781 72.2107 45.8248 72.3777 43.735C72.5202 41.9334 70.8874 42.1444 69.9673 41.5276C69.0349 40.9067 68.3631 41.1989 67.6872 41.9415C66.4616 43.3008 65.2768 43.1791 64.1001 41.8198C63.4812 41.1056 62.7646 40.4766 62.0928 39.8071C60.7057 38.4247 60.6026 36.9274 61.7834 35.3151C62.6913 34.0816 61.307 31.0585 59.7191 31.0869C57.4838 31.1275 56.8527 30.04 57.0115 28.0639C57.0766 27.2564 57.0196 26.4408 57.0237 25.6333C57.0277 22.7603 57.0562 22.7319 59.8127 22.2572C61.5676 21.9569 62.7483 19.0678 61.535 17.8098C60.1344 16.3653 60.1669 15.1926 61.6938 13.9063C62.6221 13.1231 63.4486 12.2182 64.2915 11.3336C64.7841 10.8183 65.3664 10.5383 66.0993 10.4003L66.0911 10.4085ZM93.1021 26.6396C93.2405 25.7104 92.9229 25.2275 91.905 25.2802C90.4474 25.3533 89.7104 24.6148 89.4091 23.1864C89.2056 22.2125 88.8188 21.2184 88.2772 20.3865C87.3774 18.9988 87.1779 17.8017 88.5867 16.6656C89.3603 16.0407 88.9735 15.5497 88.4157 15.0303C87.8579 14.5149 87.3489 13.8373 86.612 14.7381C85.4678 16.1421 84.2789 15.9717 82.9149 15.0303C82.0273 14.4175 80.9769 14.0848 79.906 13.8697C78.7008 13.6303 77.9313 13.046 78.1023 11.6623C78.1919 10.9238 78.0657 10.3273 77.0681 10.3476C76.266 10.3638 75.5046 10.3557 75.5209 11.4229C75.5494 13.1961 74.5193 13.886 72.9436 14.2228C72.1008 14.4013 71.2376 14.7462 70.521 15.221C69.2059 16.0853 68.0455 16.2557 66.9502 14.9491C66.2703 14.1335 65.741 14.4662 65.1465 15.0992C64.5968 15.6795 64.0716 16.1421 64.9673 16.8644C66.2825 17.9235 66.197 19.0962 65.2768 20.4149C64.8248 21.0642 64.5032 21.8595 64.32 22.6346C63.925 24.2982 63.2899 25.5602 61.2541 25.4141C60.3094 25.3492 60.2321 26.0309 60.228 26.7775C60.2199 27.5648 60.3624 28.1531 61.3192 28.0314C63.0333 27.8163 63.7662 28.632 64.0065 30.2632C64.1286 31.1031 64.5235 31.9593 64.9959 32.6816C65.9242 34.0978 66.2092 35.3557 64.7108 36.573C63.9128 37.2182 64.438 37.7417 64.9633 38.2205C65.4356 38.6506 65.8997 39.4378 66.5838 38.5735C67.8663 36.9464 69.1611 37.3359 70.6594 38.2732C71.4982 38.8008 72.512 39.1294 73.4892 39.3486C74.7555 39.6367 75.3988 40.2737 75.3051 41.5844C75.24 42.4893 75.582 42.9559 76.5795 42.9478C77.4631 42.9438 78.0942 42.7125 78.0412 41.7345C77.9476 40.0668 78.9981 39.5515 80.3539 39.1903C81.1967 38.9671 82.0721 38.6953 82.7928 38.2286C84.2301 37.3034 85.5126 37.0519 86.7219 38.5248C87.4263 39.381 87.866 38.7034 88.3261 38.2408C88.7862 37.7782 89.5109 37.3156 88.664 36.6258C87.0965 35.3435 87.4344 34.041 88.3953 32.5639C88.9002 31.7889 89.2544 30.8556 89.4254 29.9426C89.6819 28.5711 90.3212 27.8813 91.7503 28.0355C92.813 28.1491 93.2772 27.6824 93.1061 26.6274L93.1021 26.6396Z" fill="#DCDFEE" fill-opacity="0.5"/>
<path d="M86.4273 26.5864C86.4354 31.9832 82.1562 36.2642 76.7735 36.2399C71.456 36.2155 67.1605 31.9792 67.1524 26.7528C67.1442 21.3153 71.3176 17.075 76.7288 17.0181C82.1562 16.9613 86.4151 21.1652 86.4273 26.5864ZM76.859 33.0139C80.4583 33.0018 83.3247 30.1329 83.2962 26.5621C83.2677 23.0156 80.3199 20.1142 76.7776 20.1426C73.1865 20.1751 70.3771 23.0358 70.3893 26.6392C70.4056 30.2425 73.2231 33.022 76.855 33.0099L76.859 33.0139Z" fill="#DCDFEE" fill-opacity="0.5"/>
</g>
<defs>
<clipPath id="clip0_0_3256">
<rect width="101" height="100" fill="white"/>
</clipPath>
</defs>
</svg>
