<svg width="100" height="100" viewBox="0 0 100 100" fill="none" xmlns="http://www.w3.org/2000/svg">
<g clip-path="url(#clip0_0_765)">
<path d="M50.0058 10.0001C63.7753 10.0001 77.5486 10.0001 91.3181 10.0001C96.4821 10.0001 98.3333 11.8557 98.3333 17.0079C98.3333 36.9582 98.3333 56.9086 98.3333 76.8589C98.3333 81.6586 96.4431 83.5335 91.6493 83.5645C88.5743 83.5839 89.0186 83.1539 88.9835 86.2413C88.9601 88.4378 88.9484 90.6304 88.9874 92.8269C89.0147 94.3028 88.2976 94.9691 86.8711 94.973C84.9225 94.9807 82.9738 94.973 81.0251 94.973C79.47 94.973 78.8192 94.2021 78.8503 92.6719C78.901 90.2856 78.749 87.8877 78.901 85.5092C79.0062 83.8241 78.371 83.3088 76.812 83.5451C76.4301 83.6033 76.0286 83.5994 75.6467 83.5451C74.4073 83.3747 74.1072 83.9519 74.1384 85.0947C74.2086 87.6088 74.1111 90.1307 74.1774 92.6487C74.2203 94.3222 73.4447 95.004 71.8351 94.9807C70.015 94.9575 68.1988 94.9575 66.3787 94.9807C64.773 95.0001 63.9896 94.3261 64.0286 92.6526C64.091 90.1346 63.9974 87.6166 64.0637 85.0986C64.0949 83.9635 63.8065 83.3863 62.5593 83.5413C61.9825 83.611 61.3823 83.611 60.8094 83.5413C59.5427 83.3824 59.2894 83.9945 59.3206 85.114C59.3868 87.5662 59.2738 90.0222 59.3634 92.4744C59.4297 94.3416 58.584 95.0427 56.7951 94.9885C54.9789 94.9343 53.1588 94.9807 51.3387 94.9691C49.9162 94.9614 49.1952 94.3028 49.2186 92.8269C49.2575 90.243 49.1757 87.6592 49.2498 85.0792C49.2848 83.917 48.9497 83.4948 47.7259 83.5296C43.7661 83.642 44.608 83.1461 44.53 86.683C44.4872 88.6819 44.4833 90.6846 44.53 92.6874C44.569 94.2253 43.887 94.9769 42.3397 94.973C40.391 94.9691 38.4423 94.9769 36.4936 94.9691C35.0594 94.9614 34.3696 94.2796 34.3929 92.8075C34.4358 90.2895 34.3306 87.7676 34.4319 85.2535C34.4865 83.8938 34.0539 83.5103 32.6898 83.5219C24.5716 83.58 16.4494 83.5568 8.33118 83.549C3.5452 83.5568 1.66666 81.6625 1.66666 76.8473C1.66666 56.7691 1.66666 36.6909 1.66666 16.6128C1.66666 12.0068 3.66212 10.0079 8.3078 10.004C22.2058 9.99624 36.1078 10.0001 50.0058 10.0001ZM49.9825 27.754C35.6323 27.754 21.2861 27.7772 6.93592 27.7191C5.31461 27.7114 4.7339 27.9825 4.74559 29.7916C4.83134 45.5388 4.79236 61.286 4.79626 77.0332C4.79626 79.8456 5.38866 80.4422 8.21036 80.4461C16.0675 80.4538 23.9246 80.4538 31.7778 80.4461C32.9977 80.4461 34.4202 80.8722 34.9074 79.0902C34.9659 78.8772 35.4374 78.6408 35.722 78.637C38.1851 78.5982 40.6482 78.5982 43.1153 78.6254C43.4037 78.6254 43.8753 78.8268 43.9493 79.0399C44.6353 81.0039 46.2838 80.3143 47.6557 80.4654C48.9925 80.6126 49.277 80.0316 49.2498 78.819C49.1796 75.5921 49.2537 72.3652 49.2147 69.1383C49.1952 67.6043 49.8383 66.8489 51.405 66.8682C53.2874 66.8876 55.1699 66.9031 57.0523 66.8643C58.7126 66.8295 59.3868 67.6043 59.3557 69.2313C59.305 71.9391 59.3401 74.6508 59.3401 77.3625C59.3401 80.5545 59.3401 80.4887 62.5593 80.4848C63.787 80.4848 64.126 80.0897 64.0676 78.9275C63.9779 77.1882 64.0676 75.4449 64.0403 73.7017C64.0169 72.3458 64.6561 71.6214 66.0046 71.6021C68.0819 71.5711 70.1592 71.5672 72.2365 71.6021C73.5928 71.6253 74.1969 72.3846 74.1696 73.7288C74.1345 75.3403 74.3294 76.979 74.1228 78.5634C73.8461 80.663 75.1167 80.4499 76.4535 80.4693C77.8721 80.4887 78.9945 80.6862 78.9322 78.4936C78.7529 72.4969 78.862 66.4925 78.8737 60.488C78.8737 58.1869 79.1855 57.877 81.4265 57.8576C83.0478 57.8422 84.673 57.846 86.2943 57.8576C88.7185 57.8731 88.9796 58.1249 88.9835 60.5345C88.9913 66.6009 88.9796 72.6674 88.9991 78.7338C88.9991 79.28 88.7146 80.2059 89.3148 80.3066C90.8348 80.5623 92.4522 80.756 93.9254 80.1749C95.2037 79.6713 95.2271 78.4123 95.2271 77.1959C95.2115 61.3829 95.1959 45.5737 95.2544 29.7606C95.2622 28.184 94.8881 27.7075 93.2395 27.7152C78.827 27.7811 64.4106 27.754 49.9981 27.754H49.9825ZM50.0175 24.6394C64.3599 24.6394 78.7022 24.6007 93.0446 24.6859C94.8803 24.6975 95.3752 24.1552 95.231 22.4352C95.0868 20.7036 95.1998 18.9526 95.1998 17.2132C95.1998 13.5602 94.7516 13.1147 91.0569 13.1147C63.6701 13.1147 36.2793 13.1147 8.8924 13.1147C8.43641 13.1147 7.98431 13.0953 7.52832 13.1224C5.60691 13.2425 4.83134 13.9979 4.80016 15.8961C4.76118 18.1546 4.90149 20.4208 4.75339 22.6676C4.64426 24.3101 5.186 24.682 6.79172 24.6743C21.2003 24.6084 35.6089 24.6355 50.0136 24.6355L50.0175 24.6394ZM81.9877 76.3088C81.9877 80.8838 82.0735 85.4627 81.941 90.0377C81.8942 91.7228 82.5879 91.8972 83.9754 91.9088C85.3356 91.9204 85.8929 91.6725 85.8812 90.1268C85.8033 80.9768 85.7994 71.8229 85.8812 62.6728C85.8968 61.0846 85.2771 60.9335 83.9637 60.9257C82.5723 60.9219 81.8903 61.1078 81.9371 62.7774C82.0657 67.2866 81.9799 71.7996 81.9799 76.3127L81.9877 76.3088ZM56.2066 80.9032C56.2066 77.7499 56.1169 74.5927 56.2416 71.4432C56.3079 69.7542 55.3024 69.9867 54.2657 69.9673C53.1978 69.9518 52.2897 69.8046 52.3131 71.4587C52.4066 77.7654 52.4066 84.072 52.3131 90.3786C52.2897 92.0521 53.2329 91.8584 54.2852 91.87C55.3608 91.8817 56.304 92.0095 56.2416 90.3592C56.1208 87.2098 56.2066 84.0526 56.2066 80.8993V80.9032ZM71.0244 83.5645C71.0244 81.1201 70.927 78.6718 71.0595 76.2352C71.1491 74.6159 70.241 74.6585 69.1342 74.705C68.1248 74.7476 67.0958 74.4493 67.1348 76.1655C67.24 80.9225 67.2323 85.6835 67.1348 90.4367C67.1036 91.9785 67.9572 91.9243 68.9666 91.8584C69.8981 91.8003 71.1296 92.2962 71.0478 90.5065C70.9426 88.1976 71.0244 85.8772 71.0244 83.5645ZM37.5342 86.6365C37.5342 87.9226 37.6239 89.2165 37.5109 90.4948C37.3744 92.0831 38.4111 91.8855 39.3777 91.8662C40.3637 91.8468 41.5018 92.1954 41.416 90.4483C41.2991 88.0737 41.303 85.6835 41.416 83.3088C41.4862 81.8755 40.8938 81.6818 39.6232 81.6005C37.8889 81.492 37.277 82.0382 37.507 83.7427C37.6356 84.6918 37.5303 85.6719 37.5303 86.6365H37.5342Z" fill="#DCDFEE"/>
<path d="M25.581 38.9183C29.8525 36.0672 31.4738 36.0672 35.6908 38.8098C35.8428 37.822 35.8623 36.7877 36.1702 35.8463C37.2809 32.4296 41.1666 30.6709 44.5261 31.988C47.9519 33.3322 49.6707 37.423 47.874 40.6344C47.0672 42.0794 47.5154 42.4822 48.6223 43.2222C51.0971 44.884 52.5859 47.2742 53.1043 50.199C53.4355 52.0739 52.8977 52.7092 50.9685 52.7441C48.1117 52.7906 45.2588 52.7867 42.4021 52.7441C41.3069 52.7286 40.7691 52.9378 41.3225 54.1503C41.5563 54.6694 41.6499 55.266 41.72 55.8393C41.872 57.075 41.3693 57.9002 40.0442 57.904C33.8122 57.9312 27.5842 57.9312 21.3523 57.904C20.0311 57.8963 19.5361 57.0557 19.6959 55.8238C19.77 55.2505 19.8596 54.6539 20.0974 54.1348C20.6664 52.8874 20.0545 52.7325 18.9983 52.7441C16.2078 52.7789 13.4173 52.7789 10.6267 52.7441C8.49488 52.717 7.91806 52.039 8.33898 49.9859C8.96646 46.9333 10.6267 44.5276 13.277 42.8696C14.0603 42.3777 14.337 42.0949 13.7914 41.1341C12.3143 38.5193 12.6183 35.7921 14.3955 33.7622C16.1493 31.7594 18.7879 31.0466 21.2783 31.9028C23.9986 32.8402 25.4758 34.9747 25.581 38.1397C25.5888 38.3334 25.581 38.5232 25.581 38.9144V38.9183ZM30.706 54.8205C32.7755 54.8205 34.8489 54.7972 36.9185 54.8321C37.846 54.8476 38.3371 54.6849 37.7525 53.6738C36.2091 50.997 33.8746 49.5172 30.7957 49.4823C27.6349 49.4513 25.2341 50.935 23.6479 53.6777C23.0594 54.6965 23.5738 54.8476 24.4897 54.8321C26.5592 54.7972 28.6326 54.8205 30.7021 54.8205H30.706ZM17.3302 49.645C18.3007 49.645 19.2906 49.5249 20.2416 49.6721C22.0928 49.9549 23.453 49.1375 24.8132 48.0722C25.4134 47.6035 25.5147 47.3556 25.0081 46.7357C21.8161 42.8038 14.2201 43.8536 12.1428 48.51C11.7492 49.3971 11.9402 49.6644 12.8638 49.6489C14.3526 49.6256 15.8414 49.6411 17.3341 49.6489L17.3302 49.645ZM43.8597 49.645C45.4147 49.645 46.9659 49.6295 48.5209 49.6489C49.394 49.6605 49.6824 49.4629 49.2731 48.5293C47.2348 43.873 39.631 42.7844 36.4313 46.728C36.1585 47.0611 35.6596 47.4369 36.2793 47.8165C37.5537 48.5991 38.5437 49.9433 40.3676 49.6799C41.5096 49.5133 42.6944 49.6489 43.8597 49.645ZM33.972 43.0672C33.9448 41.3433 32.4365 39.8751 30.7021 39.8751C28.886 39.8751 27.3465 41.4673 27.4361 43.2609C27.5219 45.0041 29.0224 46.3716 30.7996 46.3212C32.5651 46.2747 34.0032 44.8027 33.972 43.0672ZM22.4358 37.9111C22.4358 36.1136 21.0678 34.7113 19.2789 34.6803C17.4043 34.6493 15.97 36.102 16.0129 37.9886C16.0519 39.7589 17.5134 41.1806 19.2633 41.1535C21.0211 41.1264 22.4358 39.6815 22.4397 37.9111H22.4358ZM45.3914 37.8685C45.3758 36.071 43.9922 34.6881 42.1994 34.6764C40.3365 34.6648 38.9022 36.1524 38.9685 38.0273C39.0308 39.7977 40.5079 41.2 42.2618 41.1535C44.0156 41.1032 45.4108 39.6427 45.3914 37.8685Z" fill="#DCDFEE"/>
<path d="M78.2073 51.5277C77.4044 51.3456 76.8432 51.2875 76.3365 51.0861C75.7441 50.8536 75.444 50.3074 75.4791 49.6915C75.5181 48.9981 75.9039 48.3279 76.6055 48.3008C78.7373 48.2194 80.8809 48.2039 83.0127 48.324C83.8117 48.3705 84.1508 49.1879 84.0261 49.9549C83.726 51.795 83.3791 53.6351 82.9738 55.4558C82.8062 56.2112 82.206 56.7186 81.407 56.6528C80.1833 56.5521 79.9221 55.6107 79.8793 54.2432C76.9328 56.9123 74.0994 59.349 71.4297 61.9483C70.0189 63.3236 68.7951 63.5753 66.9672 62.6999C63.4128 60.9992 59.7142 59.5969 56.113 57.9854C54.975 57.4779 54.1644 57.5128 53.1393 58.3185C49.581 61.1193 45.9331 63.8 42.3163 66.5272C41.9539 66.7984 41.5875 67.0657 41.229 67.3407C40.2819 68.069 39.2413 68.9484 38.2475 67.5848C37.2458 66.2096 38.5086 65.5084 39.4206 64.8111C41.112 63.5095 42.8269 62.235 44.53 60.9489C47.1647 58.9616 49.8344 57.0169 52.4105 54.9599C53.5681 54.0341 54.597 53.9023 55.9571 54.5144C59.7298 56.2189 63.5726 57.7684 67.3492 59.4574C68.3781 59.9184 69.0796 59.8681 69.9253 59.0662C72.5912 56.5482 75.3388 54.1193 78.2073 51.5161V51.5277Z" fill="#DCDFEE"/>
<path d="M15.5725 16.6979C16.9795 16.7637 17.8252 17.5075 17.872 18.8285C17.9187 20.134 17.1665 21.0405 15.7869 21.1063C14.3214 21.1722 13.4445 20.3277 13.4251 18.9098C13.4017 17.5695 14.2708 16.8451 15.5764 16.7017L15.5725 16.6979Z" fill="#DCDFEE"/>
<path d="M24.4118 16.6941C25.7759 16.8684 26.6138 17.6199 26.5631 18.9564C26.5086 20.3703 25.6122 21.2032 24.1506 21.0986C22.7827 21.0018 22.0461 20.0876 22.1201 18.7743C22.1942 17.4456 23.075 16.7483 24.4118 16.6902V16.6941Z" fill="#DCDFEE"/>
<path d="M33.0717 16.694C34.4241 16.8528 35.2543 17.5462 35.2192 18.9253C35.1841 20.378 34.3189 21.1799 32.873 21.0985C31.5167 21.0211 30.7918 20.1572 30.8385 18.8052C30.8853 17.4106 31.7622 16.7947 33.0717 16.694Z" fill="#DCDFEE"/>
</g>
<defs>
<clipPath id="clip0_0_765">
<rect width="96.6667" height="85" fill="white" transform="translate(1.66666 10)"/>
</clipPath>
</defs>
</svg>
