<svg width="100" height="100" viewBox="0 0 100 100" fill="none" xmlns="http://www.w3.org/2000/svg">
<g clip-path="url(#clip0_0_776)">
<path d="M100 67.7209C99.9086 70.4747 98.6961 72.9041 96.1132 74.4183C87.1022 79.693 78.058 84.9011 69.0014 90.0968C67.2739 91.0868 65.397 91.3364 63.3913 90.9079C55.5555 89.2315 47.7114 87.6009 39.8589 85.9993C38.6962 85.7622 37.5211 85.1341 36.2753 85.9827C35.2206 86.7023 33.8461 87.031 35.0088 88.8322C35.5611 89.6891 34.8925 90.5252 34.008 91.0327C29.9925 93.3415 25.9812 95.6585 21.9657 97.9714C20.7822 98.6536 19.8687 98.3874 19.1877 97.206C14.0385 88.2706 8.88939 79.3436 3.74025 70.4082C3.03017 69.1727 3.21703 68.1951 4.51262 67.4505C8.46998 65.1793 12.4149 62.8872 16.3598 60.5951C17.1197 60.1542 18.0955 59.7423 18.6188 60.541C19.6735 62.1509 20.612 61.2981 21.6501 60.6866C22.3643 60.2665 23.1242 59.9087 23.797 59.4303C28.182 56.3063 32.7955 55.8778 37.9654 57.4336C46.1625 59.9004 54.4841 61.9595 62.7601 64.1476C65.7167 64.9297 67.9217 66.5853 68.8643 69.5097C69.3585 71.0446 69.9149 70.6328 70.8492 70.0837C76.343 66.8765 81.841 63.6775 87.3638 60.5285C91.1136 58.3904 95.0502 58.9187 97.7908 61.8264C99.2857 63.4155 99.9875 65.3165 99.9917 67.7209H100ZM61.2694 80.4418C59.7039 80.525 58.2712 79.9592 56.8054 79.5682C52.8688 78.5241 48.9322 77.4591 44.9998 76.3984C43.862 76.0905 43.0439 75.4416 43.4675 74.1687C43.8329 73.0788 44.7465 72.8167 45.8386 73.1953C46.2953 73.3534 46.7729 73.4366 47.2421 73.5614C51.378 74.672 55.5056 75.816 59.6499 76.8809C62.6521 77.6505 65.2143 76.1529 65.9077 73.3284C66.5638 70.6495 65.0565 68.2783 62.0334 67.4505C54.7042 65.4455 47.3542 63.532 40.0292 61.5186C30.25 58.8313 31.4791 58.8729 22.6176 63.9812C22.5595 64.0145 22.5055 64.0644 22.4391 64.0894C21.3677 64.4804 21.4342 65.0669 21.9574 65.9613C25.2711 71.6353 28.5599 77.3302 31.7947 83.05C32.3802 84.0858 32.9699 84.3104 33.8544 83.5575C35.8061 81.8977 37.9239 82.0849 40.2659 82.609C47.9522 84.3229 55.6801 85.8288 63.3747 87.5135C65.2018 87.9128 66.7424 87.605 68.3162 86.6899C76.7417 81.7854 85.1921 76.9308 93.6217 72.0347C96.5285 70.3458 97.4669 67.5878 96.0634 65.0586C94.6432 62.5003 91.6991 61.9096 88.7051 63.6276C82.5303 67.1718 76.3763 70.7576 70.1973 74.2893C69.3128 74.7927 68.7647 75.4791 68.2622 76.3443C66.7175 79.0066 64.3298 80.3336 61.2694 80.4418ZM31.0307 88.4412C30.9518 88.2706 30.877 88.0751 30.7732 87.8962C26.3508 80.2171 21.92 72.5464 17.5183 64.8589C17.0491 64.0436 16.5923 64.3057 16.0151 64.6426C13.4489 66.1443 10.8951 67.6668 8.29142 69.102C7.41524 69.5845 7.32804 69.9839 7.82634 70.8408C12.1782 78.3161 16.4968 85.8163 20.7947 93.3248C21.2805 94.1734 21.6792 94.344 22.5554 93.8115C25.0967 92.2682 27.692 90.8164 30.2624 89.323C30.6071 89.1234 31.0473 88.9903 31.0307 88.437V88.4412Z" fill="#DCDFEE"/>
<path d="M50.9046 1.69988C57.2663 1.69988 63.6321 1.75396 69.9938 1.6666C71.987 1.64164 72.7137 2.41537 72.6971 4.35386C72.6431 10.6602 72.7511 16.9665 72.6307 23.2687C72.5974 24.9285 73.1082 25.4859 74.6737 25.8187C83.2736 27.649 89.1909 34.9329 89.2574 43.5979C89.3197 52.0299 83.5269 59.4137 75.2385 61.4603C65.235 63.9354 55.2939 57.5792 53.1055 47.1837C52.7982 45.7153 52.3165 45.3243 50.8673 45.3451C44.5762 45.4283 38.281 45.3867 31.9857 45.3783C29.4361 45.3742 29.0748 45.0289 29.0748 42.5122C29.0665 29.833 29.0624 17.1537 29.0748 4.4745C29.0748 1.99107 29.3613 1.71236 31.8155 1.7082C38.1772 1.69572 44.543 1.7082 50.9046 1.7082V1.69988ZM32.4093 23.4975C32.4093 29.1133 32.4176 34.725 32.401 40.3408C32.401 41.3308 32.4384 42.0671 33.7921 42.0546C39.7427 42.0005 45.6932 42.0213 51.6438 42.0421C52.5034 42.0421 52.7816 41.7135 52.9518 40.8649C54.617 32.5161 59.6416 27.4119 67.9508 25.6482C69.0969 25.4069 69.3668 24.9576 69.3585 23.8844C69.317 18.1313 69.3045 12.3782 69.3626 6.62514C69.3751 5.29815 68.8851 4.982 67.6601 5.01528C64.8945 5.09016 62.1248 5.09016 59.3592 5.01528C58.1757 4.982 57.8145 5.37303 57.8352 6.55027C57.9017 10.1527 57.8061 13.7593 57.8809 17.3617C57.9224 19.2794 57.2456 20.1738 55.2274 20.1072C52.3248 20.0074 49.4139 20.0074 46.5113 20.1072C44.5139 20.1779 43.7748 19.3293 43.8121 17.395C43.8786 13.8591 43.7789 10.3233 43.8578 6.79154C43.8869 5.47702 43.5547 4.94872 42.147 5.00696C39.5226 5.11096 36.8857 5.11512 34.2613 5.00696C32.8204 4.94872 32.3636 5.38551 32.3844 6.8581C32.4633 12.4032 32.4176 17.9483 32.4176 23.4933L32.4093 23.4975ZM56.0995 43.7019C56.1078 51.9509 62.8141 58.6732 71.0153 58.6566C79.2041 58.6358 85.9354 51.8552 85.9104 43.6478C85.8855 35.3739 79.229 28.7472 70.9614 28.7597C62.6729 28.7722 56.0912 35.3947 56.1036 43.7061L56.0995 43.7019ZM54.5215 10.8807C54.5215 6.79847 52.567 4.85305 48.6581 5.0444C48.5875 5.0444 48.5211 5.05272 48.4505 5.0444C47.4539 4.9404 47.1383 5.41047 47.1508 6.37555C47.1881 9.41225 47.1798 12.4489 47.1549 15.4856C47.1466 16.3051 47.3501 16.6795 48.2886 16.7752C54.5215 17.4075 54.5215 17.4324 54.5215 11.2967V10.8807Z" fill="#DCDFEE"/>
<path d="M71.0774 31.3014C72.1986 31.3846 72.7135 32.1958 72.6346 33.2607C72.5266 34.7541 73.1204 35.1243 74.5281 35.0744C75.8569 35.0245 77.8626 34.4546 77.8668 36.6967C77.8709 38.9348 75.8777 38.3066 74.5364 38.3565C72.6014 38.4272 70.6663 38.3732 68.7271 38.3773C67.5311 38.3773 66.6591 38.864 66.6259 40.1494C66.5927 41.4515 67.4938 41.9714 68.6565 42.013C70.3133 42.0671 71.9785 41.9964 73.6353 42.0546C76.4881 42.1586 78.5436 44.1262 78.6848 46.8135C78.8343 49.5965 77.1691 51.7887 74.3081 52.1714C72.9377 52.3544 72.5889 52.8827 72.6387 54.139C72.6803 55.2414 72.1072 56.0525 70.903 56.0109C69.8109 55.9735 69.271 55.1956 69.3707 54.1765C69.541 52.4834 68.6731 52.1464 67.2695 52.3128C66.9955 52.3461 66.7172 52.3212 66.439 52.3128C65.2846 52.2879 64.0804 52.2213 64.0513 50.6739C64.0222 49.1305 65.1808 48.9766 66.3643 48.9683C68.4405 48.96 70.5126 48.9683 72.5889 48.9558C73.8679 48.9475 75.2797 48.9434 75.313 47.1879C75.3462 45.4283 73.9925 45.3534 72.6761 45.3659C71.3639 45.3784 70.0476 45.3992 68.7354 45.3576C65.6044 45.2577 63.4284 43.3109 63.2665 40.5113C63.1045 37.6535 64.9524 35.4322 68.071 35.0827C69.2793 34.9455 69.3126 34.4047 69.3624 33.4937C69.4454 31.9046 69.9521 31.2973 71.0815 31.2889L71.0774 31.3014Z" fill="#DCDFEE"/>
</g>
<defs>
<clipPath id="clip0_0_776">
<rect width="96.6667" height="96.6667" fill="white" transform="translate(3.33331 1.66663)"/>
</clipPath>
</defs>
</svg>
