<svg width="100" height="100" viewBox="0 0 100 100" fill="none" xmlns="http://www.w3.org/2000/svg">
<g clip-path="url(#clip0_0_784)">
<path d="M92.0722 46.8342C92.0722 59.3241 92.0759 71.8177 92.0722 84.3076C92.0685 93.6286 86.903 98.8835 77.7578 98.8835C58.1246 98.8835 38.4913 98.8835 18.8581 98.8835C11.6317 98.8835 7.15075 94.435 7.10961 87.1508C7.06847 79.9575 7.08717 72.768 7.10587 65.5747C7.11335 62.1787 8.41126 60.865 11.7327 60.8498C15.3459 60.8309 18.9666 60.7476 22.5761 60.8839C24.3827 60.9521 24.9849 60.5621 24.9736 58.5518C24.8801 41.7081 24.9175 24.8644 24.9213 8.02068C24.9213 3.54568 27.2927 1.67921 31.2462 3.57219C35.428 5.57874 39.3255 5.93462 43.38 3.5419C46.4172 1.75114 49.4955 1.79279 52.5402 3.54947C56.5199 5.83997 60.4735 5.8589 64.4645 3.54947C67.4979 1.79658 70.5688 1.76629 73.6284 3.53054C77.597 5.81725 81.5393 5.87026 85.564 3.58733C86.8619 2.85286 88.358 2.4364 89.8654 3.21252C91.758 4.1893 92.0872 5.90055 92.0834 7.84274C92.0647 20.8399 92.0722 33.8333 92.0722 46.8305V46.8342ZM26.0808 95.0824H28.5794C45.0295 95.0824 61.4834 95.0824 77.9336 95.0824C84.7149 95.0824 88.2944 91.4706 88.2982 84.5726C88.3094 59.343 88.3019 34.1134 88.3019 8.88387C88.3019 6.59337 88.1747 6.36622 86.2484 7.41871C81.7787 9.86444 77.4399 9.94773 73.0337 7.38464C70.4042 5.85511 67.7448 5.83997 65.1041 7.38085C60.7054 9.95151 56.318 9.9553 51.9118 7.38085C49.2861 5.85133 46.6267 5.82861 43.9897 7.37328C39.591 9.95151 35.2522 9.86444 30.7787 7.4225C28.8 6.3435 28.6729 6.57444 28.6729 8.97852C28.6729 34.5867 28.6542 60.1949 28.6953 85.803C28.699 89.0211 28.4597 92.0953 26.077 95.0824H26.0808ZM24.9175 77.2506C24.9175 73.5933 24.8801 69.9323 24.94 66.2751C24.9587 65.1014 24.6968 64.5979 23.4102 64.6244C19.7334 64.7039 16.0566 64.685 12.3798 64.632C11.2652 64.6168 10.8462 64.9538 10.8537 66.1312C10.8986 73.3851 10.8088 80.639 10.9098 87.8929C10.9659 92.1256 14.0817 95.1392 18.0203 95.0748C21.9477 95.0105 24.8726 91.8833 24.9101 87.6581C24.94 84.1902 24.9175 80.7185 24.9175 77.2506Z" fill="#DCDFEE"/>
<path d="M61.6031 79.2873C61.633 78.0039 60.8513 77.3792 59.8002 76.9325C58.3116 76.3002 56.7668 75.755 55.3754 74.9448C51.5901 72.7301 51.5826 67.4865 55.3305 65.1733C56.0898 64.7038 56.7331 64.382 56.8154 63.2803C56.8865 62.3452 57.6757 61.7508 58.6893 61.8038C59.5945 61.853 60.3388 62.402 60.365 63.2841C60.3987 64.3896 61.0345 64.6357 61.835 64.878C62.1305 64.9689 62.411 65.1203 62.684 65.2717C63.9371 65.9684 65.2761 66.7937 64.3859 68.4671C63.5406 70.061 62.2352 69.4439 61.0158 68.717C60.4959 68.4103 59.8601 68.2361 59.2579 68.1529C58.0011 67.9749 56.8341 68.1718 56.3965 69.6142C55.9439 71.0945 57.0249 71.6321 58.0722 72.1092C59.0933 72.5748 60.1294 72.9989 61.1729 73.4115C63.578 74.3618 65.1228 76.0201 65.3435 78.6967C65.5754 81.5438 64.3859 83.732 62.0183 85.2048C61.158 85.7386 60.3388 86.049 60.3463 87.3514C60.3501 88.2297 59.5608 88.7295 58.6332 88.756C57.7019 88.7787 56.8715 88.2941 56.8565 87.4347C56.8304 86.0945 55.9439 86.0339 55.1023 85.7121C54.4103 85.4471 53.7296 85.1177 53.0937 84.7277C52.0315 84.0728 51.6649 83.0846 52.3344 81.9905C52.9479 80.9834 53.9391 80.7941 54.9303 81.4491C56.2095 82.2972 57.5971 82.4675 59.0484 82.2782C60.5707 82.0814 61.6255 80.8017 61.6031 79.2835V79.2873Z" fill="#DCDFEE"/>
<path d="M58.8651 19.174C64.5916 19.174 70.3143 19.174 76.0409 19.1778C76.6618 19.1778 77.2901 19.1854 77.8961 19.2876C78.8237 19.4428 79.3137 20.1243 79.3361 21.014C79.3623 21.9946 78.8499 22.7063 77.8437 22.888C77.2976 22.9865 76.7291 22.9789 76.1718 22.9789C64.5355 22.9827 52.8992 22.9789 41.2629 22.9789C40.8888 22.9789 40.5148 22.9789 40.1445 22.9638C38.9176 22.9183 38.0461 22.3466 38.0611 21.0481C38.0761 19.7457 38.9812 19.1929 40.1969 19.1854C42.9984 19.1664 45.7962 19.1702 48.5977 19.1702C52.0202 19.1702 55.4426 19.1702 58.8651 19.1702V19.174Z" fill="#DCDFEE"/>
<path d="M58.7492 27.9461C64.7225 27.9461 70.6996 27.9461 76.673 27.9461C77.4809 27.9461 78.3076 27.9006 78.9098 28.62C79.7364 29.6119 79.3773 31.1149 78.128 31.5389C77.4996 31.751 76.7852 31.7547 76.1082 31.7547C64.5318 31.7661 52.9591 31.7623 41.3826 31.7623C41.0721 31.7623 40.7617 31.7623 40.4475 31.7585C39.1122 31.732 38.02 31.2626 38.0724 29.733C38.121 28.3095 39.1945 27.9385 40.455 27.9423C46.5555 27.9536 52.6523 27.9461 58.7529 27.9423L58.7492 27.9461Z" fill="#DCDFEE"/>
<path d="M58.5547 36.7144C64.5917 36.7144 70.6286 36.7296 76.6656 36.7031C78.0421 36.6955 79.3213 36.9113 79.3213 38.5847C79.3213 40.2278 78.0533 40.5193 76.6768 40.5193C64.6665 40.5079 52.6524 40.5117 40.6421 40.5193C39.2432 40.5193 38.0313 40.1294 38.0762 38.5014C38.1173 36.9605 39.3142 36.7031 40.6308 36.7069C46.6042 36.7296 52.5813 36.7182 58.5547 36.7182V36.7144Z" fill="#DCDFEE"/>
<path d="M58.8613 45.4524C64.7749 45.4524 70.6884 45.4675 76.5982 45.441C77.9597 45.4334 79.2763 45.6076 79.3137 47.2658C79.3511 49.0339 77.9971 49.2686 76.5571 49.2686C64.6066 49.2535 52.6561 49.2535 40.7056 49.2686C39.4825 49.2686 38.4314 49.0415 38.0836 47.6861C37.7544 46.3951 38.783 45.4675 40.5597 45.46C46.6602 45.4448 52.7608 45.4524 58.8576 45.4524H58.8613Z" fill="#DCDFEE"/>
<path d="M54.6422 57.9876C50.0378 57.9876 45.4297 57.9687 40.8253 57.999C39.3778 58.0066 38.0275 57.7567 38.0836 55.9924C38.136 54.3569 39.4563 54.1714 40.8178 54.1714C49.9668 54.1941 59.1157 54.1903 68.2647 54.1752C69.6224 54.1752 70.8942 54.3607 70.8979 56.0719C70.8979 57.7718 69.6411 57.9952 68.2759 57.9914C63.7313 57.9763 59.1905 57.9838 54.646 57.9838L54.6422 57.9876Z" fill="#DCDFEE"/>
<path d="M79.3698 56.1061C79.1865 57.2683 78.5731 58.0104 77.4061 57.9422C76.2541 57.8741 75.622 57.1245 75.6968 55.9395C75.7678 54.8453 76.4299 54.2169 77.5034 54.2244C78.6928 54.232 79.2314 55.0043 79.3661 56.1061H79.3698Z" fill="#DCDFEE"/>
</g>
<defs>
<clipPath id="clip0_0_784">
<rect width="85" height="96.6667" fill="white" transform="translate(7.08337 2.2168)"/>
</clipPath>
</defs>
</svg>
