<svg width="91" height="91" viewBox="0 0 91 91" fill="none" xmlns="http://www.w3.org/2000/svg">
<path d="M45.4746 0.0625C70.4262 0.0625 90.6541 20.2897 90.6543 45.2412C90.6543 70.193 70.4264 90.4209 45.4746 90.4209C20.5231 90.4207 0.295898 70.1928 0.295898 45.2412C0.296123 20.2898 20.5232 0.0627247 45.4746 0.0625Z" fill="#6D3FFF"/>
<g clip-path="url(#clip0_1_2473)">
<path d="M62.891 41.185C62.5093 34.8693 59.8395 29.9388 54.4318 26.8012C48.4505 23.3306 42.3561 23.5377 36.4899 27.2003C31.5193 30.3038 28.6235 36.1371 28.8389 41.1765C29.5767 40.8691 30.3273 40.7112 31.1227 40.7582C32.9182 40.8627 34.4641 42.3141 34.4919 44.1199C34.543 47.6395 34.5473 51.1613 34.4961 54.6831C34.4641 56.8901 32.0567 58.5336 29.839 57.9552C29.5021 57.8677 29.1737 57.7524 28.7493 57.6222C28.7493 58.365 28.7024 59.0373 28.76 59.7011C28.8752 61.0586 29.9947 62.1066 31.4042 62.128C33.7477 62.1642 36.0933 62.1322 38.4389 62.1536C38.8782 62.1578 39.1362 62.0234 39.3644 61.6328C39.8697 60.7641 40.663 60.3713 41.6759 60.3863C42.8487 60.4033 44.0215 60.3671 45.1922 60.4012C46.5889 60.4418 47.5676 61.4129 47.6956 62.8152C47.8129 64.1215 47.0111 65.3424 45.7146 65.5772C44.1729 65.8568 42.6034 65.7735 41.0489 65.6156C40.3879 65.5494 39.793 65.1908 39.4902 64.6081C39.1511 63.9614 38.6884 63.8462 38.0295 63.8568C35.8971 63.891 33.7647 63.891 31.6345 63.8611C28.856 63.8227 27.0498 61.9892 27.0264 59.2294C27.0178 58.2326 26.9688 57.2337 27.0413 56.2434C27.1031 55.4259 26.8174 55.2338 26.0306 55.2445C23.8982 55.2679 22.414 54.348 22.0878 52.553C21.7061 50.4612 21.7039 48.2948 22.0963 46.2009C22.414 44.5019 23.8982 43.4817 25.7363 43.5756C26.8558 43.6332 27.0413 43.2597 27.0498 42.2245C27.1053 35.1937 29.6108 29.3476 35.7692 25.5654C46.4204 19.0255 62.5135 24.0478 64.3964 39.326C64.5286 40.391 64.6331 41.454 64.5564 42.5148C64.4945 43.375 64.7952 43.582 65.6183 43.5649C67.6803 43.5222 69.1516 44.4187 69.4907 46.1753C69.9001 48.2991 69.9065 50.5039 69.4864 52.6277C69.1474 54.3437 67.6632 55.2637 65.7015 55.2509C64.9423 55.2466 64.4519 55.3576 64.0595 56.158C63.3302 57.6435 61.5412 58.333 59.9845 57.9317C58.2296 57.4792 57.1037 56.111 57.0909 54.3181C57.0674 51.0823 57.0717 47.8444 57.0866 44.6086C57.0994 41.8019 59.413 40.12 62.0892 40.9438C62.3174 41.0143 62.5455 41.0783 62.891 41.1808V41.185ZM62.859 49.3086C62.859 47.7484 62.8696 46.1881 62.8547 44.6279C62.8419 43.264 62.0529 42.455 60.7906 42.4764C59.5559 42.4956 58.8074 43.2704 58.8032 44.5894C58.7925 47.7804 58.7925 50.9735 58.8032 54.1644C58.8074 55.5198 59.605 56.3458 60.8588 56.3394C62.0423 56.333 62.8398 55.4963 62.8547 54.2029C62.8718 52.5722 62.859 50.9393 62.859 49.3086ZM28.7365 49.3961C28.7365 50.9607 28.7301 52.5273 28.7365 54.0919C28.7429 55.4899 29.4893 56.3138 30.741 56.3309C31.9906 56.3479 32.7881 55.5113 32.7902 54.1431C32.7987 50.9777 32.7987 47.8103 32.7902 44.6449C32.7859 43.264 32.0034 42.4571 30.7367 42.4764C29.4658 42.4956 28.7429 43.2896 28.7365 44.7026C28.728 46.2671 28.7365 47.8337 28.7365 49.3983V49.3961ZM27.02 49.4901C27.02 48.3161 27.0264 47.1422 27.0136 45.9683C27.0114 45.7121 27.1181 45.4155 26.7193 45.2724C25.2373 44.7367 23.6572 45.7868 23.6274 47.377C23.6039 48.5851 23.621 49.7953 23.6231 51.0055C23.6274 52.8731 24.3652 53.5604 26.2075 53.5604C26.8899 53.5604 27.0562 53.3235 27.0306 52.6917C26.988 51.6266 27.02 50.5573 27.0178 49.4901H27.02ZM67.9682 49.4047H67.9724C67.9724 48.7281 67.9874 48.0536 67.9703 47.377C67.9298 45.7847 66.3625 44.7346 64.8783 45.2703C64.5414 45.392 64.5819 45.6246 64.5798 45.8594C64.5756 48.2073 64.5734 50.5551 64.5798 52.9009C64.5798 53.1335 64.5286 53.379 64.8506 53.5177C66.1322 54.0641 67.868 53.046 67.9596 51.6437C68.0066 50.9009 67.9682 50.1496 67.9682 49.4025V49.4047ZM43.3775 62.113C42.7762 62.113 42.1727 62.1002 41.5714 62.1173C41.0255 62.1322 40.7269 62.4417 40.6907 62.9796C40.6523 63.5345 40.9658 63.9123 41.4754 63.9337C42.7101 63.987 43.9511 63.987 45.1879 63.9337C45.7061 63.9123 46.0089 63.5025 45.9726 62.971C45.9364 62.4502 45.6293 62.1258 45.0791 62.113C44.5119 62.1023 43.9469 62.1109 43.3796 62.1109L43.3775 62.113Z" fill="white"/>
<path d="M40.0577 50.6913C40.2837 49.1865 39.8466 47.9678 38.9403 46.6829C36.9124 43.8099 37.2834 39.7204 39.5438 37.0908C41.9939 34.2413 45.8407 33.3748 49.1928 34.9179C52.5385 36.459 54.43 39.9829 53.8798 43.652C53.3616 47.1076 50.5767 50.1748 47.0135 50.3092C44.6594 50.3967 43.4887 51.7243 42.0856 53.0562C41.6826 53.4383 41.32 54.0018 40.6547 53.7435C39.9297 53.4639 40.0662 52.7766 40.0598 52.1833C40.0555 51.6859 40.0598 51.1886 40.0598 50.6913H40.0577ZM41.6591 50.7425C41.9939 50.5995 42.1112 50.5846 42.1666 50.5184C43.2115 49.2954 44.3395 48.2879 46.1414 48.8002C46.3269 48.8536 46.5572 48.7447 46.7683 48.7105C49.566 48.273 51.7389 46.145 52.1675 43.4279C52.6025 40.6659 51.2804 37.9488 48.8964 36.7044C46.3653 35.3832 43.1838 35.8315 41.2113 37.7866C39.2943 39.6862 38.6482 42.922 40.1025 45.2379C41.1708 46.9368 42.2775 48.4843 41.657 50.7446L41.6591 50.7425Z" fill="white"/>
<path d="M43.6307 42.4934C43.5049 43.0483 43.249 43.3898 42.6839 43.3642C42.1167 43.3386 41.8395 42.9843 41.8694 42.4613C41.8971 41.9405 42.2105 41.6076 42.7714 41.631C43.3428 41.6524 43.5241 42.0643 43.6328 42.4934H43.6307Z" fill="white"/>
<path d="M49.7451 42.5213C49.664 43.0741 49.3911 43.39 48.826 43.3623C48.2609 43.3345 47.9731 42.9717 47.9986 42.4615C48.0242 41.9535 48.3483 41.6056 48.9092 41.6334C49.4721 41.659 49.6918 42.0368 49.7451 42.5234V42.5213Z" fill="white"/>
<path d="M45.7272 41.6055C46.3328 41.6866 46.659 41.9619 46.6505 42.5105C46.6441 43.0569 46.3328 43.3621 45.7869 43.3578C45.2389 43.3536 44.9489 43.0355 44.9425 42.4913C44.9361 41.9214 45.3178 41.7143 45.7272 41.6076V41.6055Z" fill="white"/>
</g>
<defs>
<clipPath id="clip0_1_2473">
<rect width="48" height="43" fill="white" transform="translate(21.7998 22.7646)"/>
</clipPath>
</defs>
</svg>
