<svg width="91" height="91" viewBox="0 0 91 91" fill="none" xmlns="http://www.w3.org/2000/svg">
<path d="M45.5762 0C70.5278 0 90.7556 20.2272 90.7559 45.1787C90.7559 70.1305 70.5279 90.3584 45.5762 90.3584C20.6246 90.3582 0.397461 70.1303 0.397461 45.1787C0.397686 20.2273 20.6248 0.000224744 45.5762 0Z" fill="#6D3FFF"/>
<g clip-path="url(#clip0_1_2490)">
<path d="M57.8644 39.8963C57.3897 39.8982 57.1289 40.1474 56.8399 40.3079C53.5093 42.1659 50.1843 44.0315 46.8575 45.8989C46.319 46.201 45.9587 47.5077 46.2627 48.025C46.4147 48.2856 46.7017 48.2403 46.9288 48.2837C50.6516 48.9974 53.0571 51.2066 54.228 54.8018C54.3631 55.2172 54.4269 55.3569 54.8922 55.1247C57.8569 53.6424 57.8644 53.6556 57.8644 50.3079C57.8644 49.5847 57.87 48.8596 57.8644 48.1364C57.8588 47.6436 57.9826 47.2376 58.5568 47.2169C59.146 47.1961 59.2848 47.6266 59.2886 48.1024C59.2998 49.613 59.298 51.1236 59.2923 52.6341C59.2923 53.025 59.3205 53.3422 59.7352 53.5707C62.3358 55.0019 64.9196 56.4634 67.5935 57.9626C67.5466 56.9978 67.1863 56.2028 66.9724 55.3796C66.8373 54.8565 66.8298 54.3977 67.4115 54.2315C68.0101 54.0616 68.2333 54.5072 68.3722 55.0019C68.7175 56.2406 69.0796 57.4736 69.4155 58.7141C69.6519 59.5884 69.3798 60.1208 68.5223 60.3852C67.2407 60.7798 65.946 61.1291 64.6569 61.4992C64.2141 61.6257 63.8313 61.5691 63.6643 61.0819C63.4786 60.5362 63.8032 60.2436 64.2667 60.0982C65.096 59.8414 65.9329 59.6186 66.9349 59.3335C66.629 59.1239 66.4527 58.9841 66.2594 58.8746C63.9439 57.5699 61.6191 56.284 59.3149 54.9604C58.8533 54.696 58.4986 54.6753 58.0427 54.9585C57.1664 55.5004 56.2676 56.014 55.3482 56.4804C54.7777 56.7693 54.5826 57.1545 54.5413 57.7984C54.1998 62.955 50.1993 66.603 45.073 66.4803C40.7048 66.3746 36.7719 62.6756 36.4885 58.2798C36.421 57.2338 36.0964 56.6258 35.1488 56.2104C34.1543 55.7723 33.2274 54.7923 32.2629 54.7791C31.3397 54.7659 30.4015 55.6892 29.4746 56.2085C27.7577 57.1715 26.0427 58.1401 24.3276 59.1069C24.2751 59.1371 24.2357 59.1881 24.1438 59.273C24.9056 59.6903 25.7443 59.7885 26.5286 60.0453C27.0465 60.2153 27.525 60.4116 27.3149 61.0725C27.1235 61.6748 26.6562 61.5918 26.1571 61.4407C24.9637 61.08 23.7535 60.7704 22.5582 60.4154C21.5862 60.1265 21.3254 59.628 21.5975 58.6367C21.9202 57.4566 22.2655 56.284 22.5863 55.1039C22.7271 54.5865 22.896 54.0559 23.5583 54.2334C24.2038 54.4053 24.1475 54.917 23.9768 55.457C23.7328 56.2293 23.5433 57.0185 23.275 58.0042C24.1231 57.5416 24.8136 57.1696 25.4966 56.7882C27.298 55.7818 29.0843 54.7451 30.9044 53.7784C31.5161 53.4536 31.7075 53.059 31.7019 52.3754C31.67 47.9703 31.7056 43.5651 31.6662 39.1599C31.6568 38.1988 31.9195 37.587 32.8164 37.1395C34.2688 36.4145 35.6573 35.561 37.0721 34.7604C37.5318 34.4998 38.0272 34.2638 38.3649 34.8756C38.7102 35.5025 38.2073 35.7762 37.7607 36.0293C36.4398 36.7789 35.1169 37.5228 33.7828 38.2762C33.9986 38.6709 34.3194 38.7483 34.5784 38.8937C37.984 40.8102 41.3953 42.7154 44.8047 44.6244C45.1537 44.8188 45.4446 45.0568 45.9118 44.7924C49.6608 42.6663 53.4267 40.5685 57.1833 38.465C57.0876 38.0836 56.7705 38.0402 56.5397 37.9118C53.0796 35.9651 49.6083 34.041 46.1595 32.0735C45.6528 31.7846 45.2982 31.7921 44.8085 32.0867C43.5213 32.8571 42.1928 33.5576 40.8868 34.2959C40.4459 34.5451 39.9955 34.7321 39.6709 34.1807C39.3069 33.5633 39.761 33.2744 40.2244 33.0157C41.5623 32.2699 42.8927 31.5108 44.238 30.7782C44.6077 30.5761 44.7691 30.3382 44.7653 29.8964C44.7465 26.9716 44.7559 24.0467 44.7559 21.0162C44.0654 21.3617 43.707 21.9584 43.2098 22.3908C42.9734 22.5966 42.7707 22.8439 42.5211 23.0271C42.2022 23.2612 41.8625 23.2216 41.5942 22.9308C41.3203 22.6344 41.309 22.285 41.5886 21.998C42.6637 20.901 43.7314 19.7945 44.8535 18.7484C45.2982 18.3349 45.863 18.4388 46.2964 18.8636C47.3041 19.8511 48.2929 20.8594 49.2874 21.8602C49.6158 22.1906 49.7396 22.5702 49.3812 22.9365C48.9891 23.3368 48.5838 23.197 48.2366 22.8421C47.6324 22.2246 47.0432 21.594 46.4466 20.969C46.3753 21.0048 46.3021 21.0407 46.2308 21.0766V22.4493C46.2308 24.6831 46.3021 26.9206 46.1989 29.1505C46.1501 30.2004 46.5422 30.6894 47.4091 31.1596C51.0343 33.129 54.607 35.1966 58.2265 37.1754C59.024 37.6116 59.3411 38.1478 59.3167 39.0428C59.2679 40.7724 59.3055 42.5039 59.2998 44.2335C59.298 44.7528 59.2698 45.3287 58.5662 45.3136C57.8757 45.2966 57.8682 44.7377 57.87 44.209C57.8757 42.7947 57.8719 41.3785 57.8719 39.8963H57.8644ZM45.5009 49.63C41.2452 49.6206 37.802 53.0684 37.8076 57.3339C37.8133 61.5597 41.2077 64.9867 45.4239 65.0245C49.6721 65.0623 53.1434 61.6257 53.1659 57.3641C53.1866 53.1005 49.7584 49.6394 45.5009 49.6319V49.63ZM33.1167 39.7283C33.1167 44.3128 33.1167 48.7048 33.1129 53.0967C33.1129 53.3516 33.2255 53.5065 33.4319 53.6217C34.4639 54.1957 35.4959 54.7697 36.543 55.3512C37.7251 51.42 40.1719 48.9842 44.1799 48.2554C44.4351 48.2082 44.8197 48.2252 44.739 47.8022C44.6265 47.2036 45.1199 46.4578 44.33 46.016C40.656 43.9578 36.982 41.8959 33.1167 39.7301V39.7283Z" fill="white"/>
<path d="M45.8519 57.2983C45.8519 56.6091 45.8557 55.9199 45.8519 55.2288C45.8482 54.7284 46.0658 54.3791 46.5387 54.2318C48.9255 53.4916 50.6123 54.7718 50.6274 57.302C50.633 58.2593 50.6142 59.1921 49.7961 59.8757C48.7641 60.7367 47.5632 60.5006 46.4055 60.342C45.9777 60.2835 45.8407 59.8133 45.8501 59.3639C45.8613 58.6748 45.8538 57.9856 45.8538 57.2945L45.8519 57.2983ZM47.263 57.2813C47.263 57.5003 47.2311 57.7269 47.2705 57.9402C47.3455 58.3594 46.9571 59.0165 47.8447 59.0392C48.7284 59.0599 49.1656 58.7333 49.2144 57.8855C49.2388 57.4474 49.252 57.0018 49.1994 56.5694C49.1018 55.7669 48.5202 55.6178 47.8334 55.6121C47.0153 55.6064 47.3211 56.2163 47.2686 56.6242C47.2405 56.8394 47.263 57.0622 47.263 57.2832V57.2813Z" fill="white"/>
<path d="M44.7049 57.3185C44.7049 57.9171 44.7405 58.5176 44.6955 59.1123C44.6317 59.9432 44.2076 60.453 43.3182 60.4511C42.5996 60.4511 41.879 60.4511 41.1604 60.4511C40.6763 60.4511 40.3779 60.2377 40.3817 59.7241C40.3854 59.2464 40.7044 59.0651 41.121 59.0481C41.652 59.0255 42.183 59.0274 42.7159 59.0311C43.0405 59.033 43.2394 58.9575 43.2451 58.5629C43.2526 58.1418 43.0781 58.0115 42.6878 58.0247C42.1567 58.0398 41.6239 58.0247 41.0928 58.0191C40.6463 58.0115 40.3779 57.7868 40.3779 57.328C40.3779 56.871 40.6406 56.6426 41.091 56.635C41.5601 56.6275 42.0292 56.6294 42.4983 56.6256C42.866 56.6218 43.2619 56.7143 43.2469 56.095C43.2338 55.5323 42.8679 55.6248 42.5395 55.6173C42.0704 55.6059 41.6013 55.6229 41.1322 55.6022C40.665 55.5814 40.3479 55.3661 40.3836 54.8431C40.4155 54.3767 40.7176 54.1992 41.1491 54.1992C41.8678 54.1992 42.5883 54.1992 43.307 54.1992C44.1945 54.1955 44.6261 54.6977 44.6936 55.5304C44.7405 56.1252 44.703 56.7257 44.703 57.3242L44.7049 57.3185Z" fill="white"/>
</g>
<defs>
<clipPath id="clip0_1_2490">
<rect width="48" height="48" fill="white" transform="translate(21.4922 18.4824)"/>
</clipPath>
</defs>
</svg>
