<svg width="91" height="91" viewBox="0 0 91 91" fill="none" xmlns="http://www.w3.org/2000/svg">
<path d="M45.1787 0C70.1303 0 90.3582 20.2272 90.3584 45.1787C90.3584 70.1305 70.1305 90.3584 45.1787 90.3584C20.2272 90.3582 0 70.1303 0 45.1787C0.000224715 20.2273 20.2273 0.000224744 45.1787 0Z" fill="#6D3FFF"/>
<g clip-path="url(#clip0_1_2505)">
<path d="M64.4962 42.1474C65.6239 42.1474 66.7536 42.1667 67.8814 42.1416C68.7267 42.1224 69.1136 42.4384 69.0942 43.3306C69.0517 45.1592 69.0614 46.9918 69.0942 48.8204C69.1059 49.4717 68.8718 49.8918 68.247 50.0228C65.9799 50.4988 64.5117 51.7532 64.1325 54.106C64.1267 54.1368 64.1112 54.1677 64.0938 54.1927C62.8326 55.8287 63.0222 57.4647 64.0938 59.0987C64.6703 59.9755 64.4865 60.648 63.7031 61.3532C62.4612 62.4709 61.3025 63.6848 60.1399 64.8853C59.6641 65.3767 59.1611 65.5289 58.5982 65.1512C56.6909 63.8679 54.801 63.7388 52.8937 65.1378C52.7951 65.211 52.6596 65.2572 52.5358 65.2726C50.6092 65.5116 49.7948 66.7679 49.3073 68.5022C48.8876 69.9975 48.7793 69.9667 47.1795 69.9667C45.5991 69.9667 44.0207 69.9397 42.4422 69.9782C41.7226 69.9956 41.2158 69.7566 41.0746 69.0571C40.6277 66.8585 39.4613 65.3998 37.1284 65.0645C37.0665 65.0549 37.0027 65.0241 36.9543 64.9855C35.2463 63.6598 33.5517 63.9411 31.8669 65.0279C31.0854 65.5308 30.4818 65.3786 29.8474 64.6926C28.6887 63.444 27.4603 62.257 26.2281 61.0777C25.7078 60.5805 25.5453 60.068 25.938 59.4591C27.145 57.5861 27.3713 55.7227 25.9496 53.8478C25.8567 53.7245 25.7909 53.5588 25.7716 53.4046C25.5298 51.5837 24.3711 50.7589 22.6804 50.283C21.071 49.8301 21.1039 49.7164 21.1039 48.0651C21.1039 46.4599 21.1271 44.8529 21.0942 43.2496C21.0788 42.4615 21.4289 42.1339 22.1872 42.1359C24.5084 42.1397 26.8297 42.1224 29.149 42.1436C30.1704 42.1532 30.3406 42.4712 30.153 43.7102C29.5669 47.5872 30.3368 51.1771 32.5246 54.4375C35.9388 59.5304 42.272 62.1125 48.1003 60.8272C54.4258 59.4321 59.0025 54.6687 60.0219 48.4273C60.2831 46.8299 60.2753 45.2363 60.02 43.6389C59.8208 42.396 60.0336 42.159 61.3044 42.1513C62.3684 42.1455 63.4323 42.1513 64.4962 42.1513V42.1474ZM25.582 43.7179C24.8083 43.7179 24.0345 43.716 23.2608 43.7179C22.9725 43.7179 22.6534 43.6832 22.6592 44.1264C22.6766 45.6005 22.3825 47.1748 22.8236 48.5102C23.0828 49.2944 24.6477 49.3657 25.6246 49.7569C26.143 49.965 26.4467 50.2676 26.5898 50.8379C26.9554 52.3024 27.439 53.7476 28.2612 55.0175C28.8956 55.9983 28.886 56.8249 28.3772 57.8616C27.3385 59.9735 27.3926 60.0063 29.0581 61.6558C29.7197 62.3109 30.3077 63.2783 31.097 63.496C31.8978 63.7176 32.778 62.8774 33.6388 62.5383C33.7587 62.4921 33.8844 62.4535 33.9947 62.3899C34.4996 62.099 34.9503 62.203 35.4455 62.4747C36.2889 62.9372 37.1304 63.5538 38.0415 63.7157C40.4478 64.1434 41.8193 65.4673 42.27 67.8201C42.3532 68.2517 42.6221 68.4328 43.0979 68.4232C44.4191 68.3924 45.7403 68.3943 47.0615 68.4232C47.52 68.4328 47.7676 68.2806 47.9165 67.849C48.1564 67.1533 48.5007 66.4885 48.698 65.7833C48.9224 64.9778 49.3886 64.5751 50.203 64.3805C51.0715 64.1724 52.0116 63.9623 52.7274 63.4729C54.7043 62.1221 56.5981 62.0758 58.5499 63.4305C58.9348 63.6964 59.2288 63.5904 59.548 63.2571C60.3682 62.3957 61.1961 61.5363 62.0821 60.7424C62.645 60.2375 62.8191 59.7943 62.4071 59.1026C62.0492 58.5014 61.8422 57.8115 61.5269 57.1814C61.2561 56.6399 61.2754 56.164 61.6004 55.6456C62.1459 54.7747 62.7417 53.8709 62.9061 52.8747C63.293 50.5547 64.6471 49.3214 66.8813 48.8898C67.3514 48.7992 67.5603 48.5333 67.5429 48.0111C67.5022 46.8241 67.51 45.6352 67.539 44.4482C67.5525 43.9337 67.4345 43.6967 66.8542 43.7082C65.3725 43.7429 63.8888 43.7468 62.4071 43.7082C61.7571 43.6909 61.6855 43.9665 61.7145 44.5118C61.788 45.8895 61.8055 47.2635 61.5811 48.6393C60.3682 56.0831 54.7101 61.5999 46.8874 62.5691C39.7263 63.4575 32.9849 59.4995 29.9518 53.0597C28.6751 50.3485 28.2321 47.5005 28.4681 44.5388C28.5165 43.9183 28.3676 43.6639 27.7079 43.7082C27.0019 43.7564 26.29 43.7198 25.582 43.7198V43.7179Z" fill="white"/>
<path d="M45.0578 51.4491C42.4154 51.4491 39.773 51.4491 37.1287 51.4491C36.8714 51.4491 36.6083 51.4607 36.3588 51.4125C35.9758 51.3412 35.7146 51.0868 35.6779 50.6976C35.645 50.3488 35.8288 50.0328 36.1692 49.9577C36.6103 49.8613 36.7263 49.6378 36.7263 49.2216C36.7147 45.755 36.7012 42.2865 36.7379 38.8199C36.7437 38.1956 36.3124 38.1147 35.9564 37.8835C34.9041 37.2032 34.4031 35.9546 34.7107 34.7907C35.026 33.596 36.1383 32.6961 37.3802 32.6345C38.5253 32.5767 39.6608 33.3166 40.1154 34.4169C40.6531 35.7195 40.1928 37.2052 38.9296 37.9162C38.4344 38.1956 38.2758 38.4866 38.2796 39.03C38.3029 42.3366 38.3164 45.6432 38.2719 48.9499C38.2622 49.7303 38.5137 49.9114 39.2565 49.9056C41.7906 49.8825 41.7906 49.9095 41.7906 47.4353C41.7906 43.9996 41.7906 40.5638 41.7906 37.13C41.7906 35.8814 41.9337 35.7388 43.1621 35.7234C44.5548 35.706 44.4446 35.9238 44.4504 34.4304C44.4542 33.7559 44.4136 33.0796 44.462 32.409C44.5084 31.7519 44.3014 31.4783 43.6031 31.5188C42.7036 31.5708 41.7983 31.5111 40.8969 31.5361C40.0496 31.5592 39.6202 31.2201 39.6801 30.3414C39.7053 29.9907 39.655 29.6323 39.6898 29.2835C39.7382 28.8076 39.5563 28.5628 39.123 28.3239C37.8715 27.6341 37.3744 26.3681 37.7419 25.052C38.0707 23.8746 39.2546 22.9824 40.4791 22.9824C41.7558 22.9824 42.8738 23.8573 43.2356 25.1367C43.5857 26.37 43.0827 27.6842 41.8428 28.3027C41.1716 28.638 41.1735 29.1024 41.2702 29.6246C41.3766 30.1853 41.895 29.931 42.2316 29.9464C43.1002 29.983 43.9726 29.9714 44.8411 29.956C45.6419 29.9425 46.0308 30.299 46.025 31.1141C46.0114 32.7828 46.0095 34.4535 46.025 36.1222C46.0327 36.9161 45.7174 37.3401 44.8779 37.2861C44.6535 37.2707 44.4233 37.3111 44.2028 37.2803C43.5315 37.1898 43.3265 37.4518 43.3323 38.1301C43.3632 41.7585 43.3613 45.385 43.3342 49.0135C43.3303 49.6532 43.4619 49.9634 44.1737 49.8979C44.7811 49.842 45.4021 49.842 46.0095 49.8979C46.7233 49.9634 46.8645 49.6532 46.849 49.0115C46.8103 47.31 46.8181 45.6086 46.849 43.9071C46.8587 43.3964 46.7136 43.1228 46.2435 42.8627C45.0036 42.1786 44.5181 40.8895 44.903 39.5811C45.2667 38.344 46.408 37.5482 47.7582 37.5886C49.0678 37.6291 50.1046 38.4981 50.4238 39.8297C50.7062 41.007 50.1549 42.2499 48.9633 42.8954C48.5261 43.1324 48.3772 43.3791 48.3849 43.857C48.4101 45.5912 48.4294 47.3255 48.3791 49.0578C48.3578 49.7746 48.6383 49.896 49.2767 49.8979C51.8958 49.9076 51.8958 49.9268 51.8958 47.3178C51.8958 44.3002 51.8784 41.2826 51.9094 38.265C51.9171 37.5578 51.7914 37.2399 50.9731 37.261C49.2709 37.3073 49.2689 37.261 49.2689 35.5519C49.2689 34.8138 49.2476 34.0739 49.2747 33.3359C49.3134 32.2221 49.3192 31.2933 48.1276 30.5129C46.7542 29.613 46.9012 27.476 48.145 26.3796C49.3773 25.2928 51.2304 25.4528 52.2672 26.7342C53.3137 28.0272 53.0429 29.9849 51.5902 30.8424C50.948 31.2201 50.7932 31.6344 50.828 32.3011C50.8745 33.1971 50.8629 34.0989 50.8319 34.9969C50.8145 35.5191 50.9635 35.7927 51.5322 35.7195C51.6908 35.6983 51.8533 35.7156 52.0158 35.7176C53.3292 35.7291 53.4608 35.8525 53.4627 37.1493C53.4666 41.0668 53.4646 44.9823 53.4627 48.8998C53.4627 49.3796 53.3718 49.8594 54.0759 49.9885C54.4009 50.0482 54.575 50.4124 54.4976 50.7612C54.4047 51.1813 54.0933 51.4202 53.6619 51.4337C52.9849 51.4549 52.3079 51.4453 51.6308 51.4472C49.4392 51.4472 47.2475 51.4472 45.0558 51.4472L45.0578 51.4491ZM41.777 25.842C41.777 25.1734 41.1542 24.551 40.4829 24.551C39.7923 24.551 39.212 25.1387 39.212 25.842C39.212 26.5511 39.7846 27.1311 40.4849 27.1273C41.1716 27.1253 41.779 26.5203 41.779 25.842H41.777ZM49.9943 27.2178C49.3076 27.2448 48.7466 27.8518 48.7679 28.5474C48.7892 29.2565 49.3598 29.7845 50.0833 29.7633C50.8087 29.7421 51.3252 29.1872 51.3 28.4588C51.2768 27.7497 50.6888 27.1928 49.9943 27.2198V27.2178ZM38.7381 35.5653C38.7729 34.8408 38.2603 34.2512 37.5543 34.2049C36.883 34.1606 36.2389 34.7368 36.1982 35.417C36.1576 36.0914 36.7244 36.7331 37.4053 36.7793C38.0881 36.8275 38.7033 36.2667 38.7381 35.5653ZM47.5899 41.666C48.3037 41.6834 48.8995 41.1419 48.9265 40.4501C48.9536 39.7796 48.3656 39.1687 47.6731 39.1456C46.9631 39.1225 46.3731 39.6678 46.348 40.3673C46.3229 41.0687 46.878 41.6487 47.5899 41.666Z" fill="white"/>
<path d="M60.5791 38.367C61.4167 38.367 62.2582 38.3246 63.0919 38.3805C63.8096 38.4267 64.1462 38.2668 64.0785 37.4536C64.0011 36.5287 64.0378 35.5922 64.0688 34.6634C64.0862 34.1374 63.9624 33.8271 63.4401 33.5439C62.2118 32.8771 61.7378 31.5321 62.1383 30.2392C62.5058 29.0541 63.6548 28.2544 64.9393 28.2891C66.2508 28.3238 67.3224 29.1948 67.6493 30.4897C67.9376 31.6362 67.4269 32.9388 66.3146 33.5227C65.7227 33.8329 65.5911 34.2029 65.6086 34.8021C65.6453 36.0855 65.626 37.3708 65.6182 38.6541C65.6124 39.7717 65.4654 39.9124 64.3106 39.9143C62.5387 39.9201 60.7648 39.9317 58.9929 39.9066C58.4706 39.8989 58.2366 40.0222 58.2598 40.5965C58.3043 41.6833 58.2772 42.7662 58.4668 43.8511C59.7241 51.052 54.7295 58.1509 47.5878 59.361C40.0107 60.6443 32.9696 55.7538 31.7122 48.3466C31.4511 46.8128 31.4162 45.2789 31.7219 43.7547C31.9327 42.7045 31.8786 41.6505 31.9192 40.5945C31.9424 40.0203 31.7103 39.897 31.1861 39.9047C29.447 39.9297 27.7061 39.9162 25.9651 39.9143C24.6788 39.9124 24.5646 39.8006 24.5608 38.5578C24.5569 37.2744 24.5433 35.9891 24.5685 34.7058C24.5782 34.1855 24.4873 33.8502 23.9514 33.5689C22.7289 32.9234 22.2124 31.6246 22.5625 30.3991C22.9339 29.1003 24.0114 28.2795 25.3345 28.2872C26.5822 28.2929 27.6829 29.0868 28.0407 30.2372C28.4431 31.5302 27.9672 32.8771 26.7408 33.5419C26.2185 33.8252 26.0947 34.1354 26.1121 34.6615C26.1431 35.5922 26.1798 36.5287 26.1025 37.4517C26.0348 38.2649 26.3733 38.3997 27.089 38.3805C28.828 38.3362 30.569 38.3882 32.3099 38.3554C33.1379 38.34 33.4938 38.6811 33.4744 39.4942C33.4338 41.1572 33.4725 42.8086 33.1843 44.4735C32.132 50.5491 36.8325 56.9022 42.9781 57.8349C49.9555 58.8928 55.9946 54.4801 57.0237 47.5431C57.1746 46.5276 57.223 45.4716 56.9986 44.4735C56.6252 42.8182 56.7471 41.1572 56.7065 39.4942C56.6852 38.6792 57.0431 38.3227 57.871 38.3574C58.7724 38.394 59.6758 38.3651 60.5772 38.3651L60.5791 38.367ZM25.292 29.8595C24.5762 29.873 24.0075 30.4492 24.0249 31.141C24.0404 31.8058 24.6749 32.4089 25.3442 32.3973C26.0464 32.3858 26.5977 31.8058 26.5861 31.0928C26.5745 30.3721 26.0212 29.8461 25.292 29.8595ZM66.1579 31.1255C66.1657 30.4318 65.5911 29.8673 64.8754 29.8595C64.1481 29.8538 63.6007 30.3875 63.5968 31.1082C63.5929 31.8173 64.1558 32.3935 64.8561 32.3973C65.5273 32.3993 66.1521 31.7903 66.1599 31.1255H66.1579Z" fill="white"/>
</g>
<defs>
<clipPath id="clip0_1_2505">
<rect width="48" height="47" fill="white" transform="translate(21.0947 22.9824)"/>
</clipPath>
</defs>
</svg>
