<svg width="91" height="92" viewBox="0 0 91 92" fill="none" xmlns="http://www.w3.org/2000/svg">
<path d="M45.5527 0.75C70.5043 0.75 90.7322 20.9772 90.7324 45.9287C90.7324 70.8805 70.5045 91.1084 45.5527 91.1084C20.6012 91.1082 0.374023 70.8803 0.374023 45.9287C0.374248 20.9773 20.6013 0.750225 45.5527 0.75Z" fill="#6D3FFF"/>
<g clip-path="url(#clip0_1_2520)">
<path d="M64.4376 44.119C64.4547 43.8506 64.4813 43.6067 64.4813 43.3627C64.4832 39.0463 64.4661 34.7299 64.4984 30.4154C64.5041 29.661 64.2438 29.2932 63.5296 29.0567C61.8237 28.4937 60.1425 27.8594 58.448 27.2607C57.9351 27.0806 57.4412 26.8535 57.6958 26.206C57.9275 25.6205 58.448 25.7444 58.9134 25.9095C60.7542 26.5645 62.5911 27.2307 64.43 27.8913C65.4425 28.2554 65.9535 29.0004 65.9573 30.0382C65.9725 34.8538 65.9725 39.6713 65.9573 44.4868C65.9535 45.4327 65.5356 45.7686 64.5022 45.7686C59.9107 45.7686 55.3212 45.7817 50.7317 45.7536C50.0573 45.7498 49.8122 45.8718 49.816 46.6112C49.8483 53.3973 49.8426 60.1853 49.8198 66.9714C49.8179 67.6282 50.0098 67.8234 50.6709 67.8122C52.8232 67.7746 54.9755 67.7971 57.1297 67.8009C57.4127 67.8009 57.7015 67.8084 57.9788 67.8553C58.3302 67.9154 58.5506 68.1518 58.5506 68.5028C58.5506 68.8931 58.315 69.1427 57.9256 69.2065C57.7091 69.2422 57.483 69.2234 57.2626 69.2234C49.4114 69.2234 41.5602 69.2234 33.709 69.2234C33.519 69.2234 33.329 69.2291 33.1391 69.2197C32.6965 69.199 32.4077 68.9644 32.3887 68.5328C32.3697 68.0824 32.687 67.8666 33.1125 67.8215C33.3632 67.7934 33.6178 67.799 33.8704 67.799C35.9923 67.799 38.1142 67.7671 40.2342 67.814C40.9656 67.8309 41.1328 67.5945 41.1195 66.9095C41.0777 64.6575 41.1043 62.4054 41.1043 60.1534C41.1043 59.9657 41.1119 59.7781 41.1043 59.5904C41.0796 59.0668 41.2202 58.592 41.8204 58.5807C42.4245 58.5695 42.5746 59.0518 42.5746 59.5679C42.5765 61.9456 42.6259 64.3234 42.5518 66.6974C42.5233 67.6358 42.8292 67.8666 43.722 67.814C44.9833 67.7408 46.2542 67.7634 47.5194 67.8084C48.1785 67.8309 48.3875 67.6282 48.3799 66.9658C48.3457 64.3384 48.3666 61.7111 48.3666 59.0837C48.3666 53.0164 48.3571 46.949 48.3818 40.8817C48.3837 40.2192 48.1539 39.9696 47.5479 39.6713C46.0889 38.9544 44.7516 39.0444 43.3155 39.705C42.7627 39.9603 42.5632 40.1967 42.5651 40.7841C42.586 45.4439 42.5765 50.1038 42.5765 54.7636C42.5765 55.0132 42.5803 55.2646 42.5765 55.5142C42.5632 56.0566 42.5784 56.6759 41.7995 56.6459C41.1005 56.6196 41.1062 56.051 41.1062 55.533C41.1081 52.5622 41.0815 49.5895 41.1252 46.6187C41.1366 45.8981 40.9162 45.7442 40.2228 45.748C35.6637 45.778 31.1046 45.7649 26.5473 45.7649C25.3201 45.7649 24.9801 45.4383 24.9782 44.2128C24.9744 39.5849 24.9725 34.9551 24.9782 30.3254C24.9782 28.9178 25.4493 28.2479 26.762 27.7806C32.7534 25.6487 38.7525 23.5205 44.7478 21.3773C45.2132 21.2103 45.6292 21.169 46.1155 21.3473C49.0771 22.4264 52.0481 23.4792 55.0192 24.532C55.5169 24.7084 56.0754 24.8924 55.8683 25.5379C55.6441 26.2398 55.0705 26.0709 54.5291 25.8757C52.0082 24.9693 49.4779 24.0873 46.9609 23.1658C46.4043 22.9612 46.1934 22.9744 46.1972 23.6537C46.22 28.1259 46.2124 32.598 46.2048 37.0702C46.2048 37.483 46.2713 37.7477 46.7386 37.9128C52.504 39.949 58.2619 42.0096 64.0216 44.0608C64.1356 44.1021 64.2685 44.0965 64.4376 44.1171V44.119ZM44.7269 23.0063C44.4932 23.0438 44.3337 23.0438 44.1912 23.0945C38.5189 25.1138 32.8503 27.1406 27.1742 29.1506C26.5872 29.3589 26.4447 29.7211 26.4466 30.2878C26.4618 34.6661 26.4675 39.0444 26.4428 43.4228C26.439 44.1152 26.6005 44.1866 27.2407 43.9557C32.8161 41.9477 38.3992 39.964 43.9917 38.0048C44.5787 37.7983 44.7459 37.5131 44.7402 36.9238C44.7117 33.8911 44.7269 30.8565 44.7269 27.8219C44.7269 26.2304 44.7269 24.6409 44.7269 23.0044V23.0063ZM49.835 40.527C49.835 41.6155 49.8768 42.582 49.8217 43.5447C49.7818 44.226 50.0516 44.3761 50.688 44.3686C53.564 44.3405 56.4401 44.3592 59.3162 44.3517C59.5099 44.3517 59.7531 44.4493 59.9468 44.1265C56.5883 42.9311 53.2582 41.745 49.835 40.527ZM30.945 44.1622C31.1027 44.271 31.1501 44.3329 31.1976 44.3329C34.3226 44.3423 37.4456 44.3442 40.5705 44.3592C40.9827 44.3592 41.1176 44.1866 41.1081 43.7962C41.091 42.9555 41.0625 42.1109 41.1157 41.2721C41.1594 40.5908 40.9143 40.5833 40.3691 40.7823C37.7115 41.7525 35.0444 42.6927 32.3811 43.6461C31.9252 43.8093 31.4712 43.9745 30.945 44.164V44.1622Z" fill="white"/>
<path d="M62.1658 35.4893C62.1658 36.5515 62.181 37.6137 62.162 38.6759C62.1354 40.0402 61.3243 40.6089 60.0306 40.1547C56.6131 38.9555 53.2052 37.73 49.7896 36.529C48.9386 36.2306 48.5112 35.6957 48.5207 34.7836C48.5397 32.6911 48.515 30.5967 48.5302 28.5042C48.5416 27.078 49.3508 26.5168 50.7072 26.9935C54.0942 28.1833 57.4718 29.4013 60.8607 30.5836C61.8011 30.912 62.2133 31.5107 62.1753 32.4903C62.1373 33.4887 62.1677 34.489 62.1658 35.4893ZM60.6822 35.4517C60.6822 34.5153 60.6708 33.5788 60.6879 32.6423C60.6936 32.2595 60.61 32.0136 60.194 31.8673C56.9874 30.745 53.7846 29.6115 50.5913 28.4517C50.0803 28.2659 50.0024 28.4198 50.0043 28.874C50.0176 30.7769 50.0138 32.6817 50.0062 34.5866C50.0062 34.9 50.0822 35.1177 50.4089 35.234C53.6725 36.3863 56.9342 37.5405 60.1902 38.7097C60.6081 38.8598 60.686 38.7172 60.6822 38.3531C60.6746 37.3847 60.6803 36.4182 60.6822 35.4499V35.4517Z" fill="white"/>
<path d="M42.4107 31.6326C42.4107 32.6629 42.3917 33.6951 42.4164 34.7254C42.4392 35.6206 42.0687 36.2023 41.2025 36.5082C37.7565 37.7206 34.3182 38.9573 30.8722 40.1659C29.6318 40.6013 28.794 40.0327 28.7788 38.7359C28.7522 36.5796 28.775 34.4251 28.7693 32.2688C28.7693 31.4487 29.1512 30.927 29.9357 30.6511C33.4102 29.4238 36.8751 28.1758 40.3534 26.9559C41.5311 26.543 42.367 27.1173 42.4031 28.3522C42.4354 29.4444 42.4107 30.5385 42.4107 31.6326ZM30.2529 35.3616C30.2529 36.2981 30.2757 37.2345 30.2434 38.171C30.2245 38.734 30.3498 38.8672 30.9273 38.6552C34.0579 37.5104 37.1999 36.3938 40.3477 35.294C40.7789 35.1439 40.9384 34.9393 40.9346 34.4908C40.9156 32.6498 40.9099 30.8069 40.9346 28.9658C40.9422 28.401 40.8226 28.2733 40.2508 28.4817C37.1183 29.6246 33.9762 30.7412 30.8266 31.8409C30.3916 31.9929 30.2302 32.1994 30.2434 32.646C30.27 33.5506 30.251 34.4551 30.251 35.3616H30.2529Z" fill="white"/>
<path d="M52.5954 31.8999C52.622 31.9093 52.8006 31.9656 52.9772 32.0275C54.7268 32.6487 56.4745 33.2736 58.2259 33.8892C58.7237 34.0637 59.2613 34.2495 59.0447 34.9045C58.8319 35.5482 58.3057 35.4375 57.789 35.2498C55.954 34.5855 54.117 33.9342 52.2801 33.2755C51.8583 33.1235 51.5354 32.8795 51.6551 32.3822C51.7463 32.0013 52.0236 31.8136 52.5954 31.8962V31.8999Z" fill="white"/>
<path d="M39.2006 32.4887C39.212 33.0086 38.9175 33.1887 38.5794 33.3107C36.6835 33.9863 34.782 34.6488 32.888 35.33C32.4074 35.5027 32.0693 35.3544 31.8888 34.9191C31.7084 34.4855 31.9591 34.1703 32.3428 34.0276C34.2919 33.3107 36.2447 32.607 38.207 31.9314C38.7541 31.7437 39.1189 31.9952 39.2006 32.4887Z" fill="white"/>
</g>
<defs>
<clipPath id="clip0_1_2520">
<rect width="41" height="48" fill="white" transform="translate(24.9688 21.2324)"/>
</clipPath>
</defs>
</svg>
