<svg width="91" height="92" viewBox="0 0 91 92" fill="none" xmlns="http://www.w3.org/2000/svg">
<path d="M45.5527 0.75C70.5043 0.75 90.7322 20.9772 90.7324 45.9287C90.7324 70.8805 70.5045 91.1084 45.5527 91.1084C20.6012 91.1082 0.374023 70.8803 0.374023 45.9287C0.374248 20.9773 20.6013 0.750225 45.5527 0.75Z" fill="#6D3FFF"/>
<g clip-path="url(#clip0_1_2537)">
<path d="M45.4143 55.3504C38.6359 55.3504 31.8557 55.3504 25.0772 55.3504C23.4258 55.3504 22.9084 55.8677 22.9046 57.5357C22.899 60.1596 22.9009 62.7835 22.9046 65.4073C22.9046 67.3696 23.3189 67.7913 25.2516 67.7913C31.2183 67.7913 37.185 67.7913 43.1518 67.7913C43.4011 67.7913 43.6523 67.7857 43.9016 67.7951C44.3815 67.8138 44.9082 67.8213 44.9176 68.481C44.9288 69.1913 44.4002 69.2176 43.8678 69.2176C38.4016 69.2157 32.9335 69.2176 27.4673 69.2176C26.4982 69.2176 25.5309 69.2307 24.5617 69.2138C22.7828 69.1857 21.4931 67.9094 21.4818 66.1289C21.4631 63.162 21.4725 60.1952 21.4781 57.2265C21.4818 55.2005 22.689 53.9729 24.7436 53.9448C26.6481 53.9185 28.5545 53.9129 30.461 53.9504C31.1358 53.9635 31.4526 53.7911 31.3758 53.0639C31.3233 52.5691 31.3945 52.0631 31.3608 51.5664C31.1696 48.7364 32.4836 46.656 34.6225 44.9861C36.4671 43.5467 38.5835 42.6415 40.7748 41.8881C41.6259 41.5957 41.9764 40.1132 41.2716 39.5116C39.89 38.3308 38.8121 36.9477 38.1692 35.2459C37.9986 34.7924 37.6593 34.8523 37.3275 34.858C36.1222 34.8786 34.9843 34.6068 34.57 33.368C34.0995 31.9642 33.9683 30.4742 34.9093 29.1567C35.3967 28.4726 36.1653 28.2458 36.9807 28.2739C37.5412 28.2945 37.7755 28.1577 37.843 27.5224C37.9817 26.2423 38.2273 24.8348 39.3277 24.0926C41.1516 22.8631 42.9362 21.3994 45.2794 21.2532C47.7088 21.1014 49.9002 21.8267 51.8216 23.3242C53.2031 24.3999 54.1198 25.7812 54.3804 27.5355C54.4572 28.0471 54.5941 28.2627 55.1752 28.2814C57.1941 28.3489 57.9795 29.2541 58.0301 31.2895C58.0658 32.7476 57.8989 34.052 56.3487 34.708C56.0319 34.8411 56.1612 35.1353 56.1462 35.3659C56.1106 35.9244 56.1781 36.4829 56.0169 37.0395C55.6494 38.3083 54.7384 39.1311 53.4318 39.2736C52.937 39.3279 52.4346 39.3167 51.9359 39.3242C50.7493 39.3392 50.0539 40.4824 50.6163 41.5076C50.7475 41.7475 51.0193 41.7737 51.2517 41.8468C52.5639 42.2535 53.8311 42.7746 55.0552 43.3968C55.5032 43.6254 55.8931 43.9309 55.5951 44.4932C55.2952 45.0573 54.834 44.8699 54.3841 44.6581C53.2156 44.1121 52.3371 44.4101 51.7485 45.5521C51.4486 46.135 51.1524 46.7179 50.8524 47.3007C50.5731 47.8424 50.3107 48.4196 49.5215 48.0354C49.3416 47.9473 49.2141 48.0167 49.1485 48.1779C48.8992 48.8038 48.3612 49.3436 48.468 50.0764C48.6348 51.2159 48.8617 52.3479 49.051 53.4856C49.1222 53.911 49.4259 53.9241 49.7502 53.9241C52.7495 53.9241 55.7488 53.9241 58.7481 53.9204C59.0143 53.9204 59.3873 53.9879 59.3779 53.5662C59.3405 51.8063 59.7079 49.9921 58.7219 48.3503C58.3488 47.728 57.8933 47.1789 57.3591 46.6916C56.9598 46.328 56.6261 45.9213 57.1135 45.4284C57.5615 44.9767 57.9664 45.2916 58.3263 45.629C59.9459 47.1527 60.9226 48.9631 60.842 51.2497C60.8232 51.7801 60.902 52.3198 60.8251 52.8409C60.6883 53.7929 61.1007 53.9897 61.9686 53.9448C63.3089 53.8735 64.6548 53.9129 65.997 53.9298C68.2896 53.9579 69.4612 55.1386 69.4631 57.4045C69.465 60.2158 69.4668 63.0271 69.4631 65.8384C69.4593 67.9862 68.2409 69.2176 66.1095 69.2194C60.1746 69.2232 54.2379 69.2251 48.303 69.2157C47.7182 69.2157 46.8653 69.4406 46.8859 68.4904C46.9046 67.6489 47.7051 67.8025 48.2768 67.8007C54.0561 67.7932 59.8353 67.7969 65.6146 67.7969C67.6335 67.7969 68.0347 67.3977 68.0365 65.3923C68.0365 62.7366 68.044 60.0827 68.0328 57.427C68.0272 55.892 67.4761 55.356 65.9352 55.3541C59.093 55.3523 52.2527 55.3541 45.4106 55.3541L45.4143 55.3504ZM48.2168 39.4853C47.765 39.2173 47.3583 39.3448 46.974 39.3298C46.4379 39.3073 45.8905 39.2342 45.9092 38.5726C45.9261 37.9804 46.4266 37.896 46.9421 37.9054C47.9712 37.9241 49.0004 37.9054 50.0295 37.9129C50.3482 37.9148 50.635 37.896 50.8712 37.6261C52.1346 36.1868 53.0869 34.633 53.0232 32.6089C53.0026 31.9811 52.8676 31.7112 52.1909 31.7562C50.4344 31.8742 48.8111 31.3588 47.2402 30.6223C46.3404 30.2006 45.4631 29.7264 44.5071 29.4284C43.7422 29.1904 43.0468 29.2672 42.3588 29.6777C41.4197 30.2399 40.5799 30.9371 39.6951 31.5706C39.2677 31.878 39.1196 32.221 39.1233 32.7382C39.1552 36.0106 42.4282 39.669 45.6787 40.0251C46.556 40.1207 47.3845 39.9614 48.2168 39.4816V39.4853ZM37.9161 53.9373C39.3183 53.9373 40.7223 53.8998 42.1226 53.9541C42.8218 53.9804 43.133 53.763 43.2192 53.0601C43.3317 52.1362 43.5323 51.2215 43.6991 50.3051C43.896 49.2274 43.2305 48.2959 42.1657 48.1572C41.7777 48.1066 41.5996 47.8161 41.4403 47.5013C40.9023 46.448 40.3455 45.4059 39.8244 44.347C39.6332 43.9572 39.442 43.8859 39.0315 44.0696C37.4906 44.7649 36.0228 45.5708 34.7781 46.7291C33.4359 47.9792 32.6767 49.486 32.7442 51.3602C32.7648 51.9506 32.7798 52.5466 32.7386 53.1351C32.6955 53.7367 32.896 53.9654 33.524 53.9485C34.988 53.911 36.4539 53.9354 37.918 53.9373H37.9161ZM39.1889 30.1181C39.8507 29.6571 40.4018 29.271 40.9529 28.8868C42.0326 28.1371 43.1574 27.6217 44.5352 27.9628C45.7293 28.2589 46.7903 28.8493 47.8888 29.3572C49.2947 30.0075 50.7437 30.4255 52.3052 30.3843C52.5958 30.3768 52.9707 30.4855 52.9969 29.9944C53.0944 28.1896 53.0419 26.4353 51.6191 25.0409C50.5675 24.012 49.3472 23.2736 47.9281 22.9456C45.9299 22.4845 43.9578 22.3421 42.3719 24.0607C42.2576 24.1844 42.0514 24.2613 41.8771 24.2894C40.2949 24.5386 39.6501 25.6632 39.3558 27.0519C39.1552 27.9947 39.0652 28.9617 39.1889 30.1162V30.1181ZM49.0997 40.6998C47.0827 41.7362 45.0975 41.7381 43.1274 40.7204C42.8706 41.4589 43.0449 41.9686 43.6466 42.3828C44.134 42.7164 44.5652 43.1325 45.0226 43.5092C45.7274 44.0877 46.4254 44.0952 47.1165 43.5317C47.6001 43.1363 48.0612 42.7108 48.573 42.3566C49.1391 41.9649 49.3266 41.4795 49.096 40.7017L49.0997 40.6998ZM46.0836 53.9223C46.2392 53.9223 46.3966 53.926 46.5522 53.9223C47.8925 53.8792 47.6676 54.0909 47.4951 52.7546C47.4239 52.1999 47.2214 51.6582 47.1896 51.1035C47.1539 50.4719 46.8428 50.3913 46.2935 50.3332C45.3356 50.2301 44.9195 50.5899 44.9063 51.5289C44.9026 51.8044 44.8051 52.0781 44.7564 52.3536C44.5664 53.3994 45.0094 53.9223 46.0854 53.9223H46.0836ZM46.0255 48.9613C47.0396 48.9613 47.9769 48.1535 47.9113 47.3345C47.8944 47.1189 46.4097 46.1743 46.0911 46.1762C45.823 46.1762 44.2634 47.1396 44.2484 47.3139C44.1865 48.0579 45.1594 48.9613 46.0255 48.9613ZM54.4629 31.5612C54.4629 31.9979 54.4591 32.4365 54.4647 32.8732C54.4666 33.0531 54.4179 33.2574 54.6072 33.383C55.2239 33.7934 56.4574 33.233 56.5305 32.4702C56.5886 31.8517 56.6073 31.2126 56.523 30.5998C56.3974 29.6983 55.6776 29.6608 54.9521 29.6702C54.1535 29.6796 54.5378 30.2737 54.4741 30.626C54.4197 30.9278 54.4629 31.2483 54.4629 31.5612ZM37.7549 31.5837C37.7549 31.1189 37.7605 30.6541 37.753 30.1893C37.7493 29.9813 37.7774 29.7733 37.485 29.6777C36.752 29.4359 35.8278 29.8951 35.7491 30.6316C35.6835 31.2445 35.6666 31.8799 35.7566 32.4852C35.8766 33.2949 36.5046 33.4298 37.2263 33.4223C38.0792 33.4129 37.6724 32.7907 37.7455 32.4178C37.7961 32.1479 37.7549 31.8611 37.7568 31.5837H37.7549ZM47.4501 45.121C49.4447 46.7403 49.5478 46.7216 50.6594 44.5738C50.7306 44.4351 50.8337 44.3058 50.8693 44.1596C50.9406 43.8728 51.4167 43.5636 51.023 43.3124C50.6425 43.0707 50.1701 42.8027 49.6677 43.2618C48.9591 43.9103 48.1962 44.5007 47.4482 45.121H47.4501ZM44.7301 45.1079C43.9466 44.4632 43.1668 43.8447 42.4188 43.1925C41.9689 42.8027 41.6052 43.1869 41.2078 43.2637C41.0504 43.2937 40.9416 43.4343 41.0391 43.6179C41.519 44.5232 41.8171 45.6608 42.5538 46.2418C43.013 46.6054 43.9072 45.6533 44.6045 45.2916C44.6289 45.2785 44.6402 45.2429 44.7301 45.1079ZM52.5695 37.8548C53.4112 38.0029 54.0186 37.7854 54.431 37.1576C54.8546 36.5091 54.6653 35.7688 54.6409 35.0604C54.6372 34.9198 54.4966 34.8823 54.3598 34.8917C54.1685 34.9048 54.1104 35.0454 54.0542 35.1934C53.7055 36.1287 53.1807 36.972 52.5695 37.8548Z" fill="white"/>
<path d="M51.711 64.7455C49.9133 64.7587 48.4774 63.3511 48.4736 61.5744C48.4699 59.8258 49.9527 58.3452 51.696 58.3545C53.4244 58.3639 54.8453 59.7808 54.8621 61.5107C54.879 63.3361 53.52 64.7324 51.711 64.7455ZM49.9283 61.5238C49.9096 62.519 50.665 63.3324 51.636 63.3624C52.5714 63.3924 53.4412 62.5659 53.4731 61.6156C53.505 60.6467 52.7195 59.8351 51.7316 59.8145C50.71 59.7939 49.947 60.5155 49.9283 61.5219V61.5238Z" fill="white"/>
<path d="M58.024 62.9086C58.024 63.4502 58.0446 63.7501 58.0183 64.0443C57.9808 64.4717 57.7484 64.7341 57.2929 64.7341C56.8692 64.7341 56.6274 64.4585 56.6218 64.095C56.5974 62.4119 56.6087 60.727 56.6218 59.0421C56.6218 58.8247 56.7455 58.6336 56.9423 58.4967C58.0127 57.7471 60.3428 58.5811 60.6371 59.8462C60.8189 60.6277 60.6915 61.4111 59.9941 61.8572C59.3605 62.262 59.5705 62.5338 59.9341 62.9105C60.1497 63.1354 60.3728 63.3603 60.5471 63.6152C60.7571 63.9244 60.7814 64.2824 60.489 64.5523C60.1685 64.8484 59.7879 64.824 59.4861 64.5166C59.0381 64.0593 58.6219 63.5683 58.0258 62.9086H58.024ZM58.0352 60.3784C58.0183 60.7027 57.9958 61.0007 58.4795 60.9688C58.8919 60.9407 59.2537 60.8132 59.2668 60.3803C59.2818 59.9155 58.8938 59.8312 58.4926 59.8049C58.0277 59.7731 58.0071 60.0504 58.0333 60.3803L58.0352 60.3784Z" fill="white"/>
<path d="M27.0139 64.7438C26.1891 64.7588 25.488 64.4589 24.9013 63.8967C24.5939 63.6005 24.5264 63.2313 24.8038 62.8902C25.085 62.5435 25.4655 62.5454 25.8011 62.8134C26.2304 63.1545 26.6728 63.43 27.2445 63.325C27.4901 63.2801 27.7469 63.1676 27.8106 62.8958C27.8837 62.5847 27.6138 62.4517 27.3963 62.3505C26.9464 62.1387 26.4834 61.9531 26.0185 61.7751C25.25 61.4827 24.8619 60.8998 24.905 60.1145C24.9482 59.3386 25.4018 58.7989 26.1516 58.5177C27.0964 58.1635 27.9325 58.4353 28.716 58.9525C29.0497 59.1737 29.2465 59.4904 29.001 59.9102C28.7629 60.3151 28.3992 60.3488 28.0299 60.1708C27.4957 59.9121 26.7252 59.4604 26.4815 60.0864C26.2416 60.7049 27.222 60.6899 27.6681 60.8998C28.8904 61.4752 29.419 62.1668 29.2259 63.1376C29.0291 64.1328 28.1743 64.7569 27.0139 64.7457V64.7438Z" fill="white"/>
<path d="M30.6353 60.9358C30.6353 60.3436 30.6353 59.7495 30.6353 59.1572C30.6353 58.7187 30.849 58.4057 31.2782 58.3851C31.7656 58.3607 32.0018 58.6868 32.0037 59.1666C32.0093 60.1656 32.0262 61.1645 32.0037 62.1634C31.9887 62.8906 32.3374 63.3367 33.031 63.3404C33.7114 63.3442 34.092 62.9431 34.062 62.1878C34.0245 61.2526 34.0545 60.3155 34.0545 59.3784C34.0545 58.8611 34.1876 58.3851 34.7874 58.3869C35.3854 58.3869 35.5204 58.863 35.5185 59.3803C35.5147 60.4411 35.5597 61.5056 35.4998 62.5626C35.4248 63.884 34.3319 64.7798 32.9429 64.7442C31.61 64.7124 30.6728 63.7771 30.6353 62.4352C30.6221 61.9367 30.6334 61.4363 30.6334 60.9377C30.6334 60.9377 30.6353 60.9377 30.6371 60.9377L30.6353 60.9358Z" fill="white"/>
<path d="M43.0128 61.5293C43.0128 60.7834 43.0165 60.0375 43.0128 59.2897C43.0109 58.9654 43.0315 58.5962 43.369 58.4969C44.28 58.227 45.2154 58.2083 46.0871 58.6243C46.8144 58.9711 47.1949 59.597 47.2137 60.4198C47.2437 61.6174 46.4714 62.4983 45.1385 62.5901C44.4862 62.6351 44.3419 62.875 44.3925 63.4335C44.415 63.679 44.4 63.9321 44.3662 64.1776C44.31 64.5899 44.0363 64.7586 43.6408 64.7286C43.2321 64.6967 43.0297 64.4437 43.024 64.0483C43.0147 63.2086 43.0222 62.369 43.0222 61.5293C43.0203 61.5293 43.0184 61.5293 43.0147 61.5293H43.0128ZM44.938 61.162C45.4572 61.1695 45.7984 60.9408 45.7946 60.476C45.7928 60.0037 45.4272 59.8313 44.968 59.7995C44.415 59.762 44.3943 60.0843 44.3925 60.4967C44.3925 60.9184 44.4318 61.2538 44.938 61.1601V61.162Z" fill="white"/>
<path d="M37.3223 61.4674C37.3223 60.7514 37.3167 60.0355 37.3242 59.3195C37.328 59.0047 37.3673 58.7011 37.6616 58.4949C38.9101 57.6196 41.3639 58.7029 41.5345 60.2079C41.6732 61.4318 40.884 62.4963 39.5756 62.5694C38.7676 62.6144 38.6533 62.9442 38.7245 63.5833C38.7414 63.737 38.732 63.8945 38.7189 64.05C38.6814 64.4886 38.4489 64.7341 37.9972 64.7303C37.5754 64.7266 37.3973 64.4623 37.343 64.0819C37.3336 64.02 37.3261 63.9582 37.3261 63.8963C37.3261 63.0867 37.3261 62.277 37.3261 61.4674C37.3261 61.4674 37.3242 61.4674 37.3223 61.4674ZM39.2644 61.1544C39.7499 61.19 40.0892 60.9894 40.1023 60.5022C40.1173 60.0092 39.7799 59.8387 39.3094 59.7993C38.7639 59.7544 38.702 60.0392 38.7245 60.4703C38.7433 60.8489 38.6683 61.2631 39.2644 61.1544Z" fill="white"/>
<path d="M63.4966 62.0791C63.4966 61.7361 63.5004 61.395 63.4966 61.052C63.4891 60.4391 63.6897 59.7232 62.6456 59.7307C62.3325 59.7326 62.1301 59.3915 62.1675 59.0335C62.2088 58.638 62.475 58.3981 62.8461 58.385C63.7459 58.3513 64.6495 58.3513 65.5511 58.3756C65.9598 58.3869 66.2653 58.6005 66.2878 59.0597C66.3103 59.5227 66.016 59.8038 65.6149 59.7888C64.9681 59.7663 64.94 60.1055 64.9513 60.5928C64.9738 61.6499 64.9569 62.7069 64.9588 63.764C64.9588 64.2756 64.8519 64.7385 64.2277 64.7367C63.5997 64.7367 63.5041 64.2587 63.5004 63.7565C63.4966 63.1961 63.5004 62.6376 63.4985 62.0772L63.4966 62.0791Z" fill="white"/>
</g>
<defs>
<clipPath id="clip0_1_2537">
<rect width="48" height="48" fill="white" transform="translate(21.4688 21.2324)"/>
</clipPath>
</defs>
</svg>
