<svg width="100" height="100" viewBox="0 0 100 100" fill="none" xmlns="http://www.w3.org/2000/svg">
<path d="M49.9555 7C64.9852 7 80.015 7 95.0447 7C97.8355 7 97.998 7.16517 97.998 9.94236C97.998 35.6784 97.998 61.4106 97.998 87.1467C97.998 89.8048 97.8239 89.9738 95.126 89.9777C92.7378 89.9777 90.3496 89.9201 87.9653 89.9969C86.2003 90.0545 85.5694 89.3132 85.5849 87.5961C85.639 80.8126 85.5539 74.0252 85.6468 67.2416C85.6661 65.7013 85.2094 65.3594 83.7192 65.3633C61.2075 65.4093 38.6957 65.4093 16.1801 65.3633C14.7441 65.3633 14.3416 65.7051 14.3609 67.1533C14.4422 73.8754 14.3996 80.5975 14.3958 87.3196C14.3958 89.7203 14.1403 89.97 11.7366 89.9777C9.41422 89.9854 7.09183 89.9815 4.76944 89.9777C2.23803 89.9738 2.00579 89.7472 2.00579 87.2351C2.00579 63.677 2.00579 40.1189 2.00579 16.5608C1.99805 14.256 1.99805 11.9513 1.99805 9.64659C2.00966 7.25352 2.25738 7 4.67267 7C19.7682 7 34.8599 7 49.9555 7ZM49.8006 62.3133C64.1801 62.3133 78.5596 62.2826 92.9391 62.3517C94.5725 62.3594 94.9402 61.9138 94.9325 60.339C94.8706 44.2136 94.8783 28.0882 94.9247 11.9628C94.9286 10.5032 94.6112 10.0384 93.0436 10.0422C64.3504 10.0922 35.6573 10.0922 6.96023 10.0422C5.40809 10.0422 5.06361 10.4763 5.06748 11.9552C5.12167 28.0805 5.12167 44.2059 5.06361 60.3313C5.05586 61.8946 5.40035 62.3594 7.04925 62.3517C21.301 62.2826 35.5489 62.3095 49.8006 62.3095V62.3133ZM5.1836 84.1314C6.88281 82.1839 8.2956 80.5437 9.73162 78.9265C10.2348 78.3619 10.4361 77.9086 9.63485 77.4093C8.19497 76.5143 6.78605 75.5732 5.17973 74.5322V84.1314H5.1836ZM94.8009 74.513C93.1326 75.6154 91.6695 76.5949 90.1948 77.5552C89.6878 77.8856 89.7032 78.239 90.0593 78.65C91.5728 80.3939 93.0862 82.1339 94.8009 84.1083V74.513ZM88.7549 74.5437C90.5006 73.8331 91.8205 72.6346 93.3146 71.7281C93.6513 71.5245 93.6668 71.2326 93.3339 70.9868C91.8282 69.869 90.5703 68.4132 88.7549 67.4529V74.5476V74.5437ZM11.1328 74.4362V67.3069C9.391 68.7435 7.86596 70.0034 6.20545 71.3709C7.40922 72.1891 8.49301 72.9612 9.6155 73.6718C10.0761 73.9637 10.4554 74.4592 11.1289 74.4362H11.1328ZM7.12667 86.6973C11.6824 87.2888 12.2669 86.5705 10.9354 82.2914C9.70065 83.7204 8.49301 85.1186 7.12667 86.6973ZM88.8981 82.1416C88.2943 87.0046 88.9601 87.7344 92.7069 86.5475C92.1263 85.8484 91.5689 85.1531 90.9844 84.4809C90.3612 83.7588 89.711 83.052 88.8981 82.1416ZM8.19497 65.6321C6.00418 65.2915 5.04296 66.0854 5.31133 68.0137C6.2906 67.207 7.17698 66.4734 8.19497 65.6321ZM91.9521 65.467C92.6449 66.6347 93.7055 67.1993 94.7312 67.9945C94.9247 66.2019 93.9984 65.3594 91.9521 65.467Z" fill="#DCDFEE"/>
<path d="M49.8702 59C36.8474 59 23.8207 59 10.7978 59C8.22358 59 7.99805 58.7815 7.99805 56.2824C7.99805 42.7403 7.99805 29.1983 7.99805 15.6601C7.99805 13.253 8.2508 13 10.6578 13C36.9018 13 63.1458 13 89.3898 13C91.6996 13 91.9951 13.2836 91.9951 15.5221C91.999 29.1255 91.999 42.7327 91.9951 56.3361C91.9951 58.7394 91.7385 58.9962 89.3354 58.9962C76.1803 59 63.0253 58.9962 49.8741 58.9962L49.8702 59ZM49.9013 55.9259C62.2748 55.9259 74.6443 55.8953 87.0178 55.9643C88.5849 55.9719 88.9193 55.5158 88.9115 54.0516C88.8532 41.9853 88.8532 29.9189 88.9115 17.8488C88.9193 16.4459 88.5965 16.0319 87.1111 16.0357C62.3681 16.0856 37.6251 16.0856 12.8821 16.0357C11.3928 16.0357 11.0778 16.4497 11.0856 17.8526C11.1439 29.9189 11.1439 41.9853 11.0856 54.0554C11.0778 55.5235 11.42 55.9757 12.9832 55.9681C25.2905 55.8991 37.5979 55.9298 49.9052 55.9298L49.9013 55.9259Z" fill="#DCDFEE"/>
<path d="M39.0227 36.5061C39.0227 32.1876 39.0736 27.873 38.9992 23.5545C38.9679 21.7667 39.5632 20.9773 41.4747 21.0005C47.1463 21.074 52.8218 21.074 58.4973 21.0005C60.3892 20.9773 61.0903 21.7241 60.9885 23.5313C60.8984 25.0714 60.9297 26.6231 60.9806 28.167C61.0315 29.7458 60.2795 30.3572 58.7245 30.3302C55.92 30.2799 53.1156 30.2721 50.3111 30.3495C49.6922 30.3689 48.5133 29.7265 48.4858 31.0306C48.4545 32.5165 49.7392 31.7929 50.3973 31.8161C53.0686 31.9051 55.7477 31.9206 58.4151 31.8316C60.2364 31.7697 61.0981 32.4043 60.9845 34.2849C60.8945 35.7631 60.8945 37.2529 60.9845 38.7272C61.102 40.6156 60.2168 41.227 58.4072 41.1728C55.6067 41.0838 52.7983 41.1264 49.9938 41.1728C49.4024 41.1805 48.3997 40.7239 48.4545 41.9854C48.5015 43.0805 49.3867 42.6665 49.9272 42.6742C52.861 42.7168 55.7986 42.7284 58.7323 42.6781C60.2952 42.651 61.0276 43.274 60.9806 44.8528C60.9297 46.5284 60.9415 48.2039 60.9806 49.8794C61.012 51.3305 60.3774 52.0039 58.8812 52C52.9471 51.9768 47.0131 51.9768 41.0751 52C39.5554 52.0039 39.007 51.2686 39.0188 49.8407C39.0501 45.3946 39.0305 40.9484 39.0305 36.5022L39.0227 36.5061ZM42.164 36.5331C42.164 40.1435 42.2032 43.7538 42.1405 47.3603C42.1209 48.4825 42.3481 48.9469 43.625 48.9198C47.8631 48.8385 52.1089 48.8424 56.347 48.9198C57.5965 48.943 57.8902 48.5289 57.855 47.3797C57.8236 46.3349 57.7649 45.7235 56.4096 45.7738C53.4132 45.8783 50.409 45.7815 47.4087 45.8163C45.9321 45.8318 45.2349 45.1972 45.2819 43.7268C45.3171 42.5659 45.3289 41.405 45.2819 40.248C45.2153 38.6885 45.9164 38.0229 47.4988 38.0462C50.4991 38.0926 53.5033 38.0036 56.4997 38.0849C57.7257 38.1197 57.8706 37.5857 57.8471 36.5912C57.8236 35.6083 57.8824 34.8847 56.4567 34.9389C53.5268 35.0511 50.5853 34.9273 47.6516 34.9892C46.0182 35.024 45.1879 34.4358 45.2779 32.7409C45.3367 31.6497 45.3367 30.5469 45.2779 29.4556C45.1879 27.7646 46.0104 27.1726 47.6476 27.2074C50.5814 27.2693 53.5229 27.1455 56.4527 27.2577C57.8706 27.3119 57.8276 26.596 57.8471 25.6092C57.8667 24.6186 57.7296 24.0923 56.5037 24.1117C52.199 24.1813 47.8905 24.193 43.5859 24.1078C42.2502 24.0807 42.1327 24.6496 42.1445 25.7098C42.1915 29.3202 42.164 32.9305 42.164 36.537V36.5331Z" fill="#DCDFEE"/>
<path d="M15.0056 36.5256C15.0056 32.205 14.9981 27.8805 15.0056 23.5599C15.0094 21.3028 15.2902 21.0318 17.5219 21.0202C18.9561 21.0125 20.394 21.0706 21.8244 21.0047C23.4533 20.9312 24.0262 21.7132 24.015 23.3393C23.9701 29.2084 24.0524 35.0815 23.9588 40.9468C23.9364 42.4451 24.382 42.7858 25.745 42.7316C28.4223 42.6232 31.1109 42.7471 33.792 42.6812C35.4097 42.6425 36.0575 43.3626 35.9938 45.0003C35.9301 46.6108 35.9489 48.2252 35.9901 49.8358C36.0238 51.2605 35.4845 52.0077 34.0279 51.9999C28.3512 51.9806 22.6744 51.9767 16.9977 51.9999C15.5598 52.0038 14.9906 51.3186 14.9981 49.8706C15.0281 45.4184 15.0094 40.97 15.0094 36.5178L15.0056 36.5256ZM20.9969 34.5472C20.9969 31.5197 20.9482 28.4883 21.0231 25.4608C21.0493 24.2994 20.6149 24.04 19.6077 24.1019C18.7127 24.16 17.9638 23.9819 17.975 25.4376C18.0462 32.7818 18.0275 40.1299 17.9863 47.4742C17.9825 48.535 18.2259 48.9337 19.3268 48.9144C23.4383 48.8524 27.5536 48.8292 31.6651 48.9221C33.0094 48.9531 32.9869 48.2717 32.9982 47.2767C33.0094 46.2972 32.9045 45.7397 31.7213 45.7746C28.8567 45.8597 25.9884 45.7668 23.12 45.8133C21.6222 45.8365 20.9557 45.2016 20.9819 43.6298C21.0268 40.6023 20.9969 37.5709 20.9931 34.5434L20.9969 34.5472Z" fill="#DCDFEE"/>
<path d="M64.0035 36.4165C64.0035 32.1629 63.9997 27.9093 64.0035 23.6557C64.0072 21.2753 64.2544 20.9812 66.6177 21.0393C69.2282 21.105 71.8462 20.7606 74.4454 21.3644C80.4754 22.7655 84.9174 28.3157 84.9735 34.667C84.996 37.2989 85.1496 39.9308 84.2807 42.5046C82.3968 48.1052 77.3818 51.933 71.6739 51.9911C69.9885 52.0065 68.3068 51.9988 66.6214 51.9911C64.202 51.9833 64.0035 51.7704 63.9997 49.1734C63.996 44.9198 63.9997 40.6662 63.9997 36.4126L64.0035 36.4165ZM67.0072 36.3158V44.6372C67.0072 47.5039 68.4042 48.9218 71.1982 48.8908C76.6964 48.8289 80.9136 45.2372 81.82 39.687C82.0672 38.1775 81.9885 36.6022 81.9698 35.0579C81.9024 29.4807 78.202 25.049 72.8761 24.244C71.5278 24.0388 70.1308 24.2362 68.7675 24.1085C67.4229 23.9808 66.9173 24.3485 66.9698 25.8734C67.0896 29.3529 67.0072 32.8363 67.0072 36.3197V36.3158Z" fill="#DCDFEE"/>
<path d="M70.0105 35.7963C70.0105 33.6126 69.9955 31.4289 70.0142 29.2453C70.0292 27.3912 70.6166 26.8556 72.3677 27.0316C76.7455 27.4661 79.0129 30.8259 78.998 36.8601C78.983 41.2986 76.2703 44.5985 72.3378 44.9768C70.8074 45.1229 69.9618 44.5948 69.9992 42.913C70.0516 40.542 70.0105 38.1711 70.0105 35.8001V35.7963ZM73.0562 41.6919C76.6108 39.9203 76.072 36.8901 75.9335 34.1146C75.8475 32.3878 74.8859 31.0844 73.0562 30.4064V41.6919Z" fill="#DCDFEE"/>
</svg>
