<svg width="100" height="100" viewBox="0 0 100 100" fill="none" xmlns="http://www.w3.org/2000/svg">
<g clip-path="url(#clip0_0_2434)">
<path d="M22.5204 91.3932C21.2591 91.4674 20.24 90.9246 19.3848 90.0733C16.2453 86.9572 13.0901 83.8529 10.0014 80.6821C8.11531 78.7453 8.06064 76.7694 9.74365 74.5593C11.3603 72.4389 12.9886 70.3225 14.7028 68.2841C15.4721 67.3704 15.7064 66.5738 15.0777 65.5078C14.6833 64.8439 14.3748 64.1059 14.1601 63.364C13.8984 62.462 13.3518 62.1808 12.4614 62.0871C9.55621 61.7747 6.64708 61.4389 3.76137 60.9937C1.3013 60.6149 0.0361201 59.0647 0.0205006 56.5578C-0.00683353 52.196 -0.00683353 47.8382 0.0205006 43.4764C0.0361201 40.8797 1.2974 39.3841 3.92147 38.9819C6.68222 38.5563 9.45859 38.2088 12.235 37.9393C13.2697 37.8378 13.7188 37.4083 14.2577 36.514C15.7572 34.0345 15.4643 32.0586 13.4064 30.0398C12.0241 28.6848 10.9346 27.0252 9.75536 25.4711C8.0255 23.1867 8.13874 21.2694 10.099 19.1959C10.7706 18.4891 11.4579 17.7902 12.1881 17.1459C12.8519 16.564 13.6173 16.4781 14.285 17.138C14.9645 17.8136 14.8317 18.536 14.2382 19.2154C14.1952 19.2662 14.1444 19.3053 14.1015 19.356C12.2636 21.5662 12.2467 23.8323 14.0507 26.1544C15.1675 27.5914 16.2999 29.0167 17.4167 30.4576C17.694 30.8168 17.979 31.1839 18.1665 31.5939C19.4395 34.3742 16.3624 40.2627 13.34 40.7274C10.5168 41.1609 7.67406 41.5045 4.8274 41.7856C3.53879 41.9145 2.96478 42.4534 2.97259 43.7459C2.99602 47.9124 2.99211 52.075 2.97259 56.2415C2.96478 57.5145 3.49975 58.0963 4.80398 58.2291C7.71311 58.5219 10.6066 58.9632 13.5119 59.2873C15.1168 59.4669 16.1086 60.3494 16.7295 61.763C16.7802 61.8801 16.788 62.0246 16.8544 62.13C19.2169 65.8006 18.7014 69.0182 15.5502 72.025C14.246 73.2667 13.2971 74.8795 12.1451 76.2891C11.3876 77.2185 11.4423 77.9995 12.2935 78.8429C15.2534 81.7716 18.2016 84.7159 21.1225 87.6836C22.044 88.6207 22.8718 88.5465 23.8442 87.7656C26.0231 86.0123 28.2684 84.341 30.4317 82.5721C31.9155 81.3616 33.3838 81.4553 35.1605 81.9512C39.1903 83.0836 41.3536 85.3523 41.1584 89.7414C41.0764 91.5338 41.6348 93.3417 41.7793 95.1536C41.8808 96.4422 42.4314 97.0279 43.7278 97.024C47.8943 97.0045 52.0569 96.9967 56.2234 97.0279C57.6448 97.0396 58.1095 96.3524 58.2383 95.013C58.5078 92.1664 58.9607 89.3392 59.2809 86.5004C59.4723 84.8096 60.4172 83.7982 61.9284 83.2125C67.5905 81.014 66.8173 80.3072 72.1358 84.5909C73.5025 85.6921 74.916 86.7386 76.2788 87.8476C77.2004 88.6012 78.0048 88.5621 78.8444 87.7187C81.7769 84.7627 84.7134 81.8106 87.6772 78.8859C88.6105 77.9643 88.548 77.1404 87.767 76.1681C86.0137 73.9892 84.3424 71.7438 82.5774 69.5766C81.3669 68.0928 81.57 66.6324 81.937 64.8517C83.046 59.4161 87.0954 58.8617 91.4727 58.6156C92.3787 58.5649 93.2807 58.4126 94.1788 58.2876C96.074 58.0247 97.0229 56.9665 97.0255 55.113C97.0255 51.4033 96.9942 47.6937 97.0372 43.9841C97.0528 42.5432 96.5295 41.8911 95.0223 41.7661C92.242 41.5318 89.4773 41.1023 86.7049 40.7508C86.3183 40.7001 85.9161 40.6766 85.5529 40.5517C82.636 39.5481 80.6601 32.9684 82.5501 30.5005C84.2487 28.2787 85.9669 26.0724 87.728 23.9013C88.5831 22.8509 88.587 22.0113 87.5874 21.039C84.6978 18.2236 81.8394 15.3769 79.0318 12.4795C77.9853 11.4018 77.134 11.4486 76.0211 12.3624C73.9164 14.1 71.7023 15.705 69.5859 17.4309C68.1059 18.6375 66.6377 18.5672 64.861 18.0635C60.8429 16.9272 58.6444 14.6897 58.8514 10.285C58.9373 8.49655 58.375 6.68469 58.2305 4.87282C58.129 3.59202 57.5979 2.98286 56.2937 2.99067C52.1272 3.0102 47.9646 3.01801 43.7981 2.98677C42.3845 2.97505 41.9003 3.63498 41.7715 4.98606C41.502 7.83272 41.0842 10.6638 40.7171 13.4987C40.6664 13.8814 40.6195 14.2836 40.475 14.635C39.3036 17.5363 32.8527 19.2662 30.3575 17.345C28.2957 15.7596 26.2027 14.2055 24.2229 12.5225C22.9265 11.4174 21.8839 11.312 20.771 12.6982C20.2868 13.3035 19.6933 13.8306 19.1075 14.3422C18.4906 14.8771 17.8072 14.9318 17.1785 14.3422C16.5577 13.7603 16.5928 13.0809 16.9872 12.3936C19.3067 8.34035 22.7469 7.63357 26.3511 10.4607C28.1395 11.8665 29.9826 13.2136 31.7047 14.6975C32.6887 15.5449 33.5517 15.705 34.6529 15.006C35.1917 14.6624 35.8243 14.4281 36.4452 14.2562C37.4722 13.9751 37.8431 13.3737 37.9447 12.2999C38.2141 9.45325 38.5773 6.6144 39.0146 3.79117C39.3817 1.31548 40.9241 0.0385854 43.4193 0.0229658C47.8435 -0.00436829 52.2717 -0.00827317 56.6959 0.0229658C59.0622 0.0424902 60.6203 1.35453 60.9834 3.70527C61.4247 6.52849 61.8113 9.36734 62.0534 12.214C62.1549 13.3933 62.7445 13.7642 63.6466 14.3265C66.0949 15.8572 67.9966 15.3652 69.9451 13.4167C71.3158 12.0461 72.9636 10.9488 74.5138 9.76564C76.7982 8.02796 78.7624 8.10216 80.789 10.0819C83.8582 13.0848 86.8962 16.1228 89.8991 19.1959C91.8866 21.2264 91.9726 23.1906 90.231 25.4711C88.6144 27.5914 86.986 29.7039 85.2679 31.7423C84.4869 32.6677 84.6079 33.4175 84.893 34.5304C85.5959 37.2404 87.2906 38.1463 89.8991 38.24C92.035 38.3181 94.1671 38.6656 96.2835 39.0054C98.6382 39.3841 99.9541 40.9227 99.9736 43.289C100.009 47.7796 100.013 52.2702 99.9736 56.7608C99.9541 59.0178 98.6265 60.611 96.4124 60.9586C93.5892 61.4076 90.7503 61.7942 87.9037 62.0441C86.6814 62.1496 86.1933 62.6767 85.6193 63.6998C84.2878 66.0701 84.5142 67.9288 86.4979 69.8461C87.9349 71.2362 89.0595 72.9544 90.27 74.5671C91.9374 76.7811 91.8827 78.7492 89.9889 80.6977C86.9509 83.8216 83.8621 86.9065 80.7421 89.9484C78.7819 91.8618 76.806 91.9555 74.6193 90.2959C72.4443 88.6442 70.2927 86.9573 68.184 85.2196C67.3328 84.5167 66.5479 84.2434 65.5873 84.9111C65.4819 84.9853 65.3608 85.0595 65.2398 85.0829C62.8851 85.5593 61.8503 86.9299 61.8074 89.39C61.7683 91.6509 61.3622 93.9157 61.0069 96.161C60.6125 98.6524 59.0935 99.9566 56.6256 99.9722C52.2014 100.003 47.7732 100.007 43.349 99.9722C40.8889 99.9527 39.3739 98.6445 38.9873 96.1415C38.5616 93.3808 38.1868 90.6083 37.9408 87.828C37.8392 86.6878 37.4722 86.0279 36.3749 85.6999C35.633 85.4773 34.9028 85.1649 34.2272 84.7939C33.3525 84.3136 32.6887 84.5128 31.9507 85.1141C29.8889 86.805 27.7764 88.4333 25.6795 90.0772C24.7501 90.8075 23.7817 91.4596 22.5165 91.3893L22.5204 91.3932Z" fill="#DCDFEE"/>
<path d="M43.3685 71.9554C43.4115 71.0964 43.392 70.3779 43.5013 69.6828C43.6263 68.9214 44.0324 68.3473 44.9188 68.3473C45.8716 68.3473 46.3362 68.9174 46.4417 69.7921C46.508 70.3701 46.4768 70.9597 46.4729 71.5454C46.4729 72.2756 46.3987 72.9746 47.4882 73.041C48.7026 73.1152 48.4683 72.2952 48.4722 71.6274C48.4878 69.675 48.4917 67.7226 48.4722 65.7701C48.4605 64.6572 48.5893 63.4858 49.9482 63.4623C51.4516 63.435 51.5375 64.6807 51.5297 65.856C51.518 67.8085 51.5141 69.7609 51.5336 71.7133C51.5414 72.3108 51.3032 73.0801 52.4083 73.041C53.244 73.0098 53.5446 72.67 53.5368 71.85C53.5134 68.0115 53.5056 64.173 53.5368 60.3345C53.5446 59.3935 53.0995 59.2646 52.3302 59.3739C51.6859 59.4637 51.0338 59.5262 50.3856 59.5262C49.1634 59.5262 47.66 59.0186 46.797 59.5575C45.934 60.0963 46.6018 61.7286 46.4573 62.8727C46.3479 63.7591 45.8716 64.3644 44.9695 64.3839C44.0402 64.3995 43.6302 63.7318 43.4661 62.8883C42.6774 58.8624 42.1463 57.8315 39.4519 55.059C33.2354 48.6668 34.1647 38.1939 41.3966 32.977C42.447 32.2194 43.5403 31.6181 44.8172 32.2155C46.2074 32.8637 46.3597 34.1797 46.3401 35.5386C46.3167 36.9677 46.551 38.4399 46.2933 39.8261C45.7622 42.6689 47.4023 44.305 49.2493 45.9099C49.5187 46.1442 49.6905 46.4995 50.2177 46.2731C51.6391 45.6678 53.6657 42.6728 53.6696 41.0444C53.6696 39.0256 53.6735 37.0107 53.6774 34.9919C53.6774 33.8087 54.0288 32.77 55.1535 32.2311C56.2624 31.7001 57.2738 32.071 58.2578 32.7231C66.9071 38.4516 66.829 51.3494 58.0392 57.1052C56.9067 57.8471 56.5163 58.6086 56.5436 59.905C56.6217 63.4155 56.6334 66.9338 56.5436 70.4443C56.5045 72.0062 56.9536 72.1194 58.3047 71.6157C71.8195 66.594 77.3371 49.9476 69.5663 37.6081C68.9416 36.6163 67.403 35.4214 69.1134 34.3163C70.894 33.1644 71.4719 35.0856 72.0967 36.1321C77.3136 44.8907 77.708 53.911 72.6824 62.7868C67.571 71.8149 59.4801 76.2586 49.1477 76.0829C35.7735 75.8525 24.8946 65.1141 23.9105 51.5564C22.9812 38.7132 32.4622 26.5769 45.278 24.3042C52.3185 23.0586 58.8397 24.4604 64.7751 28.4785C65.0992 28.6972 65.4077 28.9315 65.72 29.1658C66.583 29.8101 66.872 30.6497 66.1691 31.5126C65.5014 32.3327 64.6814 32.0671 63.9199 31.497C60.9014 29.24 57.5276 27.8538 53.818 27.1509C40.6664 24.6596 27.3859 35.2457 26.9485 48.6199C26.6127 58.8272 31.9663 67.4766 41.0022 71.3072C41.709 71.6079 42.4079 71.9984 43.3802 71.9515L43.3685 71.9554ZM56.6412 35.4409C56.6412 36.5265 56.6412 37.366 56.6412 38.2095C56.6412 42.3851 55.0962 45.8644 52.0061 48.6472C51.9593 48.6902 51.9124 48.737 51.8655 48.78C50.534 50.0139 49.1985 49.9788 47.9021 48.7527C46.8634 47.7686 45.9067 46.6987 44.8446 45.742C43.7551 44.758 43.2631 43.6295 43.3295 42.1339C43.431 39.9589 43.3568 37.78 43.3568 35.4683C39.2372 38.0064 37.3863 43.2195 38.7022 48.0615C40.0494 53.0285 44.786 56.621 49.9912 56.6249C55.1183 56.6288 59.8042 53.1496 61.2412 48.2606C62.6742 43.3913 60.8624 38.1197 56.6412 35.4448V35.4409Z" fill="#DCDFEE"/>
</g>
<defs>
<clipPath id="clip0_0_2434">
<rect width="100" height="100" fill="white"/>
</clipPath>
</defs>
</svg>
