<svg width="100" height="100" viewBox="0 0 100 100" fill="none" xmlns="http://www.w3.org/2000/svg">
<g clip-path="url(#clip0_0_2962)">
<path d="M49.6 30.755C68.6444 30.8097 84.0868 46.3473 84.0401 65.4089C83.9973 84.6385 68.411 100.071 49.1099 99.9963C30.3378 99.9221 14.8487 84.1462 14.9615 65.2096C15.0744 46.0973 30.5518 30.6964 49.5961 30.755H49.6ZM81.1461 65.3737C81.1578 47.7772 67.0612 33.5797 49.5689 33.568C32.0221 33.5563 17.9333 47.6327 17.8633 65.2409C17.7933 82.8765 32.0143 97.2303 49.5339 97.2068C66.9834 97.1873 81.1305 82.939 81.1422 65.3737H81.1461Z" fill="#6D3FFF"/>
<path d="M41.387 8.67369C44.2395 8.69452 46.104 7.34666 46.9805 4.63009C47.3383 3.52054 47.669 2.39927 48.0463 1.29363C48.2874 0.586487 48.6608 -0.0229836 49.536 -0.00344925C50.4035 0.0199919 50.7535 0.648996 50.9869 1.35223C51.6365 3.32129 52.3328 5.28253 52.8696 7.28285C53.1613 8.36505 53.6787 8.75183 54.7717 8.70494C56.7127 8.62681 58.6576 8.66978 60.5986 8.66587C61.4543 8.66587 62.3723 8.65025 62.7224 9.63868C63.1153 10.7443 62.2828 11.2874 61.5399 11.8304C60.0735 12.897 58.6537 14.0456 57.1172 15.0028C55.9931 15.7021 55.6819 16.4132 56.1915 17.679C56.8722 19.3589 57.3856 21.1053 57.9302 22.8361C58.1947 23.6799 58.677 24.6098 57.7435 25.3404C56.6855 26.1686 55.9464 25.2857 55.184 24.7348C53.7098 23.676 52.2005 22.6563 50.8119 21.496C49.8278 20.6756 49.0965 20.7654 48.1435 21.539C46.6382 22.7657 45.0278 23.8636 43.4602 25.0122C42.8262 25.4771 42.1999 25.9967 41.3675 25.4146C40.4612 24.7895 40.7257 23.9456 40.9824 23.1369C41.6087 21.16 42.196 19.1636 42.9351 17.2297C43.2891 16.2999 43.044 15.8193 42.305 15.3075C40.6518 14.1667 39.0414 12.9634 37.4155 11.7835C36.727 11.2835 35.9568 10.7951 36.2525 9.7637C36.5792 8.6229 37.5672 8.6815 38.4774 8.67369C39.4499 8.66197 40.4184 8.67369 41.3909 8.67369H41.387ZM49.8589 6.47022C49.7033 6.52491 49.5516 6.57961 49.396 6.63821C49.0615 7.55633 48.6025 8.44709 48.4158 9.39255C48.0696 11.1506 47.0544 11.7289 45.3662 11.6077C44.4638 11.5413 43.503 11.4241 42.3594 11.8695C43.3746 12.6118 44.1137 13.2486 44.9383 13.737C46.292 14.5379 46.607 15.5498 45.9886 17.0031C45.6074 17.8978 45.0939 18.8159 45.3118 19.9411C46.9649 19.3863 47.8557 17.5344 49.5516 17.5657C51.2087 17.5931 52.0916 19.441 53.7137 19.9215C53.9198 18.8315 53.4103 17.9564 53.0524 17.093C52.4262 15.581 52.714 14.5418 54.1493 13.6706C54.9506 13.1822 55.9425 12.7642 56.561 11.3616C52.1733 12.5805 50.1078 10.7521 49.8667 6.47022H49.8589Z" fill="#6D3FFF"/>
<path d="M75.4078 19.5151C78.3588 19.5177 80.2946 18.1008 81.2152 15.2644C81.5342 14.2799 81.857 13.2915 82.1604 12.303C82.4055 11.5138 82.7439 10.8458 83.7202 10.8536C84.7199 10.8614 84.9883 11.631 85.2334 12.3773C85.8402 14.2252 86.4781 16.0653 86.9721 17.9406C87.2872 19.1361 87.8356 19.6245 89.1193 19.5503C91.1186 19.433 93.1296 19.5268 95.1367 19.5112C95.8914 19.5073 96.6032 19.6089 96.8949 20.4098C97.2061 21.2732 96.8016 21.8709 96.0819 22.3788C94.3354 23.6095 92.6473 24.9261 90.8852 26.1294C90.115 26.6568 89.9167 27.1217 90.2667 28.0438C91.0019 29.9816 91.5932 31.9702 92.2077 33.9509C92.4411 34.6932 92.6901 35.5293 91.9393 36.1153C91.1186 36.7561 90.3523 36.3107 89.6483 35.7911C88.0846 34.6385 86.4859 33.529 84.9728 32.314C84.0781 31.5951 83.4013 31.4896 82.4483 32.2788C80.904 33.5563 79.2237 34.6698 77.6055 35.8575C76.9443 36.3419 76.2402 36.7053 75.4778 36.1622C74.7037 35.6114 74.8593 34.8573 75.1316 34.0603C75.8045 32.103 76.3919 30.1105 77.0843 28.1571C77.411 27.2272 77.2554 26.6334 76.4036 26.063C74.6843 24.9105 73.0428 23.6407 71.3585 22.4335C70.6856 21.953 70.1449 21.4255 70.4289 20.5035C70.7206 19.5503 71.4986 19.5073 72.3076 19.5151C73.3423 19.5268 74.377 19.5151 75.4117 19.5229L75.4078 19.5151ZM79.2159 31.5639C82.1566 27.7547 84.9961 27.6726 87.824 31.0833C88.174 29.8761 87.7656 29.1221 87.435 28.4931C86.3536 26.4146 87.0421 25.1019 88.9248 24.0471C89.5938 23.672 90.364 23.2774 90.8502 22.3046C89.6677 22.3046 88.6992 22.2147 87.7539 22.3241C86.0424 22.5195 85.1089 21.8905 84.7316 20.148C84.5293 19.2221 84.3932 18.1555 83.2924 17.1124C83.2418 21.8592 80.6979 23.1719 76.2869 22.1132C77.695 23.9338 79.7916 24.2854 80.3206 25.8716C80.8846 27.5554 79.3676 29.1221 79.212 31.5717L79.2159 31.5639Z" fill="#6D3FFF"/>
<path d="M7.14746 19.5143C10.0596 19.5143 11.9591 18.1313 12.846 15.3652C13.1805 14.3143 13.48 13.2555 13.8301 12.2124C14.0635 11.5209 14.363 10.8645 15.2615 10.8528C16.234 10.8372 16.588 11.4896 16.8408 12.2827C17.432 14.1346 18.1244 15.9591 18.6067 17.8383C18.9335 19.1197 19.4742 19.6511 20.8628 19.5534C22.8583 19.4167 24.8732 19.5221 26.8764 19.5143C27.6349 19.5143 28.3078 19.6354 28.5723 20.4793C28.8291 21.2919 28.4518 21.8545 27.8255 22.3077C26.0946 23.5618 24.3947 24.8589 22.621 26.0505C21.7808 26.617 21.5902 27.1991 21.9208 28.1407C22.6327 30.1566 23.2278 32.2116 23.9318 34.2276C24.2002 34.9933 24.2158 35.6536 23.5468 36.1419C22.8816 36.6264 22.2087 36.4271 21.5824 35.9661C19.8631 34.7003 18.0933 33.4931 16.4207 32.1647C15.5961 31.5123 14.9931 31.5748 14.2113 32.1843C12.5776 33.454 10.8816 34.6534 9.21682 35.8841C8.54778 36.3763 7.82429 36.6889 7.08134 36.1302C6.40063 35.6184 6.5251 34.8527 6.74293 34.1572C7.37696 32.1139 7.98766 30.0628 8.7306 28.0586C9.06901 27.1522 8.91731 26.6717 8.13158 26.1404C6.36562 24.941 4.68135 23.6204 2.93484 22.3898C2.21912 21.8858 1.78735 21.3037 2.09853 20.4324C2.38249 19.6315 3.08265 19.5026 3.84504 19.5143C4.94585 19.5339 6.04666 19.5182 7.14357 19.5221L7.14746 19.5143ZM10.8816 31.0044C14.0907 27.3906 16.9186 28.043 19.7659 31.1255C19.5286 29.8402 19.2719 28.7814 18.844 27.7969C18.2061 26.3357 18.5678 25.3355 19.9098 24.5307C20.8045 23.9916 21.6135 23.3079 22.4615 22.6906C22.4771 22.4874 22.4965 22.2804 22.5121 22.0772C18.1361 23.3235 15.8489 21.6709 15.635 16.8381C14.3747 18.8033 14.6508 20.8856 13.3478 21.9053C11.9552 22.9953 9.99089 21.9405 7.75038 22.6242C11.9552 24.3159 13.126 26.9335 10.8855 31.0083L10.8816 31.0044Z" fill="#6D3FFF"/>
<path d="M49.5579 36.5997C65.401 36.6309 78.2606 49.5587 78.2256 65.4167C78.1867 81.3645 65.2648 94.1829 49.2545 94.1438C33.6176 94.1047 20.7502 81.0754 20.7852 65.3073C20.8202 49.4415 33.7265 36.5684 49.5618 36.5997H49.5579ZM75.3393 65.3112C75.3082 50.8675 63.7595 39.3853 49.3051 39.4243C35.1502 39.4634 23.6987 51.0277 23.6676 65.3151C23.6364 79.708 35.2941 91.4168 49.6007 91.366C63.8256 91.3152 75.3705 79.6259 75.3393 65.3112Z" fill="#6D3FFF"/>
<path d="M33.5492 68.5454C33.5492 65.4238 33.5414 62.2983 33.5492 59.1768C33.557 57.1257 34.2766 55.4691 36.2954 54.6839C38.2325 53.9337 39.8 54.5588 41.1304 56.106C42.1923 57.3405 43.2386 57.1569 43.8843 55.6567C44.9073 53.2735 45.8642 50.859 46.8678 48.468C47.9764 45.8309 49.859 44.5729 52.0373 44.9792C54.2739 45.3973 56.3394 47.8469 56.5416 50.2496C56.6972 52.121 56.176 53.8634 55.577 55.5785C55.2541 56.5006 55.5031 56.7389 56.3822 56.7311C58.3271 56.7115 60.2719 56.6881 62.2129 56.7389C66.3128 56.8522 68.526 59.5127 67.787 63.5524C67.0285 67.7015 66.1844 71.835 65.2936 75.9567C64.6129 79.1056 62.7731 80.5317 59.4979 80.5473C54.0561 80.5707 48.6143 80.559 43.1725 80.5473C42.3245 80.5473 41.5777 80.5277 40.9748 81.3873C39.8662 82.9734 38.3219 83.6415 36.4043 82.9344C34.4555 82.2155 33.6075 80.6606 33.5686 78.6954C33.4986 75.3121 33.5492 71.9287 33.5453 68.5454H33.5492ZM51.4927 77.7382C54.1494 77.7382 56.81 77.6796 59.4629 77.7578C61.2872 77.8125 62.2402 76.953 62.5864 75.2496C63.4071 71.2411 64.2667 67.2444 65.0214 63.2243C65.4959 60.7043 64.609 59.6807 62.0651 59.6456C59.6029 59.6104 57.1407 59.6456 54.6784 59.6339C51.7028 59.626 51.3994 59.1572 52.364 56.2622C52.8152 54.9105 53.1809 53.5274 53.5854 52.16C53.8577 51.2419 53.7449 50.3433 53.352 49.4956C52.9592 48.6478 52.4068 47.8547 51.3955 47.7961C50.3063 47.7336 49.8707 48.5853 49.5089 49.4682C48.4781 51.9881 47.3734 54.4846 46.401 57.028C45.802 58.5985 44.7829 59.5596 43.1336 59.6378C42.0872 59.6846 41.8383 60.1105 41.85 61.0716C41.8966 66.1505 41.92 71.2255 41.8927 76.3044C41.8889 77.3866 42.2117 77.7851 43.3281 77.7539C46.047 77.6836 48.7699 77.7304 51.4927 77.7304V77.7382ZM39.0571 68.9361H39.0338C39.0338 65.7481 39.0338 62.5562 39.0338 59.3682C39.0338 58.4384 39.1232 57.3757 37.8513 57.3093C36.4976 57.235 36.342 58.3407 36.3381 59.3408C36.3148 65.5918 36.3148 71.8389 36.3343 78.0899C36.3343 79.0861 36.4743 80.2933 37.7035 80.3011C38.9248 80.3051 39.0688 79.1682 39.061 78.1211C39.0454 75.062 39.0571 72.003 39.0571 68.9439V68.9361Z" fill="#6D3FFF"/>
</g>
<defs>
<clipPath id="clip0_0_2962">
<rect width="100" height="100" fill="white"/>
</clipPath>
</defs>
</svg>
