<svg width="100" height="100" viewBox="0 0 100 100" fill="none" xmlns="http://www.w3.org/2000/svg">
<g clip-path="url(#clip0_0_2951)">
<path d="M7.55886 48.4781C9.31097 48.4781 11.0671 48.4376 12.8152 48.4943C13.9118 48.5307 14.4338 48.1946 14.3529 47.0043C14.2719 45.7977 14.4338 44.5668 14.3083 43.3684C14.2234 42.5707 15.0084 41.2346 13.5597 41.0807C12.3701 40.9552 11.0105 40.4572 10.1284 42.2266C8.89824 44.6842 6.23162 45.5426 3.75519 44.7045C1.45276 43.9271 -0.00396118 41.8905 0.0162711 39.4895C0.0365033 37.1857 1.4649 35.1976 3.66617 34.4081C5.87149 33.6145 8.63522 34.2178 9.72776 36.2949C10.6949 38.1291 11.9695 38.2019 13.6366 38.1695C17.2056 38.1048 17.2056 38.1493 17.2016 41.7245C17.2016 43.4777 17.2582 45.2349 17.1732 46.984C17.1206 48.1258 17.505 48.5348 18.6583 48.4983C20.8798 48.4295 23.1094 48.5226 25.3309 48.47C27.0223 48.4295 27.6981 49.0976 27.7628 50.8588C28.1432 61.8354 36.6771 70.9414 47.6026 72.148C58.4106 73.3424 68.6077 66.3419 71.4847 55.758C71.946 54.0615 72.3062 52.3488 72.2455 50.5795C72.1969 49.1138 72.9091 48.4821 74.3172 48.4862C76.6075 48.4902 78.9019 48.4295 81.1922 48.5024C82.4021 48.5429 82.8633 48.1785 82.8107 46.9111C82.7136 44.7571 82.831 42.595 82.7622 40.4369C82.7136 38.8214 83.3206 38.0157 85.0039 38.1412C85.7404 38.1979 86.489 38.1007 87.2254 38.1614C88.4515 38.2586 89.2608 38.0116 89.9285 36.7241C91.0777 34.5012 93.6917 33.6105 96.0143 34.2785C98.3087 34.9385 99.9758 37.1735 99.9677 39.5705C99.9556 42.0525 98.4139 44.0567 95.9577 44.7774C93.6188 45.4697 91.2436 44.5223 89.8637 42.3642C89.4914 41.7812 89.3781 41.0605 88.3665 40.9795C85.8254 40.777 85.6392 40.8702 85.6433 43.4453C85.6433 46.8059 87.3225 48.4862 90.6811 48.4862C92.8379 48.4862 94.9946 48.4781 97.1514 48.4862C99.7371 48.4983 99.9839 48.7655 100.004 51.4297C100.004 51.7658 100.004 52.1059 100.004 52.442C100.004 57.9849 99.3607 58.7299 93.8414 59.5923C86.9179 60.6693 83.6726 68.8562 87.974 74.3911C91.017 78.3064 90.936 79.6992 87.4763 83.161C85.8092 84.8292 84.1461 86.5054 82.4668 88.1655C79.9054 90.7001 77.8174 90.7771 75.0335 88.453C70.4367 84.6106 64.104 85.4284 60.9478 90.2588C59.9564 91.7731 59.6246 93.4696 59.4384 95.2308C59.0945 98.4659 57.5649 99.8952 54.2994 99.964C51.5357 100.025 48.772 100.005 46.0083 99.9721C42.3624 99.9316 40.7924 98.6319 40.5496 94.9474C40.0681 87.6027 32.2099 83.9222 26.6905 87.2019C25.9459 87.6472 25.2783 88.2262 24.5985 88.7769C22.296 90.6353 20.0179 90.5867 17.9056 88.542C15.9188 86.6188 13.9846 84.643 12.0342 82.6833C9.17744 79.8167 9.09246 77.9177 11.6701 74.8081C15.9593 69.6336 13.7702 61.8192 7.44556 59.8798C6.36516 59.5478 5.19168 59.5073 4.06272 59.3413C1.9181 59.0255 0.400684 57.7136 0.15385 55.5961C-0.0525186 53.7983 0.00413172 51.9642 0.0162711 50.1462C0.024364 48.968 0.797236 48.5064 1.89383 48.5024C3.77947 48.4943 5.66917 48.5024 7.55481 48.5024C7.55481 48.5024 7.55481 48.4943 7.55481 48.4902L7.55886 48.4781ZM13.9401 51.3892C10.9741 51.3892 8.00802 51.373 5.03792 51.3973C4.0344 51.4054 2.69907 51.0127 2.88521 52.8388C3.03897 54.3288 2.27419 56.2844 4.83964 56.5233C5.90791 56.6204 6.99236 56.75 8.02015 57.0456C16.4772 59.4709 19.5809 69.8037 13.9118 76.5856C12.277 78.5412 12.277 78.8449 14.0291 80.6102C15.8339 82.4322 17.7033 84.1854 19.4433 86.0682C20.7301 87.461 21.8388 87.4812 23.2105 86.1896C25.2419 84.2745 27.7183 83.2542 30.5103 83.1489C37.3165 82.8938 42.504 87.4084 43.3012 94.4939C43.5318 96.5387 44.3694 97.1541 46.2551 97.0893C48.6789 97.0043 51.1149 96.9719 53.5347 97.0974C55.651 97.2067 56.5169 96.4536 56.6949 94.2632C57.0915 89.3154 59.7662 85.8252 64.3589 84.0154C68.9678 82.2015 73.2368 83.0274 76.9393 86.3394C78.2221 87.4853 79.2458 87.3962 80.3991 86.1856C82.1674 84.3312 84.0166 82.5537 85.8213 80.7357C87.707 78.8409 87.715 78.5736 86.0317 76.5613C80.3748 69.8077 83.5229 59.4263 91.976 57.0375C93.0685 56.7298 94.2339 56.6812 95.3588 56.4868C97.8555 56.0536 96.9167 54.0575 97.0623 52.6039C97.2202 51.0086 95.9536 51.4054 95.1039 51.4014C89.0342 51.3771 82.9686 51.4297 76.8989 51.3568C75.5393 51.3407 75.1508 51.7334 74.9323 53.0979C72.5085 68.0262 59.7541 77.2091 45.1464 74.6381C34.8279 72.8201 26.7997 64.281 25.0314 53.0655C24.8089 51.6565 24.3516 51.3204 23.0365 51.3609C20.0057 51.45 16.9709 51.3892 13.9361 51.3892H13.9401ZM7.98778 39.3113C7.82997 37.8983 6.98831 36.9589 5.38996 37.0035C3.79161 37.052 2.96209 38.04 2.94186 39.6191C2.92567 41.0362 4.16389 42.267 5.53159 42.1213C7.05305 41.9593 7.97564 41.105 7.98374 39.3113H7.98778ZM94.59 36.9508C93.0402 37.1006 92.0609 37.8497 92.0083 39.4773C91.9557 41.1172 92.9269 41.9634 94.4443 42.1253C95.812 42.2711 97.0421 41.0402 97.034 39.6191C97.0259 38.0197 96.1398 37.1735 94.5859 36.9508H94.59Z" fill="#6D3FFF"/>
<path d="M50.0862 48.4777C52.1094 48.4777 54.1326 48.4453 56.1559 48.4898C57.2039 48.5141 57.7461 48.0728 57.5317 47.0606C56.6617 42.9793 58.8953 40.4244 61.659 37.9343C64.5604 35.3187 67.2067 32.4197 69.9988 29.6786C70.7676 28.9255 71.1642 28.3101 70.7838 27.0752C70.015 24.5648 71.2006 22.0707 73.3857 20.8682C75.4413 19.7385 78.2778 20.1677 79.9126 21.848C81.5635 23.5445 81.9156 26.0791 80.7988 28.2008C79.6172 30.4479 77.246 31.618 74.6562 30.8528C73.4261 30.4884 72.8273 30.8528 72.0706 31.618C68.6149 35.1244 65.1188 38.5943 61.6429 42.0764C60.6191 43.1007 59.9433 46.5666 60.4734 47.8987C60.8336 48.8016 61.6105 48.4332 62.2094 48.4575C65.0095 48.5708 65.1916 48.753 64.9933 51.5508C64.4511 59.1668 57.4467 65.2442 49.4873 65.0054C41.6574 64.7746 35.1143 58.3287 34.9079 50.7491C34.8634 49.0445 35.5635 48.2955 37.1537 48.4979C39.1041 48.7449 39.6544 48.0485 39.6261 46.0807C39.5978 44.1251 39.1243 42.6878 37.6636 41.3233C34.4628 38.3311 31.3956 35.1892 28.3527 32.0351C27.3532 30.9986 26.4994 30.5289 24.9334 30.9095C21.935 31.6383 19.3291 29.7434 18.6331 26.6905C18.0302 24.0466 19.8147 21.1111 22.457 20.4066C25.3138 19.6414 28.1544 21.1354 29.1337 23.8846C29.4655 24.8118 29.6314 25.8483 29.2793 26.6581C28.5874 28.2615 29.3967 29.1077 30.4042 30.0956C33.6333 33.2538 36.7046 36.5861 40.0429 39.6268C41.9164 41.3314 42.6529 43.1372 42.4748 45.6313C42.2725 48.4615 42.4303 48.4737 45.2304 48.4737C46.849 48.4737 48.4676 48.4737 50.0862 48.4737V48.4777ZM50.0781 51.3889C46.5091 51.3889 42.9361 51.4213 39.3671 51.3727C38.0925 51.3565 37.7607 51.648 38.1208 53.0044C39.5533 58.4016 44.3362 62.1468 50.0012 62.1428C55.6582 62.1428 60.4411 58.3773 61.8654 52.9841C62.2336 51.5873 61.8209 51.3605 60.5908 51.3767C57.0866 51.4213 53.5823 51.3929 50.0821 51.3929L50.0781 51.3889ZM26.552 25.7066C26.4104 24.1478 25.6416 23.1923 24.023 23.1477C22.3842 23.1072 21.4575 24.083 21.4252 25.6054C21.3928 27.1318 22.2951 28.1522 23.9178 28.1724C25.508 28.1886 26.3578 27.2776 26.552 25.7066ZM75.9511 28.1967C77.683 28.0914 78.5813 27.1237 78.5449 25.6014C78.5125 24.079 77.5818 23.0951 75.943 23.1518C74.3406 23.2044 73.4464 24.1154 73.4666 25.7107C73.4868 27.3383 74.5065 28.0793 75.9471 28.1967H75.9511Z" fill="#6D3FFF"/>
<path d="M49.5973 40.598C47.9181 40.6993 45.9474 40.6912 45.211 38.2173C45.1746 38.0958 45.0977 37.9258 45.0006 37.8974C43.2161 37.3063 42.1195 36.2455 42.2854 34.1967C42.4189 32.5569 41.9091 30.824 43.3415 29.4311C43.8595 28.9291 43.5236 28.1395 43.3658 27.4958C42.9652 25.8317 42.0305 24.4307 41.1686 22.9812C38.7326 18.8756 39.6997 13.4339 43.3577 10.3446C47.2909 7.02447 52.7779 7.04876 56.6827 10.4053C60.3083 13.523 61.1904 18.9323 58.7666 23.0703C58.1232 24.1716 57.4353 25.2648 56.9498 26.4349C56.4075 27.7387 56.2012 28.9453 57.2209 30.3705C58.7423 32.4962 57.6093 36.4196 55.4364 37.6909C55.2179 37.8205 54.9589 37.9339 54.8051 38.1242C53.5022 39.7734 51.7649 40.5994 49.5933 40.6021L49.5973 40.598ZM51.4466 24.4631C51.4466 25.5401 51.4466 26.6171 51.4466 27.6942C51.4466 28.3379 51.4749 28.9088 52.3854 28.8845C53.0732 28.8643 53.5224 28.755 53.6236 27.9371C53.9149 25.5401 55.1208 23.5238 56.3387 21.4953C58.0908 18.576 57.3665 14.7498 54.7728 12.535C52.0212 10.1867 48.1123 10.1502 45.3162 12.4379C42.6172 14.6486 41.8524 18.5558 43.6612 21.5398C44.8913 23.5683 46.0688 25.5887 46.3602 27.9897C46.4654 28.844 46.9955 28.8643 47.6429 28.8805C48.4036 28.8967 48.525 28.4473 48.525 27.848C48.525 26.771 48.4603 25.6859 48.5493 24.617C48.7516 22.1026 48.7435 19.7785 45.7087 18.8068C44.8792 18.5396 44.4988 17.7217 45.0572 16.8269C45.5994 15.9564 46.4897 15.8997 47.1533 16.4463C49.1118 18.0497 50.957 18.0335 52.8507 16.4058C52.9923 16.2843 53.2189 16.2398 53.4131 16.1993C54.0768 16.0616 54.5866 16.2722 54.9508 16.8593C55.3433 17.4869 55.1734 18.0577 54.708 18.5031C54.3276 18.8675 53.8583 19.1914 53.3686 19.3817C51.8472 19.9769 51.1593 20.9932 51.4223 22.6492C51.5154 23.2404 51.4385 23.8598 51.4425 24.4631H51.4466ZM49.9453 31.7228C48.9378 31.7228 47.9262 31.6823 46.9186 31.735C46.1579 31.7755 45.0127 31.2855 45.1301 32.8322C45.2069 33.8242 44.7173 35.1199 46.5706 34.9417C47.4325 34.8607 48.0516 35.3992 47.9828 36.2778C47.8614 37.8893 48.8933 37.7355 49.9292 37.7436C51.0419 37.7557 52.1385 37.9055 52.0009 36.1888C51.9402 35.4114 52.5229 34.8729 53.2877 34.9539C55.2179 35.1523 54.8132 33.8283 54.8375 32.7432C54.8739 31.1722 53.6883 31.8038 52.964 31.739C51.9645 31.6499 50.9489 31.7188 49.9413 31.7188L49.9453 31.7228Z" fill="#6D3FFF"/>
<path d="M37.8262 12.0701C37.7777 12.7584 37.3285 13.2281 36.6244 13.4022C35.8515 13.5965 32.8491 11.7907 32.6508 11.0295C32.4606 10.2967 32.6832 9.70957 33.3913 9.36137C34.4555 8.83501 37.81 10.819 37.8303 12.0701H37.8262Z" fill="#6D3FFF"/>
<path d="M67.3856 10.3897C67.418 11.6611 66.5318 12.0052 65.7751 12.3696C64.8687 12.8069 64.1039 13.892 62.89 13.1956C62.2426 12.8231 61.8379 12.1145 62.2952 11.5072C63.238 10.252 64.5976 9.45846 66.1474 9.24387C66.815 9.15074 67.3411 9.75808 67.3856 10.3897Z" fill="#6D3FFF"/>
<path d="M51.4792 2.8259C51.4306 3.3806 51.4266 3.9191 51.3214 4.43736C51.1879 5.10139 50.7347 5.47793 50.0508 5.49818C49.375 5.51842 48.8531 5.22285 48.6993 4.54669C48.4322 3.3644 48.4363 2.15783 48.6952 0.971497C48.8409 0.295329 49.3629 -0.0204863 50.0346 -0.0042907C50.7104 0.0119049 51.1919 0.376307 51.3173 1.04843C51.4266 1.63552 51.4347 2.23881 51.4833 2.82185L51.4792 2.8259Z" fill="#6D3FFF"/>
<path d="M42.2732 7.66442C41.2535 7.66847 40.8367 6.95587 40.4766 6.22706C39.9951 5.24318 38.9794 4.39695 39.5742 3.09725C39.6025 3.03652 39.643 2.97983 39.6875 2.93125C40.161 2.41299 40.861 2.24293 41.3304 2.62758C42.5403 3.62361 43.3779 4.93546 43.475 6.54288C43.5155 7.23119 42.8599 7.51462 42.2773 7.66442H42.2732Z" fill="#6D3FFF"/>
<path d="M60.5836 3.87512C60.5836 5.12624 58.6251 7.77827 57.743 7.65276C56.9175 7.53534 56.4117 7.04947 56.4602 6.13847C56.5209 4.95618 58.3742 2.47825 59.2199 2.48635C60.1223 2.49445 60.5633 2.98841 60.5836 3.87917V3.87512Z" fill="#6D3FFF"/>
</g>
<defs>
<clipPath id="clip0_0_2951">
<rect width="100" height="100" fill="white"/>
</clipPath>
</defs>
</svg>
