<svg width="99" height="100" viewBox="0 0 99 100" fill="none" xmlns="http://www.w3.org/2000/svg">
<path d="M44.9699 23.3392C38.9535 17.6364 38.0911 11.7903 42.4478 7.11589C46.296 2.98526 52.6215 2.95997 56.4413 7.05688C60.7532 11.6807 59.8786 17.7797 53.9517 23.335C55.4691 23.4951 56.8359 23.7269 58.1091 24.3086C63.137 26.6142 65.7567 30.6732 65.9194 36.3043C66.0618 41.2864 65.9804 46.2768 65.9398 51.2631C65.9072 55.242 63.9628 57.7963 60.2 58.8669C59.6468 59.0228 59.2318 59.0902 59.0366 59.7815C58.7803 60.6877 58.0847 61.1766 57.1491 60.928C56.1362 60.6582 55.8392 59.8194 55.8392 58.8163C55.8392 55.5876 55.8392 52.3548 55.8392 49.1261C55.8392 46.1082 55.8555 43.0861 55.8311 40.0682C55.823 38.749 56.0792 37.5098 57.5803 37.5309C58.9878 37.5519 59.1383 38.7743 59.1301 39.9966C59.1057 44.5614 59.1098 49.1261 59.1342 53.6909C59.1342 54.2684 58.8006 55.0818 59.4637 55.3895C60.143 55.7014 60.7451 55.1198 61.2617 54.6814C62.2787 53.8174 62.6488 52.633 62.6529 51.3137C62.661 46.3274 62.7383 41.3369 62.6285 36.3549C62.5024 30.6689 58.6176 26.8671 53.0934 26.8291C50.5185 26.8123 47.9435 26.7996 45.3685 26.8376C40.2512 26.9134 36.3501 30.8966 36.2972 36.161C36.2484 41.2189 36.2972 46.2726 36.2769 51.3306C36.2769 52.2705 36.3989 53.1556 36.9562 53.9143C37.5379 54.7067 38.2864 55.6593 39.2342 55.3642C40.1291 55.0861 39.6613 53.9017 39.6695 53.1303C39.7142 49.0587 39.6898 44.9829 39.6898 40.9112C39.6898 40.4181 39.6776 39.9249 39.7142 39.436C39.7996 38.3275 40.3 37.4718 41.4471 37.5224C42.4681 37.5688 42.9848 38.3738 42.9848 39.4107C43.001 45.9439 43.001 52.4728 42.9929 59.006C42.9929 59.9164 42.6675 60.7088 41.7359 60.9406C40.8125 61.1724 40.1332 60.7256 39.8525 59.7899C39.6247 59.027 39.0593 59.0102 38.4532 58.8416C34.9589 57.8595 33.0348 55.2378 33.0144 51.4528C32.99 46.6056 33.0022 41.7626 33.0104 36.9155C33.0226 29.3665 37.5216 24.1779 44.9577 23.3518L44.9699 23.3392ZM55.8474 14.1675C55.8799 10.3867 53.1138 7.46573 49.4974 7.44887C45.8648 7.43201 43.0539 10.3277 43.058 14.0874C43.058 17.7333 45.8038 20.6416 49.3225 20.7259C52.9185 20.8102 55.8148 17.8977 55.8474 14.1675Z" fill="#6D3FFF"/>
<path d="M73.838 25.6152C67.7718 20.0851 66.897 13.8943 71.4548 9.07208C75.4445 4.85049 81.9032 5.00064 85.6435 9.40242C89.7925 14.2804 88.7829 20.63 82.9782 25.5423C84.1351 25.8297 85.2347 26.0185 86.2852 26.3746C91.5666 28.1679 94.9104 33.1102 94.9676 39.271C95.0167 44.1319 95.0044 48.9927 94.9676 53.8492C94.939 58.1523 93.1976 60.5763 89.2284 61.8076C88.4272 62.0564 88.0879 62.3954 88.1288 63.2663C88.1738 64.2659 88.1288 65.2655 88.1288 66.2695C88.1288 67.3077 87.5647 67.9255 86.6613 67.9941C85.6435 68.0756 84.8913 67.4235 84.8872 66.3553C84.8463 58.2081 84.8504 50.061 84.8791 41.9138C84.8791 40.837 85.5331 40.1677 86.5836 40.202C87.6546 40.2406 88.1329 40.9571 88.1329 42.0511C88.1329 42.553 88.137 43.0507 88.137 43.5527C88.137 47.9115 88.1206 52.2704 88.1574 56.6336C88.1615 57.2042 87.7773 58.0279 88.5662 58.3154C89.1876 58.5427 89.7353 58.0708 90.2177 57.6675C91.3173 56.7408 91.6811 55.4709 91.6811 54.0552C91.6811 49.0527 91.7751 44.0461 91.6566 39.0479C91.5176 33.1274 87.6138 29.1418 81.9686 29.2233C77.9912 29.2791 73.9279 28.4982 70.0568 30.2143C69.1616 30.609 68.4176 30.0942 68.1151 29.1847C67.8208 28.2923 68.0865 27.5115 68.9613 27.031C70.4779 26.1987 72.1375 25.9112 73.838 25.6238V25.6152ZM84.8423 16.1853C84.8055 12.4528 81.7887 9.37239 78.261 9.46249C74.8068 9.55258 71.929 12.633 71.9167 16.2582C71.9045 19.9521 74.9294 23.1312 78.4326 23.1011C81.9808 23.0711 84.8791 19.9435 84.8423 16.1853Z" fill="#6D3FFF"/>
<path d="M17.0241 25.6148C11.8325 21.7736 10.1981 17.632 11.85 12.9367C13.2965 8.82517 17.247 6.0269 21.6301 6.00115C26.0962 5.9754 30.2084 8.84233 31.6243 12.9754C33.2237 17.6406 31.5456 21.8337 26.4895 25.5719C28.1676 25.941 29.7976 26.1169 31.2834 26.7864C32.4065 27.2929 33.4597 27.9409 32.7911 29.3701C32.2142 30.5976 31.2048 30.4216 30.0161 30.0611C24.8988 28.5118 19.6374 28.7736 14.507 29.7178C10.4909 30.456 7.71159 34.3315 7.65478 38.3658C7.57612 43.7263 7.63293 49.0868 7.61545 54.4472C7.61545 55.3314 7.76403 56.164 8.31465 56.8678C8.94393 57.6704 9.72617 58.5931 10.7924 58.2498C11.6796 57.9665 11.1814 56.8635 11.1901 56.1425C11.2382 51.7134 11.2163 47.2799 11.212 42.8507C11.212 41.5589 11.3343 40.2499 13.0255 40.2241C14.826 40.1984 14.7473 41.6018 14.7473 42.8464C14.7473 50.3486 14.7429 57.8549 14.7517 65.3571C14.7517 66.6317 14.7517 68.018 13.0299 68.0008C11.413 67.9837 11.0678 66.6703 11.2338 65.3613C11.5135 63.2026 10.9978 62.018 8.54626 61.2798C5.6271 60.4 4.12381 57.9022 4.09759 54.8035C4.05389 49.9451 4.2855 45.0739 4.0233 40.2284C3.61252 32.6276 8.65988 26.4903 17.0153 25.6148H17.0241ZM28.6352 16.2629C28.6265 12.5548 25.4582 9.45177 21.6956 9.46465C17.9593 9.48182 14.756 12.6449 14.7735 16.3015C14.791 19.9667 18.0204 23.1255 21.7437 23.1084C25.515 23.0912 28.6483 19.9796 28.6396 16.2586L28.6352 16.2629Z" fill="#6D3FFF"/>
<path d="M34.6872 92.2503C34.5956 88.9816 35.4896 85.8386 36.0609 82.6653C36.3531 81.0396 36.0609 79.9645 34.8267 78.885C33.03 77.3157 31.3947 75.5643 29.6721 73.9126C28.39 72.6814 27.6225 71.2985 28.1894 69.4734C28.7694 67.592 30.1649 66.6946 32.027 66.4258C34.5346 66.0616 37.0421 65.6628 39.5671 65.407C40.8754 65.2727 41.6603 64.7438 42.2011 63.5473C43.1823 61.384 44.3336 59.2945 45.3453 57.1442C46.2044 55.3191 47.3601 53.9796 49.5798 54.0012C51.7036 54.0186 52.8244 55.3235 53.6573 57.0532C54.7214 59.2598 55.8683 61.4274 56.88 63.66C57.3946 64.7958 58.1796 65.2553 59.3745 65.3854C61.7512 65.6455 64.1148 65.9966 66.4828 66.3348C68.4453 66.6122 70.1286 67.2582 70.7958 69.3954C71.4325 71.4329 70.4993 72.8592 69.1168 74.1814C67.3899 75.8331 65.7633 77.5932 63.9622 79.1538C62.8676 80.1032 62.6975 81.1263 62.933 82.4182C63.3996 84.9673 63.8314 87.525 64.2457 90.0828C64.5204 91.7865 64.0581 93.2518 62.5885 94.2575C61.1363 95.2503 59.5838 95.1939 58.0575 94.4136C55.6764 93.1911 53.2866 91.9772 50.9448 90.6767C49.9549 90.1261 49.1306 90.0871 48.1276 90.655C46.0518 91.8298 43.9149 92.9006 41.7912 93.9931C38.4681 95.7055 36.7456 95.2676 34.6741 92.194L34.6828 92.2547L34.6872 92.2503ZM38.3155 90.0524C38.1018 91.6478 38.8039 91.6261 39.9334 91.0278C42.297 89.775 44.7043 88.5958 47.0505 87.3126C48.7251 86.3979 50.3255 86.3805 52.0001 87.2822C54.355 88.5524 56.7579 89.7359 59.1128 91.0061C60.5345 91.7735 60.9706 91.3573 60.7089 89.8617C60.299 87.5207 59.9545 85.171 59.4879 82.843C59.0169 80.4717 59.3832 78.4905 61.3674 76.8215C63.247 75.2435 64.9303 73.4314 66.6834 71.706C67.0279 71.3635 67.5861 71.0384 67.3812 70.4705C67.1893 69.9416 66.5788 69.9026 66.0903 69.8332C63.6526 69.4864 61.2148 69.1179 58.7683 68.8535C56.5006 68.6064 54.8478 67.6873 53.8928 65.4894C52.8636 63.1137 51.612 60.8334 50.4651 58.5055C49.8197 57.1919 49.2135 57.2699 48.5942 58.5228C47.5432 60.6557 46.344 62.7279 45.4587 64.9258C44.4121 67.5356 42.5892 68.7061 39.8418 68.9055C37.609 69.0659 35.3893 69.4821 33.1696 69.8072C32.6114 69.8896 31.8831 69.8766 31.6781 70.4792C31.4557 71.1294 32.1622 71.4589 32.5503 71.8491C34.2467 73.5311 35.8821 75.2869 37.705 76.8172C39.6892 78.4775 40.086 80.45 39.5976 82.83C39.1048 85.2274 38.7298 87.6464 38.3068 90.0568L38.3155 90.0524Z" fill="#6D3FFF"/>
<path d="M67.2759 92.755C69.2439 91.7262 70.9525 91.0487 72.419 90.0242C75.356 87.975 78.1018 88.0766 81.0091 90.0707C82.4373 91.0487 84.078 91.7219 85.9822 92.7211C85.5231 89.8421 85.1958 87.3611 84.7113 84.9054C84.3372 83.0298 84.9536 81.6623 86.2882 80.3795C88.0096 78.724 89.6036 76.9373 91.4525 74.994C88.9957 74.613 86.6155 74.1388 84.2097 73.9059C82.2248 73.7111 80.9581 72.7755 80.1335 71.0269C79.0964 68.8338 77.9913 66.6703 76.6992 64.058C75.8236 65.8023 75.1817 67.1021 74.5272 68.3934C73.9916 69.4477 73.3498 70.5104 71.9472 69.8414C70.587 69.1979 70.8335 68.0674 71.3988 66.9582C71.9089 65.9547 72.419 64.9513 72.8908 63.9267C73.6388 62.2967 74.6377 61.0223 76.6439 61.0011C78.6459 60.9842 79.683 62.2163 80.4566 63.8421C81.3067 65.6203 82.229 67.3646 83.0536 69.1513C83.4446 69.9981 83.9249 70.4384 84.9281 70.5273C86.964 70.7094 88.9872 71.0692 91.0147 71.3698C92.7064 71.6196 94.1686 72.2208 94.7806 74.0033C95.3927 75.79 94.6616 77.149 93.361 78.3176C93.2037 78.4573 93.0762 78.6478 92.9019 78.7579C88.2264 81.6708 87.5123 85.7903 89.1828 90.6762C89.7906 92.4586 89.4208 94.0505 87.8694 95.2021C86.2925 96.3707 84.5753 96.1717 83.1386 95.0667C78.8031 91.7389 74.5952 91.6542 70.2385 95.0455C68.7466 96.2056 66.9486 96.413 65.3419 95.0878C63.7863 93.805 63.8883 92.1665 64.1603 90.2909C64.5343 87.704 65.801 85.1679 64.8361 82.4371C64.5769 81.6962 65.0657 81.0442 65.7712 80.7309C66.4641 80.426 67.1356 80.553 67.7137 81.1161C69.0186 82.3863 68.7763 83.9571 68.5425 85.4897C68.194 87.7675 67.7562 90.0326 67.2759 92.7507V92.755Z" fill="#6D3FFF"/>
<path d="M35 91.9453C33.5008 96.2027 31.6353 97.1422 27.8242 94.603C23.7479 91.8861 20.1431 91.6533 16.3278 94.7384C15.793 95.1701 15.1192 95.4663 14.4623 95.6948C11.9356 96.5709 9.41736 94.84 9.59002 92.1611C9.74162 89.787 10.2343 87.4256 10.6933 85.0853C10.9081 83.9977 10.7186 83.2274 9.88059 82.4741C8.36879 81.1115 6.9707 79.6176 5.47574 78.2337C4.21661 77.0699 3.69443 75.6776 4.17871 74.0483C4.67563 72.364 6.03582 71.6657 7.66553 71.4202C9.74162 71.1071 11.8135 70.7389 13.9022 70.54C14.8918 70.4426 15.393 70.0025 15.7846 69.1646C16.6731 67.2517 17.6417 65.3812 18.5429 63.4726C19.2672 61.9406 20.3621 60.9884 22.1139 61.0011C23.8784 61.0138 24.9438 62.0083 25.6471 63.5361C26.1187 64.556 26.6325 65.5589 27.1462 66.5577C27.7063 67.6411 28.0769 68.8049 26.7462 69.4777C25.3144 70.2014 24.5774 69.1604 24.0174 67.9881C23.4573 66.8074 22.8719 65.6393 22.0802 64.0312C20.8127 66.6169 19.7262 68.716 18.745 70.8701C17.9112 72.6983 16.6563 73.714 14.5886 73.9044C12.2472 74.116 9.92691 74.59 7.2739 75.0005C9.10995 76.8795 10.626 78.6104 12.3273 80.1212C14.0538 81.6574 14.5213 83.4009 14.037 85.6058C13.5569 87.7895 13.2663 90.0113 12.8157 92.6774C15.1824 91.4502 17.2543 90.5191 19.1788 89.3384C21.2127 88.0942 23.0404 88.1323 25.0617 89.368C26.9483 90.5234 28.9823 91.4459 31.3153 92.6647C30.8394 89.7151 30.473 87.1589 29.9972 84.6282C29.8161 83.6676 29.9045 82.7958 30.3214 81.9663C30.8394 80.9379 31.6479 80.1847 32.8523 80.7094C33.9135 81.1707 33.8082 82.0383 33.6566 83.1682C33.2608 86.1898 34.1451 89.1099 35 92.0003C35 92.0088 34.9916 91.9495 34.9916 91.9495L35 91.9453Z" fill="#6D3FFF"/>
<path d="M29.5969 51.8144C29.5969 54.8892 29.5739 57.964 29.6061 61.0388C29.6199 62.3269 29.3579 63.458 27.8689 63.5134C26.2603 63.5734 25.888 62.4377 25.8926 61.0296C25.911 54.7276 25.911 48.4257 25.8926 42.1237C25.888 40.711 26.2741 39.5845 27.878 39.6491C29.3625 39.7092 29.6199 40.8449 29.6061 42.133C29.5739 45.3601 29.5969 48.5873 29.5969 51.8144Z" fill="#6D3FFF"/>
<path d="M72.96 51.5049C72.96 54.6536 72.96 57.8022 72.96 60.9509C72.96 62.2713 72.7762 63.5455 71.0941 63.5178C69.6234 63.4947 69.2374 62.3729 69.2374 61.1032C69.2282 54.732 69.2282 48.3562 69.2374 41.985C69.2374 40.697 69.7153 39.6305 71.1676 39.6397C72.6797 39.6536 72.96 40.7939 72.96 42.0635C72.9554 45.2122 72.96 48.3609 72.96 51.5095V51.5049Z" fill="#6D3FFF"/>
</svg>
