<svg width="258" height="65" viewBox="0 0 258 65" fill="none" xmlns="http://www.w3.org/2000/svg">
<g clip-path="url(#clip0_1_2103)">
<path fill-rule="evenodd" clip-rule="evenodd" d="M74.5986 65L92.7779 32.5L74.5986 0L103.346 16.6693L106.539 10.9743L112.81 22.1577L130.648 32.5L121.566 37.7673L135.183 62.0468L107.402 45.9806L74.5986 65ZM99.0109 32.5L89.0652 14.7181L119.734 32.5L89.0652 50.2819L99.0109 32.5Z" fill="#6D3FFF"/>
<path d="M34.2793 16.4688H28.8952V22.3704H26.4678V26.59H28.8952V39.8447C28.8952 44.4272 32.4981 48.1157 36.9332 48.1157H38.2971V42.6009H36.9332C35.4549 42.6009 34.2793 41.397 34.2793 39.8447V26.59H36.7067V22.3704H34.2793V16.4688Z" fill="white"/>
<path d="M73.139 25.2718V23.2148H67.7549V47.9893H73.139V35.5636C73.139 31.7574 76.1339 28.7296 79.8489 28.7296V23.2148C77.3476 23.2148 75.0323 23.9526 73.139 25.2718Z" fill="white"/>
<path d="M63.8393 48.1182V23.3438H58.4552V25.4007C56.5214 24.0815 54.2466 23.3438 51.7429 23.3438C45.0688 23.3438 39.6465 28.897 39.6465 35.731C39.6465 42.565 45.0688 48.1182 51.7429 48.1182C54.2466 48.1182 56.5214 47.3805 58.4552 46.0613V48.1182H63.8393ZM51.7429 28.8585C55.4579 28.8585 58.4552 31.9656 58.4552 35.731C58.4552 39.4964 55.4603 42.6419 51.7429 42.6419C48.0255 42.6419 45.0306 39.5349 45.0306 35.731C45.0306 31.9271 48.0255 28.8585 51.7429 28.8585Z" fill="white"/>
<path d="M150.615 16.4688C142.083 16.4688 135.183 23.5743 135.183 32.3115C135.183 41.0486 142.083 48.1157 150.615 48.1157C159.147 48.1157 165.744 41.3586 166.047 32.893H150.615V38.3669H158.767C156.91 40.9309 153.951 42.6009 150.615 42.6009C145.04 42.6009 140.529 37.98 140.529 32.3115C140.529 26.6429 145.04 21.9835 150.615 21.9835C154.065 21.9835 157.098 23.7305 158.918 26.4098H164.984C162.709 20.585 157.134 16.4688 150.613 16.4688H150.615Z" fill="white"/>
<path d="M174.153 25.4026V23.3457H168.769V48.1202H174.153V35.6945C174.153 31.8882 177.148 28.8605 180.865 28.8605V23.3457C178.364 23.3457 176.051 24.0834 174.153 25.4026Z" fill="white"/>
<path d="M193.192 48.1182C199.866 48.1182 205.289 42.565 205.289 35.731C205.289 28.897 199.866 23.3438 193.192 23.3438C186.518 23.3438 181.096 28.897 181.096 35.731C181.096 42.565 186.518 48.1182 193.192 48.1182ZM193.192 42.6035C189.477 42.6035 186.48 39.4964 186.48 35.731C186.48 31.9656 189.475 28.8201 193.192 28.8201C196.91 28.8201 199.904 31.9271 199.904 35.731C199.904 39.5349 196.91 42.6035 193.192 42.6035Z" fill="white"/>
<path d="M207.983 37.0906C207.983 43.1869 212.8 48.1202 218.752 48.1202C220.724 48.1202 222.543 47.5771 224.136 46.6448V48.1202H229.482V23.3457H224.136V37.093C224.136 40.1207 221.708 42.6078 218.752 42.6078C215.795 42.6078 213.368 40.1232 213.368 37.093V23.3457H207.983V37.093V37.0906Z" fill="white"/>
<path d="M233.418 57.9031H238.802V46.0205C240.698 47.3397 243.011 48.1182 245.514 48.1182C252.189 48.1182 257.608 42.565 257.608 35.731C257.608 28.897 252.189 23.3438 245.514 23.3438C243.011 23.3438 240.698 24.1199 238.802 25.4415V23.3438H233.418V57.9031ZM245.514 28.8561C249.229 28.8561 252.224 31.9247 252.224 35.7286C252.224 39.5325 249.229 42.6011 245.514 42.6011C241.799 42.6011 238.802 39.5325 238.802 35.7286C238.802 31.9247 241.797 28.8561 245.514 28.8561Z" fill="white"/>
<path d="M13.5219 16.4713C17.4897 16.6827 21.033 18.7685 22.6115 21.0825C23.5772 22.4931 24.0041 24.0262 24.0041 24.0262C24.2926 25.0666 24.3641 26.1239 24.376 26.2705C24.3808 26.3931 24.3856 26.4916 24.3927 26.5613H16.0352C15.3341 24.538 14.6379 22.5147 13.9344 20.4866C13.3002 22.5099 12.6707 24.5332 12.0364 26.5613H4.65883C10.0716 28.5413 15.482 30.5238 20.8876 32.5038C21.3048 32.6624 21.6935 32.7729 22.075 32.9531C22.4828 33.155 23.3293 33.5659 24.0136 34.3685C25.5397 36.1491 25.2678 38.653 25.2011 39.2441C25.1868 39.3859 25.1701 39.4988 25.1605 39.5661C24.717 42.5722 22.5853 44.3624 21.5242 45.2515C18.9251 47.4286 16.1425 47.8443 14.8334 48.0197C13.6626 48.1783 10.217 48.5964 6.52826 46.674C5.38371 46.0757 2.4365 44.5402 0.910437 41.0415C0.130715 39.2609 0.00195312 37.6245 0.00195312 36.608H8.76728C8.17354 38.4944 7.57981 40.3759 6.98846 42.2622C9.31094 40.8348 11.6263 39.4147 13.9487 37.9873C16.2593 39.4075 18.577 40.83 20.8876 42.2502C20.2271 40.6907 19.5713 39.1336 18.9108 37.574C12.1008 35.2648 7.00038 33.3641 4.7399 32.4077C4.30593 32.2226 3.4046 31.8262 2.62964 30.913C1.4994 29.5818 1.38018 28.0559 1.31341 27.1572C1.28242 26.7607 1.14888 24.6269 2.35066 22.3008C3.74796 19.5903 6.03944 18.396 7.11245 17.8409C9.73776 16.4665 12.2248 16.3992 13.5243 16.4665L13.5219 16.4713Z" fill="white"/>
</g>
<defs>
<clipPath id="clip0_1_2103">
<rect width="258" height="65" fill="white"/>
</clipPath>
</defs>
</svg>
