<svg width="167" height="42" viewBox="0 0 167 42" fill="none" xmlns="http://www.w3.org/2000/svg">
<g clip-path="url(#clip0_1_2887)">
<path fill-rule="evenodd" clip-rule="evenodd" d="M48.2861 42L60.0533 21L48.2861 0L66.8938 10.7709L68.9605 7.09109L73.0197 14.3173L84.5662 21L78.6872 24.4035L87.5018 40.0918L69.5192 29.7105L48.2861 42ZM64.0879 21L57.6502 9.51017L77.5019 21L57.6502 32.4898L64.0879 21Z" fill="#6D3FFF"/>
<path d="M22.1881 10.6405H18.7031V14.4539H17.1318V17.1804H18.7031V25.745C18.7031 28.7059 21.0352 31.0893 23.906 31.0893H24.7888V27.5259H23.906C22.9491 27.5259 22.1881 26.748 22.1881 25.745V17.1804H23.7594V14.4539H22.1881V10.6405Z" fill="white"/>
<path d="M47.3415 16.3296V15.0005H43.8564V31.0086H47.3415V22.9797C47.3415 20.5203 49.2801 18.5639 51.6848 18.5639V15.0005C50.0657 15.0005 48.567 15.4772 47.3415 16.3296Z" fill="white"/>
<path d="M41.3228 31.0909V15.0828H37.8377V16.4119C36.586 15.5594 35.1136 15.0828 33.4929 15.0828C29.1729 15.0828 25.6631 18.671 25.6631 23.0868C25.6631 27.5027 29.1729 31.0909 33.4929 31.0909C35.1136 31.0909 36.586 30.6142 37.8377 29.7618V31.0909H41.3228ZM33.4929 18.6462C35.8976 18.6462 37.8377 20.6538 37.8377 23.0868C37.8377 25.5199 35.8992 27.5523 33.4929 27.5523C31.0867 27.5523 29.1482 25.5447 29.1482 23.0868C29.1482 20.6289 31.0867 18.6462 33.4929 18.6462Z" fill="white"/>
<path d="M97.4911 10.6405C91.9687 10.6405 87.502 15.2318 87.502 20.8773C87.502 26.5229 91.9687 31.0893 97.4911 31.0893C103.014 31.0893 107.284 26.7232 107.48 21.2531H97.4911V24.7901H102.768C101.566 26.4468 99.6504 27.5259 97.4911 27.5259C93.8825 27.5259 90.9623 24.5401 90.9623 20.8773C90.9623 17.2146 93.8825 14.2039 97.4911 14.2039C99.7244 14.2039 101.688 15.3327 102.865 17.0639H106.792C105.319 13.3002 101.711 10.6405 97.4895 10.6405H97.4911Z" fill="white"/>
<path d="M112.726 16.4133V15.0842H109.241V31.0924H112.726V23.0634C112.726 20.604 114.665 18.6476 117.071 18.6476V15.0842C115.452 15.0842 113.955 15.5609 112.726 16.4133Z" fill="white"/>
<path d="M125.051 31.0909C129.371 31.0909 132.88 27.5027 132.88 23.0868C132.88 18.671 129.371 15.0828 125.051 15.0828C120.73 15.0828 117.221 18.671 117.221 23.0868C117.221 27.5027 120.73 31.0909 125.051 31.0909ZM125.051 27.5275C122.646 27.5275 120.706 25.5199 120.706 23.0868C120.706 20.6538 122.644 18.6213 125.051 18.6213C127.457 18.6213 129.395 20.6289 129.395 23.0868C129.395 25.5447 127.457 27.5275 125.051 27.5275Z" fill="white"/>
<path d="M134.625 23.9656C134.625 27.9047 137.743 31.0924 141.595 31.0924C142.872 31.0924 144.049 30.7415 145.08 30.139V31.0924H148.541V15.0842H145.08V23.9671C145.08 25.9235 143.509 27.5305 141.595 27.5305C139.681 27.5305 138.11 25.925 138.11 23.9671V15.0842H134.625V23.9671V23.9656Z" fill="white"/>
<path d="M151.089 37.4134H154.574V29.7354C155.801 30.5878 157.298 31.0909 158.919 31.0909C163.239 31.0909 166.747 27.5027 166.747 23.0868C166.747 18.671 163.239 15.0828 158.919 15.0828C157.298 15.0828 155.801 15.5843 154.574 16.4383V15.0828H151.089V37.4134ZM158.919 18.6446C161.323 18.6446 163.262 20.6274 163.262 23.0853C163.262 25.5432 161.323 27.5259 158.919 27.5259C156.514 27.5259 154.574 25.5432 154.574 23.0853C154.574 20.6274 156.513 18.6446 158.919 18.6446Z" fill="white"/>
<path d="M8.75325 10.6421C11.3215 10.7787 13.6151 12.1264 14.6368 13.6216C15.2619 14.5331 15.5382 15.5237 15.5382 15.5237C15.725 16.196 15.7713 16.8792 15.779 16.9739C15.7821 17.0531 15.7852 17.1167 15.7898 17.1618H10.38C9.92626 15.8544 9.47558 14.547 9.02026 13.2366C8.60971 14.5439 8.20224 15.8513 7.79169 17.1618H3.01629C6.51989 18.4412 10.022 19.7221 13.5209 21.0015C13.791 21.104 14.0426 21.1754 14.2896 21.2919C14.5535 21.4223 15.1014 21.6878 15.5444 22.2064C16.5322 23.3569 16.3562 24.9748 16.313 25.3568C16.3037 25.4484 16.2929 25.5214 16.2868 25.5649C15.9997 27.5073 14.6199 28.664 13.933 29.2385C12.2507 30.6452 10.4495 30.9138 9.60214 31.0272C8.84431 31.1297 6.61404 31.3998 4.22634 30.1577C3.48549 29.7711 1.5778 28.7789 0.590003 26.5182C0.0852988 25.3677 0.00195312 24.3103 0.00195312 23.6535H5.67563C5.29132 24.8724 4.907 26.0881 4.52423 27.307C6.02754 26.3847 7.52622 25.467 9.02952 24.5447C10.5251 25.4624 12.0253 26.3816 13.5209 27.2992C13.0934 26.2915 12.669 25.2854 12.2414 24.2777C7.83336 22.7856 4.53194 21.5574 3.06876 20.9394C2.78786 20.8199 2.20444 20.5637 1.70282 19.9737C0.971232 19.1135 0.89406 18.1275 0.850844 17.5468C0.830779 17.2906 0.744347 15.9118 1.52224 14.4089C2.42669 12.6574 3.90994 11.8857 4.60449 11.5271C6.30381 10.6389 7.91362 10.5955 8.75479 10.6389L8.75325 10.6421Z" fill="white"/>
</g>
<defs>
<clipPath id="clip0_1_2887">
<rect width="167" height="42" fill="white"/>
</clipPath>
</defs>
</svg>
