<svg width="845" height="271" viewBox="0 0 845 271" fill="none" xmlns="http://www.w3.org/2000/svg">
<path fill-rule="evenodd" clip-rule="evenodd" d="M309.379 270.5L384.771 135.25L309.379 0L428.602 69.3662L441.847 45.6688L467.859 92.2068L541.839 135.25L504.168 157.168L560.641 258.205L445.421 191.347L309.379 270.5ZM410.624 135.249L369.374 61.2473L496.564 135.25L369.374 209.251L410.624 135.249Z" fill="url(#paint0_linear_6_1887)"/>
<path d="M142.165 68.5332H119.834V93.0899H109.77V110.655H119.834V165.815C119.834 184.885 134.774 200.236 153.172 200.236H158.833V177.289H153.172C147.039 177.289 142.165 172.279 142.165 165.815V110.655H152.229V93.0899H142.165V68.5332Z" fill="white"/>
<path d="M303.328 105.174V96.6094H280.997V199.709H303.328V147.997C303.328 132.161 315.75 119.556 331.16 119.556V96.6094C320.782 96.6094 311.189 99.6797 303.328 105.174Z" fill="white"/>
<path d="M264.756 200.241V97.1416H242.426V105.706C234.406 100.212 224.971 97.1416 214.593 97.1416C186.916 97.1416 164.429 120.25 164.429 148.691C164.429 177.295 186.916 200.241 214.593 200.241C224.971 200.241 234.406 197.171 242.426 191.677V200.241H264.756ZM214.593 120.089C230.004 120.089 242.426 133.016 242.426 148.691C242.426 164.528 230.004 177.456 214.593 177.456C199.182 177.456 186.759 164.528 186.759 148.691C186.759 133.016 199.182 120.089 214.593 120.089Z" fill="white"/>
<path d="M56.0762 68.5434C72.5291 69.4228 87.2274 78.1075 93.7742 87.7373C97.7751 93.6076 99.5511 99.9835 99.5511 99.9835C100.749 104.314 101.048 108.712 101.091 109.327C101.113 109.833 101.134 110.251 101.155 110.536C89.6022 110.536 78.049 110.536 66.4956 110.536C63.5859 102.116 60.6976 93.6956 57.7878 85.2529C55.1563 93.6737 52.5461 102.094 49.9145 110.536C39.7092 110.536 29.5036 110.536 19.3196 110.536C41.763 118.781 64.2063 127.026 86.6283 135.271C88.3613 135.931 89.9659 136.392 91.5491 137.14C93.2394 137.975 96.7482 139.69 99.5937 143.032C105.927 150.441 104.792 160.863 104.514 163.325C104.45 163.919 104.386 164.381 104.343 164.667C102.503 177.176 93.6672 184.631 89.2599 188.323C78.4768 197.381 66.9449 199.118 61.5107 199.844C56.6539 200.504 42.3621 202.241 27.0647 194.239C22.3149 191.753 10.0985 185.356 3.76551 170.801C0.534876 163.391 0 156.576 0 152.354C12.1096 152.354 24.2405 152.354 36.35 152.354C33.8896 160.203 31.4293 168.03 28.9688 175.88C38.5966 169.943 48.2028 164.029 57.8306 158.093C67.4156 164.007 77.0219 169.921 86.6069 175.836C83.8683 169.35 81.1511 162.864 78.4125 156.378C50.1712 146.77 29.0115 138.855 19.6406 134.875C17.8434 134.106 14.0993 132.457 10.8901 128.653C6.20455 123.113 5.71247 116.759 5.43431 113.021C5.30595 111.372 4.74969 102.49 9.73473 92.8162C15.5327 81.5372 25.0322 76.5684 29.4823 74.2599C40.3723 68.5434 50.6847 68.2576 56.0762 68.5434Z" fill="white"/>
<path d="M583.176 69V177.015H628.419V200H560.713V69H583.176Z" fill="white"/>
<path d="M646.77 112.56C656.683 102.487 668.6 97.4503 682.521 97.4503C696.441 97.4503 708.306 102.487 718.113 112.56C728.027 122.525 732.983 134.58 732.983 148.725C732.983 151.083 732.825 153.387 732.509 155.637H655.312C656.788 161.852 660.058 166.996 665.12 171.067C670.182 175.139 675.982 177.175 682.521 177.175C689.27 177.175 695.281 174.925 700.554 170.425H728.079C723.966 179.319 717.797 186.498 709.571 191.963C701.451 197.321 692.434 200 682.521 200C668.6 200 656.683 195.017 646.77 185.052C636.962 174.979 632.058 162.87 632.058 148.725C632.058 134.58 636.962 122.525 646.77 112.56ZM656.261 138.599H708.622C706.618 133.134 703.244 128.687 698.498 125.258C693.752 121.829 688.426 120.114 682.521 120.114C676.615 120.114 671.236 121.829 666.385 125.258C661.64 128.687 658.265 133.134 656.261 138.599Z" fill="white"/>
<path d="M844.53 69V200H822.067V191.32C813.525 197.107 804.192 200 794.068 200C780.147 200 768.23 195.017 758.317 185.052C748.509 174.979 743.605 162.87 743.605 148.725C743.605 134.58 748.509 122.525 758.317 112.56C768.23 102.487 780.147 97.4503 794.068 97.4503C804.192 97.4503 813.525 100.344 822.067 106.13V69H844.53ZM774.294 168.817C779.778 174.389 786.369 177.175 794.068 177.175C801.766 177.175 808.358 174.389 813.842 168.817C819.325 163.245 822.067 156.548 822.067 148.725C822.067 140.903 819.325 134.205 813.842 128.633C808.358 123.061 801.766 120.275 794.068 120.275C786.369 120.275 779.778 123.061 774.294 128.633C768.81 134.205 766.068 140.903 766.068 148.725C766.068 156.548 768.81 163.245 774.294 168.817Z" fill="white"/>
<defs>
<linearGradient id="paint0_linear_6_1887" x1="355.792" y1="105.445" x2="512.284" y2="316.801" gradientUnits="userSpaceOnUse">
<stop stop-color="#6D3FFF"/>
<stop offset="1" stop-color="#9878FF"/>
</linearGradient>
</defs>
</svg>
