<svg width="100" height="103" viewBox="0 0 100 103" fill="none" xmlns="http://www.w3.org/2000/svg">
<g clip-path="url(#clip0_1_27)">
<path d="M37.3569 71.8502C41.4638 77.8931 45.3818 83.6615 49.3037 89.4299C50.118 90.6259 50.83 91.8533 51.011 93.3278C51.5027 97.3354 49.6774 100.547 46.082 101.947C42.6045 103.304 38.7455 102.108 36.4246 98.7668C32.1054 92.5435 27.8412 86.281 23.6321 79.9793C22.7706 78.6891 22.2041 78.3087 20.5913 79.0891C14.6631 81.9596 7.90889 79.6459 4.34098 73.7638C0.981559 68.2307 2.31117 61.278 7.49191 57.286C7.80268 57.0468 8.10951 56.788 8.45961 56.6194C14.8795 53.4744 18.7385 48.2668 21.5079 41.7768C24.5722 34.5928 28.3368 27.699 31.8025 20.6835C33.9228 16.3935 37.2704 14.8053 41.9712 15.8602C46.2275 16.817 49.8623 19.013 53.1155 21.7972C62.8043 30.091 69.594 40.2632 72.7842 52.6745C73.6536 56.0508 73.9054 59.5095 73.0203 62.9407C71.9424 67.1209 69.354 69.1405 65.078 69.462C56.589 70.0973 48.1079 70.8032 39.6228 71.4933C38.9776 71.5443 38.3364 71.6894 37.353 71.8462L37.3569 71.8502ZM69.4091 57.8899C69.4091 57.1723 69.4838 56.4469 69.3934 55.741C69.2596 54.7097 69.0787 53.6744 68.7994 52.6745C65.676 41.5259 59.3505 32.4321 50.6805 24.8912C48.0567 22.609 45.1261 20.7541 41.6998 19.8404C37.8998 18.8248 35.4766 20.4169 34.741 24.2481C34.3083 26.4951 34.5915 28.6872 35.0675 30.8439C37.294 40.8749 42.5967 49.2354 49.5319 56.639C52.9031 60.2389 56.6992 63.3525 61.4315 65.0544C65.4871 66.5092 68.1739 64.9799 69.236 60.8075C69.4838 59.8389 69.4524 58.8664 69.413 57.8939L69.4091 57.8899ZM31.0433 31.4321C30.8702 31.5655 30.7246 31.6204 30.6735 31.7223C27.4714 38.2044 24.3008 44.7022 21.0594 51.1647C20.607 52.0627 20.9453 52.596 21.4016 53.2627C24.5329 57.839 27.676 62.4113 30.7482 67.0268C31.3698 67.964 32.0188 68.2974 33.1439 68.1954C38.1594 67.7484 43.1828 67.3954 48.2023 66.9915C50.3344 66.819 52.4664 66.6033 54.9172 66.3759C42.7147 57.3605 34.8275 45.8316 31.0433 31.4321ZM6.47307 68.0425C6.59108 70.7914 8.19999 73.5638 11.3312 75.3324C14.4074 77.0696 17.4876 76.7559 20.4064 74.854C22.5385 73.4658 24.6076 71.9796 26.7397 70.5875C27.5855 70.0385 27.8845 69.6228 27.1921 68.6346C24.2693 64.474 21.4174 60.2663 18.5969 56.0351C18.0304 55.1842 17.6213 55.0744 16.7834 55.6743C14.5569 57.2664 12.2242 58.7213 10.0095 60.3291C7.70827 61.9996 6.48487 64.2936 6.47307 68.0386V68.0425ZM47.207 94.5552C47.2031 93.5356 46.8097 92.6729 46.2433 91.8415C42.0184 85.6418 37.7896 79.442 33.6081 73.2109C32.7584 71.9443 31.8261 71.8463 30.6538 72.6345C29.4068 73.4736 28.2188 74.4148 26.9089 75.1402C25.7052 75.8069 25.8192 76.3872 26.5155 77.399C30.8544 83.6811 35.1304 90.0063 39.4339 96.312C39.725 96.7394 40.0358 97.1747 40.4134 97.5276C41.6998 98.7236 43.2418 98.9079 44.7917 98.2648C46.3731 97.606 47.1795 96.2963 47.207 94.5591V94.5552Z" fill="#DCDFEE" fill-opacity="0.5"/>
<path d="M92.162 18.9975C92.0479 19.8758 91.564 20.4366 90.8678 20.8915C86.6586 23.6286 82.4535 26.3776 78.2601 29.1382C77.139 29.8755 75.9943 30.0872 75.1564 28.8951C74.2359 27.5893 74.9243 26.5932 76.1162 25.8168C80.3253 23.0757 84.5226 20.3229 88.7239 17.5701C89.4673 17.0838 90.2266 16.8054 91.1038 17.276C91.8197 17.6602 92.0479 18.3073 92.162 18.9975Z" fill="#DCDFEE" fill-opacity="0.5"/>
<path d="M94.5929 45.1768C89.9314 44.3219 84.786 43.3886 79.6485 42.4357C78.4094 42.2044 77.8351 41.3926 78.0593 40.1692C78.2914 38.9065 79.2119 38.479 80.4038 38.6869C85.4902 39.5731 90.5765 40.4868 95.6589 41.3926C96.9531 41.624 97.6926 42.3416 97.4566 43.7024C97.2324 45.0004 96.245 45.2748 94.5968 45.1807L94.5929 45.1768Z" fill="#DCDFEE" fill-opacity="0.5"/>
<path d="M70.3374 4.98217C69.8496 9.89178 69.4366 14.2328 68.9763 18.5738C68.8426 19.8365 68.343 20.9227 66.8049 20.8051C65.2353 20.6874 64.9796 19.5659 65.1055 18.2679C65.5186 13.9269 65.9434 9.58199 66.3604 5.24098C66.4941 3.87241 66.7892 2.42149 68.4885 2.50384C70.3335 2.59403 70.4987 4.04887 70.3374 4.98217Z" fill="#DCDFEE" fill-opacity="0.5"/>
<path d="M48.3754 34.5183C53.1982 34.5261 57.1044 37.2907 58.5874 41.6043C60.0036 45.7139 58.6779 50.3882 55.3421 53.0822C54.2996 53.9254 53.1549 54.5371 52.0574 53.3528C50.9559 52.1725 51.5185 51.1215 52.6396 50.2118C54.6064 48.6079 55.5781 46.5217 55.1414 44.0002C54.3468 39.3651 49.6775 37.0907 45.4133 39.2436C44.0876 39.9141 42.8209 40.271 42.0696 38.7416C41.3261 37.228 42.404 36.3339 43.6864 35.7065C45.2323 34.9535 46.8294 34.4242 48.3754 34.5222V34.5183Z" fill="#DCDFEE" fill-opacity="0.5"/>
</g>
<defs>
<clipPath id="clip0_1_27">
<rect width="95" height="100" fill="white" transform="translate(2.5 2.5)"/>
</clipPath>
</defs>
</svg>
