<svg width="100" height="100" viewBox="0 0 100 100" fill="none" xmlns="http://www.w3.org/2000/svg">
<g clip-path="url(#clip0_1_42)">
<path d="M73.5648 18.5072C72.0719 18.5072 70.6251 18.5319 69.1818 18.5001C67.2007 18.4576 66.143 17.4026 66.0687 15.452C66.0652 15.3351 66.0687 15.2148 66.0687 15.098C66.0121 10.5169 66.5109 10.0001 71.0319 10.0001C75.3371 10.0001 79.6387 9.98946 83.9439 10.0001C87.064 10.0107 88.7054 11.6711 88.7125 14.8254C88.7231 19.6046 88.7231 24.3839 88.7125 29.1631C88.7054 31.6767 87.7079 32.6431 85.1573 32.6608C84.4498 32.6644 83.7387 32.6962 83.0348 32.6538C81.3792 32.5546 80.3215 31.4997 80.226 29.8393C80.1835 29.0746 80.2153 28.3064 80.2153 27.5382C80.2153 26.7806 80.2153 26.0194 80.2153 25.145C79.4088 25.3079 79.0798 25.9097 78.6553 26.3345C73.0164 31.9563 67.3953 37.5923 61.7635 43.2212C58.1482 46.8322 54.2215 46.8499 50.6203 43.2673C48.1511 40.8139 45.6571 38.3889 43.2622 35.8647C42.3424 34.8947 41.8189 34.7956 40.8072 35.8222C33.9372 42.7964 26.9931 49.6998 20.0736 56.6244C19.7411 56.9572 19.4121 57.297 19.069 57.6192C18.4251 58.2281 17.7141 58.3803 17.0349 57.7219C16.2849 56.9961 16.4547 56.2527 17.1339 55.5623C17.3391 55.3535 17.5443 55.1411 17.753 54.9322C25.2561 47.4234 32.7592 39.9112 40.2659 32.406C41.8932 30.7775 42.1479 30.7845 43.8282 32.4626C46.7502 35.3797 49.6581 38.311 52.5872 41.221C55.0457 43.6638 57.3168 43.6496 59.7967 41.175C66.472 34.5088 73.1367 27.8249 79.8156 21.1588C80.4559 20.518 81.0184 19.548 82.1681 20.0401C83.293 20.5215 83.0489 21.58 83.0524 22.504C83.0631 24.568 83.1197 26.6354 83.0312 28.6994C82.9782 29.9066 83.6609 29.8322 84.471 29.8358C85.2917 29.8393 85.9179 29.8853 85.9037 28.6923C85.84 24.0334 85.8683 19.371 85.8825 14.7085C85.886 13.3491 85.2103 12.8252 83.905 12.8287C79.3062 12.8499 74.7074 12.8889 70.1121 12.8039C68.782 12.7791 68.9447 13.5013 68.8917 14.3474C68.8315 15.3033 69.0792 15.7175 70.1369 15.6821C72.3762 15.6077 74.6154 15.6821 76.8582 15.6502C77.6931 15.6396 78.4147 15.7954 78.7331 16.6415C79.0338 17.438 78.5173 17.9726 78.0008 18.4859C71.2052 25.2831 64.399 32.0732 57.6281 38.8951C56.5386 39.9926 55.7002 39.897 54.6637 38.8349C51.6992 35.7975 48.6782 32.8095 45.6677 29.8145C43.1313 27.2904 40.8956 27.301 38.3344 29.8641C30.8242 37.3693 23.3246 44.8816 15.8215 52.3868C15.5314 52.6771 15.2307 52.9638 14.9407 53.2577C14.2791 53.9303 13.5433 54.2135 12.7828 53.4807C11.9444 52.67 12.2769 51.8982 13.0056 51.1973C13.2179 50.992 13.4195 50.7795 13.6282 50.5707C21.2163 42.977 28.7972 35.3833 36.3888 27.7931C40.0784 24.1042 43.9662 24.1077 47.6594 27.7931C50.2064 30.3349 52.757 32.8697 55.2792 35.4364C55.8488 36.0169 56.2237 36.3072 56.9596 35.5603C62.4286 30.0199 67.9436 24.5255 73.441 19.0134C73.5082 18.9461 73.4976 18.8081 73.5754 18.5001L73.5648 18.5072Z" fill="#DCDFEE" fill-opacity="0.5"/>
<path d="M92.9576 72.3675C92.9576 77.6778 92.8692 82.9881 92.9965 88.2948C93.0531 90.6632 91.9813 92.1076 90.0321 93.0387C85.9144 95.0106 81.5243 95.2442 77.0741 94.8159C74.6685 94.5857 72.309 94.0901 70.1511 92.9006C68.3505 91.9094 67.4307 90.5499 67.4449 88.3621C67.5192 77.6849 67.5298 67.0077 67.4378 56.3304C67.4166 53.9656 68.4496 52.5212 70.4023 51.5866C74.52 49.6182 78.9101 49.3775 83.3567 49.8059C85.7623 50.0395 88.1254 50.521 90.2833 51.7176C92.0768 52.7124 93.0319 54.0683 92.9895 56.2596C92.8833 61.6266 92.9541 66.997 92.9541 72.364L92.9576 72.3675ZM80.2119 66.6501C82.1045 66.6713 83.9687 66.4554 85.8083 66.0129C89.933 65.0216 90.1807 64.6463 90.1488 60.4831C90.1382 59.2653 89.8764 59.1484 88.7692 59.5449C83.0844 61.5805 77.3606 61.5841 71.6758 59.5485C70.6004 59.1626 70.1547 59.2157 70.3068 60.4725C70.3704 60.9964 70.3952 61.5451 70.3068 62.0585C69.9742 63.9454 70.9506 64.8623 72.592 65.4287C75.0683 66.2819 77.6118 66.6359 80.2154 66.6501H80.2119ZM90.1205 67.8785C89.5474 67.6166 89.2008 67.9316 88.8258 68.0626C83.1233 70.0381 77.4243 70.0558 71.7041 68.1051C71.3114 67.9706 70.7808 67.2909 70.3669 68.0485C69.4012 69.815 70.6393 73.203 72.5566 73.8827C77.2474 75.5501 82.0231 75.5572 86.7882 74.2686C89.933 73.4189 90.1205 73.0578 90.1205 69.7336C90.1205 69.0928 90.1205 68.4556 90.1205 67.8785ZM90.1205 76.3502C89.4059 76.1343 88.9567 76.5166 88.4756 76.6759C83.3001 78.4212 78.0964 78.4956 72.8679 76.9485C70.3103 76.1909 70.4836 76.1767 70.2679 78.8496C70.0945 80.9985 71.0567 81.9685 72.8927 82.5456C74.3572 83.0058 75.8501 83.3315 77.3712 83.4837C81.0998 83.859 84.7788 83.6572 88.2916 82.2022C89.1265 81.8552 90.1241 81.5543 90.1205 80.3329C90.1205 78.9912 90.1205 77.653 90.1205 76.3502ZM70.3209 84.6838C70.3209 85.891 70.42 86.9566 70.2962 88.001C70.1264 89.4383 70.8339 90.1711 72.0295 90.6845C73.724 91.4102 75.5034 91.7819 77.3182 91.9731C81.1104 92.3731 84.8425 92.143 88.4084 90.6597C89.1336 90.3588 90.0533 90.0649 90.0958 89.0595C90.1559 87.6293 90.1099 86.1955 90.1099 84.6874C83.2188 87.0735 77.6224 87.1974 70.3209 84.6838ZM80.0951 58.1536C82.582 58.1607 85.0371 57.8987 87.3895 57.0668C88.4048 56.7092 89.9436 56.4897 89.933 55.2684C89.9224 54.1992 88.4296 53.962 87.4674 53.5832C86.1479 53.0628 84.747 52.861 83.3426 52.6805C80.0881 52.2592 76.8654 52.4433 73.724 53.3531C72.4823 53.7142 70.5473 53.9337 70.5509 55.3675C70.5509 56.6278 72.4434 56.8862 73.6497 57.2615C75.7404 57.9094 77.9054 58.1572 80.0951 58.1536Z" fill="#DCDFEE" fill-opacity="0.5"/>
<path d="M37.765 76.5627C37.765 72.6119 37.8569 68.6539 37.7296 64.7066C37.6553 62.402 38.7626 61.0213 40.641 60.115C44.8082 58.1006 49.2549 57.8776 53.7653 58.3201C55.9974 58.5396 58.1907 58.9998 60.2177 60.0159C62.2094 61.0142 63.3237 62.4338 63.2883 64.8801C63.1716 72.665 63.1751 80.4534 63.2883 88.2383C63.3237 90.6846 62.2377 92.1608 60.2177 93.0954C56.0859 95.0107 51.6993 95.2549 47.2491 94.8018C44.84 94.554 42.484 94.0584 40.3368 92.8476C38.614 91.8741 37.6765 90.5394 37.7367 88.4224C37.8499 84.4715 37.7685 80.5171 37.7685 76.5663L37.765 76.5627ZM60.4052 67.5813C53.6662 70.2222 47.189 70.116 40.6021 67.6273C40.6021 68.9018 40.7011 69.9674 40.5773 71.0117C40.4075 72.449 41.1186 73.1818 42.3142 73.6916C44.0087 74.4174 45.7881 74.7926 47.6029 74.9803C51.3951 75.3768 55.1201 75.129 58.7001 73.681C59.91 73.1925 60.5927 72.4278 60.4264 70.9975C60.3062 69.9567 60.4017 68.8876 60.4017 67.5813H60.4052ZM40.6021 76.0813C40.6021 77.0548 40.6021 77.8053 40.6021 78.5559C40.6021 81.5332 40.7117 81.7314 43.5807 82.6271C47.7196 83.9228 51.9151 83.9759 56.1213 82.9917C60.2177 82.0359 60.4689 81.611 60.4371 77.4442C60.4264 76.1237 60.0232 76.1698 59.0256 76.5556C56.3087 77.6071 53.4787 77.9717 50.5638 78.0107C47.1677 78.0567 43.9415 77.3486 40.6021 76.0777V76.0813ZM50.4824 92.1396C52.375 92.1608 54.2393 91.9484 56.0788 91.5059C60.2213 90.5075 60.4654 90.1464 60.4335 85.9903C60.4264 84.8078 60.2107 84.6237 59.068 85.0344C53.3867 87.0736 47.663 87.0736 41.9746 85.045C40.9417 84.6768 40.4323 84.6521 40.5915 85.9513C40.6551 86.4753 40.6764 87.024 40.5915 87.5373C40.266 89.4172 41.2141 90.3482 42.8626 90.9182C45.3388 91.7749 47.8823 92.1254 50.486 92.1431L50.4824 92.1396ZM50.3834 66.6679C53.4858 66.5759 56.5352 66.3422 59.3121 64.8447C60.6918 64.1013 60.6811 63.5631 59.3298 62.7843C57.508 61.7364 55.4739 61.3576 53.4221 61.1523C49.453 60.7593 45.544 60.9363 41.8579 62.7029C41.3379 62.9542 40.6622 63.2056 40.7223 63.8888C40.7683 64.434 41.3662 64.6748 41.8437 64.919C44.5394 66.2962 47.4578 66.5546 50.3869 66.6644L50.3834 66.6679Z" fill="#DCDFEE" fill-opacity="0.5"/>
<path d="M8.04958 80.6765C8.04958 78.2586 8.17694 75.83 8.01421 73.4227C7.84441 70.8844 9.11085 69.4081 11.198 68.4629C15.2874 66.6114 19.6138 66.3706 24.0039 66.8061C26.2927 67.0326 28.5426 67.4999 30.6156 68.5691C32.5364 69.5639 33.6295 70.9622 33.5659 73.3306C33.435 78.2834 33.4208 83.2432 33.5659 88.1924C33.6401 90.7236 32.4621 92.2105 30.375 93.1522C26.2856 95.0002 21.9557 95.2515 17.5656 94.8019C15.16 94.5576 12.8005 94.0691 10.6497 92.8583C8.93043 91.8919 7.9187 90.5855 8.01421 88.4579C8.13449 85.8665 8.04251 83.268 8.04251 80.673L8.04958 80.6765ZM10.8867 76.0814C10.8867 77.0549 10.8867 77.809 10.8867 78.563C10.8867 81.5368 10.9964 81.7315 13.8688 82.6307C18.0078 83.9264 22.2033 83.976 26.4094 82.9918C30.5023 82.036 30.7181 81.6961 30.7075 77.6178C30.7075 76.4956 30.6262 76.007 29.2996 76.5451C26.604 77.6426 23.7598 77.9718 20.8413 78.0108C17.4453 78.0568 14.2191 77.3452 10.8867 76.0814ZM20.7706 92.1361C22.6632 92.1715 24.5274 91.945 26.367 91.5024C30.5059 90.5076 30.75 90.143 30.7181 85.9833C30.7075 84.7938 30.4847 84.6238 29.3526 85.031C23.6714 87.0666 17.9476 87.0701 12.2593 85.0381C11.2192 84.6663 10.7204 84.6557 10.8796 85.9479C10.9433 86.4718 10.9645 87.0206 10.8796 87.5339C10.5506 89.4137 11.5058 90.3413 13.1543 90.9112C15.6305 91.768 18.174 92.1184 20.7777 92.1326L20.7706 92.1361ZM20.668 75.1645C23.7704 75.0724 26.8198 74.8388 29.5967 73.3413C30.9764 72.5978 30.9658 72.0597 29.6144 71.2809C27.7926 70.233 25.7585 69.8542 23.7067 69.6488C19.7376 69.2559 15.8286 69.4329 12.1425 71.1994C11.6225 71.4473 10.9468 71.6986 11.007 72.3854C11.053 72.9306 11.6508 73.1713 12.1248 73.4156C14.8204 74.7927 17.7389 75.0512 20.668 75.1609V75.1645Z" fill="#DCDFEE" fill-opacity="0.5"/>
</g>
<defs>
<clipPath id="clip0_1_42">
<rect width="85" height="85" fill="white" transform="translate(8 10)"/>
</clipPath>
</defs>
</svg>
