<svg width="100" height="100" viewBox="0 0 100 100" fill="none" xmlns="http://www.w3.org/2000/svg">
<g clip-path="url(#clip0_1_56)">
<path d="M29.3472 58.1032C29.0541 57.7071 28.9993 57.544 28.9016 57.5168C26.317 56.7894 25.0247 55.055 25.0247 52.3135C25.0247 51.4087 25.0208 50.5001 25.0247 49.5953C25.0403 46.9548 25.4507 46.4694 28.0497 46.0928C29.4879 45.8831 29.6911 45.2968 28.7961 44.159C27.2524 42.1903 27.2915 41.5612 29.1283 39.7129C29.8123 39.0256 30.164 38.3421 30.1562 37.3442C30.1132 31.7137 30.0936 26.0832 30.164 20.4527C30.1835 19.0665 29.7185 18.7092 28.3818 18.7054C27.2328 18.7054 25.5797 19.4276 25.0208 18.0646C24.4189 16.5968 26.1776 15.9406 27.014 15.0669C29.7145 12.2594 32.5441 9.58009 35.2681 6.79203C36.2412 5.79796 36.9721 5.68923 38.0038 6.74543C41.1773 9.99558 44.4328 13.1719 47.6571 16.3755C48.1144 16.8298 48.6889 17.2725 48.4192 18.0219C48.0987 18.9112 47.2741 18.7209 46.5863 18.7442C44.296 18.8244 43.1509 20.0114 43.1509 22.305C43.1509 25.2173 43.1939 28.1296 43.1314 31.0419C43.104 32.2302 43.5222 32.6845 44.7103 32.568C45.4841 32.4903 46.2736 32.5408 47.0552 32.5563C49.1579 32.6029 49.834 33.2203 50.0059 35.3017C50.0528 35.888 49.9708 36.4394 50.7133 36.7035C51.3894 36.9442 51.5966 36.3268 52.0343 36.1482C54.0236 35.3327 54.0587 33.729 54.0001 31.9389C53.9024 29.0305 53.922 26.1143 54.0001 23.202C54.0314 22.0293 53.6914 21.672 52.4759 21.6254C51.2214 21.575 49.3963 22.4719 48.8217 20.81C48.3371 19.4004 50.0958 18.7325 50.9478 17.8511C53.6015 15.0941 56.3919 12.4613 59.0651 9.716C60.1125 8.64038 60.8942 8.5899 61.9689 9.69658C65.0955 12.904 68.3041 16.0299 71.4854 19.183C72.0052 19.6955 72.5914 20.2042 72.2123 21.008C71.8841 21.707 71.161 21.641 70.5084 21.672C68.1556 21.773 66.9793 22.9806 66.9793 25.295C66.9793 30.9914 66.9714 36.6841 66.991 42.3806C66.991 43.0562 66.7565 43.7901 67.2294 44.4036C67.6046 44.4269 67.7257 44.1901 67.7687 43.9493C68.3393 40.5943 68.5425 40.4196 72.0247 40.4157C73.7704 40.4157 74.6432 39.5718 74.6432 37.8839C74.6432 35.5541 74.5924 33.2242 74.6667 30.8944C74.7019 29.7955 74.3619 29.3683 73.2402 29.477C72.3999 29.5547 71.5479 29.477 70.6999 29.4926C70.1254 29.5042 69.6876 29.3023 69.4062 28.7975C69.078 28.2112 69.4414 27.7995 69.8088 27.4345C73.2558 23.9941 76.7107 20.5654 80.1655 17.1327C80.8612 16.4415 81.5373 16.5153 82.2017 17.1754C85.6136 20.5615 89.0215 23.9436 92.4295 27.3297C92.8672 27.7646 93.2033 28.2694 92.875 28.8829C92.6053 29.3838 92.0816 29.4537 91.5306 29.5042C90.2643 29.6246 88.5056 28.8674 87.853 29.877C87.2237 30.8555 87.6107 32.4981 87.6028 33.8455C87.5872 37.4684 87.638 41.0952 87.5755 44.7182C87.5559 45.9646 87.853 46.9044 88.7988 47.7936C90.4988 49.3934 90.4871 50.2982 89.0411 52.1116C88.7245 52.5077 88.2946 52.7833 88.6033 53.4396C88.9082 54.0958 89.4241 53.9327 89.9126 53.9832C92.0465 54.2046 92.6679 54.8297 92.7109 56.9111C92.746 58.7866 92.7265 60.666 92.7109 62.5416C92.6991 64.2501 91.8667 65.1821 90.1002 65.2403C89.5687 65.2597 88.9707 65.0267 88.6112 65.7917C88.2047 66.6615 88.8886 66.9527 89.2795 67.4032C90.4246 68.7196 90.3112 69.9816 89.127 71.1853C87.8061 72.5289 86.4695 73.853 85.125 75.1694C83.8392 76.4236 82.5183 76.4818 81.1778 75.2393C80.7596 74.8509 80.3883 74.319 79.6809 74.6723C79.1103 74.9597 79.1728 75.4917 79.1064 76.0081C78.825 78.1865 78.1528 78.7768 75.9564 78.8001C74.2641 78.8195 72.568 78.7768 70.8757 78.8117C68.992 78.8466 67.9055 78.0467 67.8273 76.1052C67.8039 75.5266 67.8703 74.917 67.1668 74.6374C66.4321 74.3461 66.1077 74.9403 65.6895 75.3092C64.392 76.4547 63.1101 76.4158 61.8869 75.2354C60.4838 73.8841 59.0964 72.5172 57.7442 71.1154C56.5639 69.8884 56.5326 68.5914 57.7364 67.3449C58.2952 66.7664 58.944 66.246 58.0686 65.3879C57.4432 65.5587 57.1189 66.1412 56.6811 66.5644C54.5121 68.673 54.2346 68.6963 51.7529 67.0032C50.7211 66.2965 50.1193 66.4363 49.9981 67.842C49.7871 70.2456 49.1969 70.7854 46.8637 70.8242C44.9761 70.8591 43.0845 70.8552 41.1968 70.797C39.6648 70.7504 38.805 69.8961 38.6917 68.3701C38.637 67.6206 38.8676 66.6071 37.7381 66.646C36.8822 66.6732 36.0771 67.4109 36.0068 68.238C35.8504 70.1019 35.9247 71.9852 35.952 73.8646C35.9638 74.8005 36.7415 74.5481 37.2652 74.5519C39.6766 74.5752 42.084 74.5481 44.4954 74.5675C48.5677 74.5986 51.0416 77.406 50.3928 81.4134C49.7089 85.6188 48.9273 89.8125 48.0792 93.9868C47.407 97.2952 45.277 98.9533 41.8573 98.9649C35.995 98.9882 30.1327 98.9727 24.2704 98.9727C23.946 98.9727 23.5787 99.0542 23.3012 98.9378C19.1311 97.2292 14.8204 98.7164 10.5839 98.3747C7.75826 98.1495 7.0118 97.5826 7.00789 94.7673C7.00007 89.5912 6.99616 84.4111 7.00789 79.235C7.0157 76.7537 7.91459 75.8334 10.3924 75.7829C12.0182 75.7479 13.7026 75.515 15.2659 75.8295C18.3456 76.4547 20.2567 74.6956 22.2303 72.9444C24.4619 70.964 24.7785 68.44 24.2743 65.6597C24.032 64.3278 23.8952 62.9454 24.247 61.6057C24.8957 59.1128 26.7013 58.1109 29.3472 58.1032ZM32.8685 96.371C35.7996 96.371 38.7308 96.3827 41.658 96.371C44.3234 96.3555 45.2301 95.5983 45.7304 92.9617C46.4612 89.0902 47.1529 85.2149 47.8838 81.3435C48.3723 78.7535 47.1647 77.1808 44.5305 77.1459C41.5994 77.1031 38.6682 77.0721 35.741 77.1575C33.9667 77.208 33.2984 76.5129 33.3335 74.7578C33.3961 71.7833 33.3961 68.8011 33.228 65.8344C33.0951 63.4618 31.8601 61.6756 29.523 60.8524C27.9715 60.3049 26.7951 61.0504 26.5958 62.6697C26.5176 63.3026 26.5059 63.9822 26.6505 64.5996C27.8113 69.6476 26.4356 73.6588 21.8825 76.4236C20.6592 77.1653 20.2215 78.2137 20.2528 79.6699C20.3427 84.0034 20.2801 88.3408 20.288 92.6743C20.2919 95.3265 21.2337 96.3244 23.8796 96.3633C26.8733 96.406 29.8709 96.3749 32.8646 96.3749L32.8685 96.371ZM35.6863 64.4171C37.7107 63.2988 41.2047 64.487 41.146 66.3392C41.0874 68.2147 41.8769 68.5254 43.4245 68.3429C44.0655 68.2652 44.7299 68.2691 45.3747 68.3429C46.8364 68.5099 47.7861 68.2419 47.532 66.4479C47.3913 65.4694 47.9698 64.8559 48.9273 64.6695C50.1036 64.4443 51.2566 62.8328 52.4447 64.2035C53.7852 65.7529 54.6684 65.3607 55.7002 64.0016C56.1262 63.4385 56.6538 62.926 57.2166 62.495C58.2757 61.6795 58.4047 60.9495 57.2596 60.0991C56.5014 59.536 56.1731 58.7245 56.728 57.8896C57.4315 56.8295 57.1384 54.7715 58.9362 54.8453C61.0622 54.9346 61.2811 53.9599 61.0974 52.329C61.0232 51.6922 61.0232 51.0282 61.0974 50.3914C61.2655 49.0168 60.8629 48.2867 59.3153 48.5352C58.3148 48.6945 57.6621 48.1741 57.4628 47.2305C57.2048 46.0112 55.5751 44.7881 57.0485 43.5532C58.4945 42.3417 58.1702 41.5418 56.9235 40.571C56.3646 40.1361 55.8487 39.6197 55.4071 39.0644C54.5199 37.9577 53.7148 37.6044 52.7182 38.9673C52.1437 39.7556 51.2956 39.8449 50.4632 39.3168C49.4041 38.6411 47.4148 38.9091 47.5633 36.9986C47.7079 35.1075 46.8325 34.8008 45.277 34.9755C44.5696 35.0532 43.8388 35.057 43.1314 34.9755C41.7557 34.8163 41.0132 35.2046 41.2125 36.7423C41.3493 37.8024 40.7787 38.4975 39.7586 38.7149C38.5823 38.9673 37.3746 40.4856 36.2178 39.1226C34.9164 37.5927 34.0761 38.082 33.0795 39.309C32.634 39.8604 32.1259 40.3846 31.5592 40.8118C30.4219 41.6738 30.2812 42.4427 31.5201 43.3436C32.2979 43.9105 32.5128 44.757 31.9539 45.5647C31.2427 46.5937 31.567 48.6401 29.6559 48.4848C27.7292 48.3294 27.4712 49.1915 27.6237 50.7175C27.7057 51.5485 27.7018 52.4028 27.6237 53.2377C27.5181 54.3948 27.8894 54.9385 29.1322 54.7676C30.3828 54.5929 30.9026 55.3035 31.4029 56.3869C31.9344 57.5362 31.8875 58.9536 32.8841 59.8583C34.2246 61.0737 35.061 62.5687 35.6902 64.4171H35.6863ZM63.8957 45.8559C63.3876 46.0501 62.8209 46.3064 63.114 46.9277C64.2279 49.2886 63.5205 51.7699 63.6377 54.1851C63.7394 56.3092 62.989 57.0237 60.816 57.3266C60.3119 57.3965 59.753 57.28 59.4833 57.8896C59.1707 58.5925 59.6748 58.973 60.0852 59.3768C60.7848 60.0603 61.3475 61.0155 60.8473 61.7999C59.8976 63.2832 60.5424 64.4948 61.0974 65.7645C61.414 66.4907 61.539 67.2246 60.8746 67.7022C59.1902 68.9215 59.7139 69.8845 61.0661 70.9018C61.6289 71.329 62.1448 71.8493 62.5825 72.4085C63.4033 73.4569 64.138 73.5851 65.0017 72.4512C65.6387 71.6202 66.5142 71.4299 67.417 72.0124C68.4292 72.6648 70.395 72.3968 70.2621 74.1481C70.1019 76.2993 71.1806 76.4508 72.7947 76.2916C73.4395 76.2294 74.1039 76.2139 74.7449 76.2916C76.1557 76.4663 76.8357 76.0081 76.5973 74.4976C76.441 73.5035 76.9803 72.8395 77.9105 72.6492C79.1455 72.393 80.4039 70.7737 81.6272 72.2182C82.9755 73.8103 83.7963 73.1657 84.7694 71.9697C85.1368 71.5193 85.5549 71.0999 86.0083 70.7349C87.1729 69.8029 87.7084 69.0457 86.1803 67.7954C84.9609 66.7974 86.4226 62.7435 87.9546 62.8677C90.405 63.0697 90.4167 61.7688 90.2526 60.0758C90.2018 59.5632 90.194 59.0351 90.2526 58.5264C90.4089 57.1557 90.1354 56.4179 88.4353 56.4762C86.6571 56.5344 84.7459 52.7562 86.0161 51.6844C87.935 50.0613 86.8486 49.1915 85.6175 48.1314C85.2736 47.8363 84.9374 47.5218 84.6561 47.1684C83.722 46.0074 82.9404 45.4831 81.6702 46.9859C80.6423 48.2052 76.5348 46.7646 76.6794 45.2307C76.9217 42.6601 75.4132 42.9514 73.8421 43.0096C73.2558 43.0329 72.6657 43.0717 72.0873 43.0018C70.8054 42.8465 70.0863 43.1921 70.3169 44.6444C70.4341 45.4016 70.227 46.1316 69.4492 46.4112C67.7414 47.0286 65.9553 48.644 64.3529 46.2093C64.2513 46.0578 64.0559 45.9685 63.8918 45.8404L63.8957 45.8559ZM52.429 19.2917C56.7359 19.5402 56.1965 19.6295 56.22 22.9457C56.2434 26.1143 56.4193 29.2984 56.1692 32.4476C55.9425 35.2823 56.8218 37.3054 58.9753 39.1615C61.5977 41.4214 61.4882 41.5806 59.667 44.4153C59.3817 44.858 59.2254 45.2851 59.624 45.619C60.1516 46.0617 60.4057 45.4249 60.7066 45.1647C61.5781 44.4075 62.2386 43.1844 63.4892 43.1844C64.8532 43.1844 64.861 42.5281 64.8571 41.534C64.8297 35.259 64.8415 28.9878 64.8454 22.7127C64.8454 19.447 64.5366 19.4548 67.9368 19.3694C68.011 19.3694 68.0814 19.2063 68.269 18.9772C65.924 16.6823 63.5596 14.3835 61.2225 12.0575C60.6871 11.5255 60.308 11.5216 59.7725 12.0575C57.4432 14.3874 55.0827 16.6823 52.429 19.2956V19.2917ZM32.3917 35.9618C33.9862 35.2965 35.53 35.457 37.0229 36.4433C38.0312 37.1034 38.6331 36.7501 38.6565 35.6084C38.68 34.4396 38.8441 33.2902 40.0244 32.8553C41.021 32.4864 41.0171 31.869 41.0132 31.073C40.9975 27.3918 41.0053 23.7107 41.0053 20.0295C41.0053 17.8834 42.0488 16.7392 44.1358 16.5968C44.2179 16.593 44.2843 16.4299 44.597 16.0648C43.3385 14.9116 42.0527 13.7466 40.7826 12.5623C39.4147 11.2848 38.1015 9.02092 36.6946 8.96268C35.0805 8.89667 33.9041 11.3314 32.4933 12.64C31.2153 13.8282 30.0077 15.0941 28.5499 16.5464C31.1137 16.6913 32.3956 17.9274 32.3956 20.2547C32.3956 25.4697 32.3956 30.6886 32.3956 35.9618H32.3917ZM85.5002 44.3415C85.5002 39.1304 85.5745 34.4124 85.4611 29.6945C85.4182 27.8306 86.0161 27.0307 87.8999 27.252C88.1852 27.287 88.5486 27.3608 88.9082 26.7589C86.5594 24.4679 84.1558 22.1302 81.764 19.781C81.3849 19.4082 81.0488 19.2762 80.6111 19.7111C78.2075 22.1147 75.7923 24.5067 73.2167 27.0656C77.0155 27.5277 76.8397 26.9336 76.8592 30.8245C76.8709 33.5426 76.8592 36.2608 76.867 38.9751C76.867 39.6041 76.7146 40.3225 77.5158 40.637C78.8328 41.1496 79.0595 42.233 79.1299 43.4639C79.2041 44.792 79.9858 45.1337 80.9003 44.2406C82.319 42.8504 83.6829 42.7339 85.5041 44.3376L85.5002 44.3415ZM9.47396 87.0089C9.47396 89.4669 9.52868 91.9249 9.45051 94.379C9.41534 95.575 9.8257 95.9672 11.0177 95.9089C12.7725 95.8235 14.5312 95.8468 16.2899 95.9012C17.2396 95.9284 17.7125 95.7187 17.7046 94.6353C17.6616 89.6572 17.6656 84.6752 17.7046 79.697C17.7125 78.6913 17.3763 78.3302 16.3563 78.3651C14.5351 78.4273 12.71 78.4389 10.8887 78.3651C9.75145 78.3186 9.43097 78.7612 9.45833 79.833C9.51695 82.2249 9.47787 84.6169 9.47787 87.0089H9.47396Z" fill="#DCDFEE" fill-opacity="0.5"/>
<path d="M44.3897 43.3901C49.0717 43.4057 52.7806 47.1257 52.7455 51.766C52.7103 56.2665 48.9662 59.9826 44.4132 60.0369C39.8367 60.0913 35.9558 56.2626 35.948 51.6961C35.9441 47.083 39.7077 43.3785 44.3858 43.394L44.3897 43.3901ZM44.3897 57.4741C47.6101 57.4586 50.2012 54.8802 50.209 51.6883C50.2168 48.5197 47.5944 45.8714 44.4132 45.8326C41.1537 45.7938 38.4766 48.4886 38.5235 51.7582C38.5704 54.985 41.1381 57.4858 44.3897 57.4702V57.4741Z" fill="#DCDFEE" fill-opacity="0.5"/>
<path d="M73.3769 67.9469C68.777 67.9197 65.1072 64.2386 65.0994 59.6449C65.0916 55.0123 68.9138 51.2186 73.545 51.2691C78.102 51.3195 81.8148 55.0628 81.8304 59.6177C81.8421 64.2735 78.0863 67.9741 73.3809 67.9469H73.3769ZM73.4825 53.8552C70.2308 53.8474 67.6358 56.3675 67.6006 59.5672C67.5694 62.8057 70.309 65.5355 73.5372 65.4773C76.7224 65.419 79.3252 62.7785 79.3174 59.6099C79.3057 56.4025 76.7341 53.8668 73.4825 53.8591V53.8552Z" fill="#DCDFEE" fill-opacity="0.5"/>
</g>
<defs>
<clipPath id="clip0_1_56">
<rect width="86" height="93" fill="white" transform="translate(7 6)"/>
</clipPath>
</defs>
</svg>
