<svg width="100" height="100" viewBox="0 0 100 100" fill="none" xmlns="http://www.w3.org/2000/svg">
<g clip-path="url(#clip0_1_69)">
<path d="M13.3221 16.734C12.1535 21.3937 11.0689 25.7772 9.9523 30.1526C9.69616 31.1534 9.91628 31.4977 10.9929 31.2255C15.3752 30.1046 19.7656 29.0197 24.2681 27.8908C23.6157 26.6298 22.5551 25.9013 21.6947 25.0086C20.498 23.7636 20.414 22.7067 21.7827 21.4617C29.4949 14.4442 38.5678 10.8173 48.9574 10.417C50.1461 10.373 51.4468 10.389 51.4908 11.9342C51.5348 13.4834 50.2501 13.5355 49.0495 13.5675C40.3608 13.8037 32.6526 16.698 25.8129 22.0542C24.6162 22.991 24.4321 23.6275 25.6808 24.6082C26.5133 25.2648 27.2136 26.0894 27.9581 26.854C29.791 28.7315 29.5349 29.7643 27.0295 30.4008C21.7427 31.7459 16.4438 33.0589 11.1489 34.384C10.1804 34.6282 9.2239 34.9324 8.24337 35.1126C6.45841 35.4408 5.62996 34.6522 6.06219 32.8708C7.63104 26.4017 9.23991 19.9405 10.9088 13.4954C11.333 11.8581 12.4697 11.6019 13.7664 12.6748C13.8704 12.7589 13.9545 12.8629 14.0545 12.951C15.2992 14.0439 16.2677 16.1776 17.6885 16.1215C19.0412 16.0655 20.3139 14.2881 21.6426 13.2993C50.094 -7.79341 91.4965 8.95584 97.2716 43.8755C97.8399 47.3102 98.1081 50.7569 97.96 54.2317C97.9079 55.4086 97.8199 56.7297 96.2871 56.6976C94.7102 56.6616 94.7983 55.3286 94.8183 54.1556C95.1184 36.4816 87.9065 22.7267 72.8544 13.4834C56.3534 3.34741 35.4141 5.39302 20.554 18.1471C18.5236 19.8898 16.5492 19.8178 14.6308 17.9309C14.3027 17.6107 13.9545 17.3105 13.3221 16.73V16.734Z" fill="#DCDFEE" fill-opacity="0.5"/>
<path d="M86.7459 87.0218C87.8585 82.5943 88.9231 78.2628 90.0397 73.9474C90.3399 72.7905 90.0197 72.5183 88.8911 72.8105C84.5768 73.9234 80.2504 74.9962 75.796 76.1131C76.3763 77.4382 77.537 78.1467 78.3974 79.0955C79.502 80.3125 79.55 81.3373 78.2734 82.5062C70.5172 89.5878 61.3842 93.2267 50.9145 93.603C49.7699 93.643 48.5853 93.5429 48.5092 92.1498C48.4212 90.6006 49.6579 90.4765 50.8825 90.4445C59.5752 90.2363 67.2834 87.342 74.1311 82.0058C75.4118 81.009 75.5239 80.3285 74.2392 79.3197C73.4067 78.6631 72.7063 77.8385 71.9659 77.0699C70.241 75.2885 70.5172 74.2316 72.8904 73.6312C77.665 72.4182 82.4476 71.2333 87.2222 70.0363C88.707 69.664 90.1798 69.2317 91.6766 68.9154C93.4856 68.5351 94.3661 69.3077 93.9458 71.0611C92.393 77.5343 90.7761 83.9954 89.1152 90.4405C88.667 92.1899 87.5304 92.43 86.1416 91.2571C84.7889 90.1122 83.8123 87.8144 82.2035 87.9065C80.7867 87.9865 79.498 89.876 78.0973 90.9008C49.6619 111.697 8.43552 94.904 2.74044 60.2245C2.16413 56.7218 1.88798 53.211 2.04406 49.6682C2.09609 48.4592 2.3082 47.2102 3.82903 47.3103C5.2578 47.4064 5.19777 48.6514 5.18176 49.7643C4.96164 69.2317 13.2581 83.9794 30.7996 92.37C48.1931 100.689 64.762 97.8984 79.6661 85.6487C82.5116 83.3108 82.5076 83.2468 85.1731 85.8648C85.5893 86.2732 85.9055 86.8256 86.7459 87.0218Z" fill="#DCDFEE" fill-opacity="0.5"/>
<path d="M53.2198 29.9205C46.8163 39.3039 40.4128 48.6913 33.7572 58.4391C38.1356 58.4391 42.0977 58.4391 46.0639 58.4391C49.1696 58.4391 49.4657 58.7993 48.8494 61.7937C48.0209 65.8289 47.1925 69.8641 46.6762 74.1115C47.0644 73.587 47.4686 73.0746 47.8368 72.5342C54.1523 63.2869 60.4637 54.0356 66.7791 44.7842C67.1553 44.2358 67.5075 43.6634 67.9317 43.1509C68.5 42.4584 69.2124 42.1622 70.0289 42.7426C70.7893 43.2831 70.9814 43.9996 70.4851 44.8323C70.245 45.2326 69.9888 45.6209 69.7247 46.0052C61.5323 58.0107 53.3398 70.0122 45.1474 82.0137C44.9593 82.2899 44.7792 82.5702 44.5831 82.8384C44.0548 83.5589 43.4905 84.2715 42.4499 83.8472C41.4334 83.4308 41.4014 82.5501 41.5814 81.6534C42.2858 78.1266 43.0102 74.6039 43.7346 71.0851C44.2709 68.475 44.7472 65.8529 45.4035 63.2709C45.7477 61.9138 45.4676 61.5335 44.0628 61.5575C39.9966 61.6336 35.9264 61.5815 31.8562 61.5855C30.9197 61.5855 29.9511 61.6936 29.4109 60.6568C28.8986 59.676 29.5829 58.9995 30.0552 58.307C38.3917 46.0773 46.7362 33.8556 55.0888 21.6419C55.6731 20.7852 56.1934 19.6123 57.5541 20.1848C58.8948 20.7452 58.5186 21.9662 58.3105 22.979C56.8977 29.8284 55.437 36.6618 54.0162 43.5072C53.7801 44.6361 53.4519 45.765 52.0551 45.4688C50.5423 45.1485 50.7424 43.9116 50.9945 42.7226C51.895 38.5033 52.7635 34.2759 53.64 30.0526C53.4959 30.0085 53.3518 29.9645 53.2077 29.9205H53.2198Z" fill="#DCDFEE" fill-opacity="0.5"/>
<path d="M56.3694 13.5316C55.4889 13.3795 54.8926 12.8911 54.8846 11.9864C54.8766 11.0817 55.4489 10.4772 56.3454 10.4572C57.3419 10.4332 57.9663 11.0577 57.9263 12.0585C57.8902 12.9552 57.2659 13.4276 56.3734 13.5316H56.3694Z" fill="#DCDFEE" fill-opacity="0.5"/>
<path d="M43.4906 93.591C42.6341 93.3949 42.0378 92.9025 42.0738 91.9858C42.1098 91.0891 42.6942 90.4966 43.5946 90.5166C44.5872 90.5406 45.1995 91.1811 45.1115 92.1779C45.0314 93.0586 44.4031 93.535 43.4906 93.587V93.591Z" fill="#DCDFEE" fill-opacity="0.5"/>
</g>
<defs>
<clipPath id="clip0_1_69">
<rect width="96" height="96" fill="white" transform="translate(2 4)"/>
</clipPath>
</defs>
</svg>
