<svg width="100" height="100" viewBox="0 0 100 100" fill="none" xmlns="http://www.w3.org/2000/svg">
<g clip-path="url(#clip0_1_84)">
<path d="M50.0059 10.0002C63.7754 10.0002 77.5487 10.0002 91.3181 10.0002C96.4822 10.0002 98.3334 11.8558 98.3334 17.008C98.3334 36.9584 98.3334 56.9087 98.3334 76.859C98.3334 81.6587 96.4432 83.5336 91.6494 83.5646C88.5744 83.584 89.0187 83.154 88.9836 86.2415C88.9602 88.4379 88.9485 90.6305 88.9875 92.827C89.0148 94.3029 88.2977 94.9692 86.8712 94.9731C84.9225 94.9809 82.9738 94.9731 81.0252 94.9731C79.4701 94.9731 78.8192 94.2022 78.8504 92.6721C78.9011 90.2858 78.7491 87.8878 78.9011 85.5093C79.0063 83.8242 78.371 83.309 76.8121 83.5453C76.4302 83.6034 76.0287 83.5995 75.6468 83.5453C74.4074 83.3748 74.1073 83.952 74.1385 85.0948C74.2086 87.6089 74.1112 90.1308 74.1775 92.6488C74.2203 94.3223 73.4448 95.0041 71.8351 94.9809C70.0151 94.9576 68.1989 94.9576 66.3788 94.9809C64.7731 95.0002 63.9897 94.3262 64.0287 92.6527C64.0911 90.1347 63.9975 87.6167 64.0638 85.0987C64.095 83.9636 63.8065 83.3864 62.5594 83.5414C61.9826 83.6111 61.3824 83.6111 60.8095 83.5414C59.5428 83.3826 59.2895 83.9946 59.3207 85.1142C59.3869 87.5663 59.2739 90.0223 59.3635 92.4745C59.4298 94.3417 58.5841 95.0428 56.7952 94.9886C54.979 94.9344 53.1589 94.9809 51.3388 94.9692C49.9163 94.9615 49.1953 94.3029 49.2187 92.827C49.2576 90.2431 49.1758 87.6593 49.2498 85.0793C49.2849 83.9172 48.9497 83.4949 47.726 83.5298C43.7662 83.6421 44.6081 83.1463 44.5301 86.6831C44.4872 88.682 44.4833 90.6848 44.5301 92.6875C44.5691 94.2255 43.887 94.977 42.3398 94.9731C40.3911 94.9692 38.4424 94.977 36.4937 94.9692C35.0595 94.9615 34.3696 94.2797 34.393 92.8076C34.4359 90.2896 34.3307 87.7678 34.432 85.2536C34.4866 83.8939 34.054 83.5104 32.6899 83.522C24.5716 83.5801 16.4495 83.5569 8.33126 83.5491C3.54528 83.5569 1.66675 81.6626 1.66675 76.8474C1.66675 56.7692 1.66675 36.6911 1.66675 16.6129C1.66675 12.0069 3.66221 10.008 8.30788 10.0041C22.2059 9.99636 36.1079 10.0002 50.0059 10.0002ZM49.9825 27.7541C35.6324 27.7541 21.2861 27.7773 6.936 27.7192C5.31469 27.7115 4.73398 27.9826 4.74568 29.7917C4.83142 45.5389 4.79245 61.2861 4.79634 77.0333C4.79634 79.8457 5.38874 80.4423 8.21045 80.4462C16.0676 80.4539 23.9247 80.4539 31.7779 80.4462C32.9978 80.4462 34.4203 80.8723 34.9075 79.0903C34.9659 78.8773 35.4375 78.641 35.722 78.6371C38.1852 78.5984 40.6483 78.5984 43.1154 78.6255C43.4038 78.6255 43.8754 78.8269 43.9494 79.04C44.6353 81.004 46.2839 80.3145 47.6558 80.4656C48.9926 80.6128 49.2771 80.0317 49.2498 78.8192C49.1797 75.5922 49.2537 72.3653 49.2148 69.1384C49.1953 67.6044 49.8383 66.849 51.4051 66.8683C53.2875 66.8877 55.17 66.9032 57.0524 66.8645C58.7127 66.8296 59.3869 67.6044 59.3557 69.2314C59.3051 71.9392 59.3401 74.6509 59.3401 77.3626C59.3401 80.5547 59.3402 80.4888 62.5594 80.4849C63.7871 80.4849 64.1261 80.0898 64.0677 78.9276C63.978 77.1883 64.0677 75.445 64.0404 73.7018C64.017 72.346 64.6562 71.6216 66.0047 71.6022C68.082 71.5712 70.1593 71.5673 72.2366 71.6022C73.5929 71.6254 74.197 72.3847 74.1697 73.7289C74.1346 75.3404 74.3295 76.9791 74.1229 78.5635C73.8462 80.6631 75.1167 80.4501 76.4535 80.4694C77.8722 80.4888 78.9946 80.6864 78.9323 78.4938C78.753 72.497 78.8621 66.4926 78.8738 60.4881C78.8738 58.187 79.1856 57.8771 81.4266 57.8578C83.0479 57.8423 84.6731 57.8461 86.2944 57.8578C88.7186 57.8733 88.9797 58.1251 88.9836 60.5346C88.9914 66.601 88.9797 72.6675 88.9992 78.7339C88.9992 79.2802 88.7147 80.206 89.3149 80.3067C90.8349 80.5624 92.4523 80.7561 93.9255 80.175C95.2038 79.6714 95.2272 78.4124 95.2272 77.196C95.2116 61.383 95.196 45.5738 95.2545 29.7607C95.2623 28.1841 94.8881 27.7076 93.2395 27.7153C78.827 27.7812 64.4106 27.7541 49.9981 27.7541H49.9825ZM50.0176 24.6395C64.36 24.6395 78.7023 24.6008 93.0447 24.686C94.8803 24.6976 95.3753 24.1553 95.2311 22.4353C95.0869 20.7037 95.1999 18.9527 95.1999 17.2133C95.1999 13.5603 94.7517 13.1148 91.057 13.1148C63.6701 13.1148 36.2794 13.1148 8.89249 13.1148C8.43649 13.1148 7.9844 13.0954 7.5284 13.1226C5.607 13.2426 4.83142 13.998 4.80024 15.8962C4.76127 18.1547 4.90157 20.4209 4.75347 22.6677C4.64434 24.3102 5.18608 24.6821 6.7918 24.6744C21.2004 24.6085 35.609 24.6356 50.0137 24.6356L50.0176 24.6395ZM81.9878 76.3089C81.9878 80.8839 82.0736 85.4628 81.941 90.0378C81.8943 91.723 82.588 91.8973 83.9755 91.9089C85.3357 91.9205 85.893 91.6726 85.8813 90.1269C85.8033 80.9769 85.7995 71.823 85.8813 62.673C85.8969 61.0847 85.2772 60.9336 83.9638 60.9259C82.5724 60.922 81.8904 61.1079 81.9372 62.7776C82.0658 67.2867 81.98 71.7998 81.98 76.3128L81.9878 76.3089ZM56.2067 80.9033C56.2067 77.75 56.117 74.5928 56.2417 71.4434C56.308 69.7544 55.3025 69.9868 54.2658 69.9674C53.1979 69.9519 52.2898 69.8047 52.3132 71.4589C52.4067 77.7655 52.4067 84.0721 52.3132 90.3787C52.2898 92.0522 53.233 91.8585 54.2852 91.8702C55.3609 91.8818 56.3041 92.0096 56.2417 90.3594C56.1209 87.2099 56.2067 84.0527 56.2067 80.8994V80.9033ZM71.0245 83.5646C71.0245 81.1202 70.9271 78.672 71.0596 76.2353C71.1492 74.616 70.2411 74.6587 69.1343 74.7051C68.1248 74.7478 67.0959 74.4495 67.1349 76.1656C67.2401 80.9227 67.2323 85.6836 67.1349 90.4368C67.1037 91.9786 67.9573 91.9244 68.9667 91.8585C69.8981 91.8004 71.1297 92.2963 71.0479 90.5066C70.9426 88.1978 71.0245 85.8773 71.0245 83.5646ZM37.5343 86.6366C37.5343 87.9227 37.624 89.2166 37.5109 90.4949C37.3745 92.0832 38.4112 91.8857 39.3778 91.8663C40.3638 91.8469 41.5018 92.1956 41.4161 90.4485C41.2992 88.0738 41.3031 85.6836 41.4161 83.309C41.4863 81.8756 40.8939 81.6819 39.6233 81.6006C37.889 81.4921 37.2771 82.0383 37.507 83.7428C37.6357 84.6919 37.5304 85.672 37.5304 86.6366H37.5343Z" fill="#DCDFEE" fill-opacity="0.5"/>
<path d="M25.5811 38.9182C29.8526 36.067 31.4739 36.067 35.6909 38.8097C35.8429 37.8219 35.8623 36.7876 36.1702 35.8462C37.281 32.4295 41.1667 30.6708 44.5262 31.9879C47.952 33.3321 49.6708 37.4229 47.8741 40.6343C47.0673 42.0792 47.5155 42.4821 48.6224 43.222C51.0972 44.8839 52.586 47.2741 53.1043 50.1988C53.4356 52.0738 52.8978 52.7091 50.9686 52.744C48.1118 52.7904 45.2589 52.7866 42.4021 52.744C41.307 52.7285 40.7691 52.9376 41.3226 54.1502C41.5564 54.6693 41.6499 55.2658 41.7201 55.8392C41.8721 57.0749 41.3693 57.9 40.0442 57.9039C33.8123 57.931 27.5843 57.931 21.3524 57.9039C20.0312 57.8962 19.5362 57.0555 19.696 55.8237C19.7701 55.2503 19.8597 54.6538 20.0974 54.1347C20.6665 52.8873 20.0546 52.7323 18.9984 52.744C16.2079 52.7788 13.4173 52.7788 10.6268 52.744C8.49495 52.7168 7.91814 52.0389 8.33906 49.9858C8.96654 46.9332 10.6268 44.5275 13.277 42.8695C14.0604 42.3775 14.3371 42.0947 13.7915 41.134C12.3144 38.5192 12.6184 35.792 14.3956 33.7621C16.1494 31.7593 18.7879 31.0465 21.2784 31.9026C23.9987 32.8401 25.4758 34.9746 25.5811 38.1395C25.5889 38.3332 25.5811 38.5231 25.5811 38.9143V38.9182ZM30.7061 54.8203C32.7756 54.8203 34.849 54.7971 36.9185 54.832C37.8461 54.8475 38.3372 54.6848 37.7526 53.6737C36.2092 50.9968 33.8747 49.517 30.7957 49.4822C27.635 49.4512 25.2342 50.9349 23.648 53.6776C23.0595 54.6964 23.5739 54.8475 24.4898 54.832C26.5593 54.7971 28.6327 54.8203 30.7022 54.8203H30.7061ZM17.3303 49.6449C18.3008 49.6449 19.2907 49.5248 20.2417 49.672C22.0929 49.9548 23.4531 49.1374 24.8133 48.0721C25.4135 47.6034 25.5148 47.3554 25.0081 46.7356C21.8162 42.8037 14.2202 43.8535 12.1429 48.5098C11.7493 49.3969 11.9402 49.6642 12.8639 49.6487C14.3527 49.6255 15.8415 49.641 17.3342 49.6487L17.3303 49.6449ZM43.8598 49.6449C45.4148 49.6449 46.966 49.6294 48.521 49.6487C49.394 49.6604 49.6824 49.4628 49.2732 48.5292C47.2349 43.8728 39.6311 42.7843 36.4314 46.7279C36.1585 47.061 35.6597 47.4368 36.2794 47.8164C37.5538 48.5989 38.5437 49.9432 40.3677 49.6797C41.5096 49.5132 42.6944 49.6487 43.8598 49.6449ZM33.9721 43.0671C33.9448 41.3432 32.4365 39.875 30.7022 39.875C28.886 39.875 27.3466 41.4672 27.4362 43.2608C27.522 45.004 29.0224 46.3715 30.7996 46.3211C32.5652 46.2746 34.0033 44.8026 33.9721 43.0671ZM22.4359 37.911C22.4359 36.1135 21.0679 34.7112 19.279 34.6802C17.4044 34.6492 15.9701 36.1019 16.013 37.9885C16.052 39.7588 17.5135 41.1805 19.2634 41.1534C21.0211 41.1263 22.4359 39.6813 22.4398 37.911H22.4359ZM45.3914 37.8684C45.3758 36.0709 43.9923 34.6879 42.1995 34.6763C40.3365 34.6647 38.9023 36.1523 38.9686 38.0272C39.0309 39.7975 40.508 41.1999 42.2618 41.1534C44.0157 41.103 45.4109 39.6426 45.3914 37.8684Z" fill="#DCDFEE" fill-opacity="0.5"/>
<path d="M78.2075 51.5277C77.4046 51.3456 76.8434 51.2875 76.3367 51.0861C75.7443 50.8536 75.4442 50.3074 75.4793 49.6915C75.5183 48.9981 75.9041 48.3279 76.6057 48.3008C78.7375 48.2194 80.8811 48.2039 83.0129 48.324C83.8119 48.3705 84.151 49.1879 84.0263 49.9549C83.7262 51.795 83.3793 53.6351 82.974 55.4558C82.8064 56.2112 82.2062 56.7186 81.4072 56.6528C80.1834 56.5521 79.9223 55.6107 79.8794 54.2432C76.933 56.9123 74.0996 59.349 71.4299 61.9483C70.0191 63.3236 68.7953 63.5753 66.9674 62.6999C63.413 60.9992 59.7144 59.5969 56.1132 57.9854C54.9752 57.4779 54.1646 57.5128 53.1395 58.3185C49.5812 61.1193 45.9333 63.8 42.3165 66.5272C41.9541 66.7984 41.5877 67.0657 41.2292 67.3407C40.2821 68.069 39.2415 68.9484 38.2477 67.5848C37.246 66.2096 38.5088 65.5084 39.4208 64.8111C41.1122 63.5095 42.8271 62.235 44.5302 60.9489C47.1649 58.9616 49.8346 57.0169 52.4107 54.9599C53.5682 54.0341 54.5972 53.9023 55.9573 54.5144C59.73 56.2189 63.5728 57.7684 67.3494 59.4574C68.3783 59.9184 69.0798 59.8681 69.9255 59.0662C72.5914 56.5482 75.339 54.1193 78.2075 51.5161V51.5277Z" fill="#DCDFEE" fill-opacity="0.5"/>
<path d="M15.5725 16.698C16.9794 16.7639 17.8252 17.5076 17.8719 18.8286C17.9187 20.1341 17.1665 21.0406 15.7868 21.1064C14.3214 21.1723 13.4445 20.3278 13.425 18.91C13.4016 17.5696 14.2708 16.8452 15.5764 16.7019L15.5725 16.698Z" fill="#DCDFEE" fill-opacity="0.5"/>
<path d="M24.4117 16.6941C25.7758 16.8684 26.6138 17.6199 26.5631 18.9564C26.5085 20.3703 25.6121 21.2032 24.1506 21.0986C22.7826 21.0018 22.046 20.0876 22.1201 18.7743C22.1941 17.4456 23.0749 16.7483 24.4117 16.6902V16.6941Z" fill="#DCDFEE" fill-opacity="0.5"/>
<path d="M33.0718 16.6941C34.4241 16.8529 35.2543 17.5463 35.2192 18.9254C35.1841 20.3781 34.3189 21.18 32.873 21.0987C31.5167 21.0212 30.7918 20.1573 30.8386 18.8053C30.8853 17.4108 31.7622 16.7948 33.0718 16.6941Z" fill="#DCDFEE" fill-opacity="0.5"/>
</g>
<defs>
<clipPath id="clip0_1_84">
<rect width="96.6667" height="85" fill="white" transform="translate(1.66675 10)"/>
</clipPath>
</defs>
</svg>
