<svg width="100" height="100" viewBox="0 0 100 100" fill="none" xmlns="http://www.w3.org/2000/svg">
<g clip-path="url(#clip0_1_100)">
<path d="M50.0058 10.0002C63.7752 10.0002 77.5486 10.0002 91.318 10.0002C96.482 10.0002 98.3333 11.8558 98.3333 17.008C98.3333 36.9584 98.3333 56.9087 98.3333 76.859C98.3333 81.6587 96.4431 83.5336 91.6493 83.5646C88.5743 83.584 89.0186 83.154 88.9835 86.2415C88.9601 88.4379 88.9484 90.6305 88.9874 92.827C89.0147 94.3029 88.2975 94.9692 86.8711 94.9731C84.9224 94.9809 82.9737 94.9731 81.025 94.9731C79.47 94.9731 78.8191 94.2022 78.8503 92.6721C78.901 90.2858 78.749 87.8878 78.901 85.5093C79.0062 83.8242 78.3709 83.309 76.812 83.5453C76.43 83.6034 76.0286 83.5995 75.6467 83.5453C74.4073 83.3748 74.1072 83.952 74.1384 85.0948C74.2085 87.6089 74.1111 90.1308 74.1773 92.6488C74.2202 94.3223 73.4446 95.0041 71.835 94.9809C70.0149 94.9576 68.1988 94.9576 66.3787 94.9809C64.773 95.0002 63.9896 94.3262 64.0286 92.6527C64.0909 90.1347 63.9974 87.6167 64.0637 85.0987C64.0948 83.9636 63.8064 83.3864 62.5593 83.5414C61.9825 83.6111 61.3823 83.6111 60.8093 83.5414C59.5427 83.3826 59.2894 83.9946 59.3205 85.1142C59.3868 87.5663 59.2738 90.0223 59.3634 92.4745C59.4297 94.3417 58.5839 95.0428 56.795 94.9886C54.9789 94.9344 53.1588 94.9809 51.3387 94.9692C49.9162 94.9615 49.1952 94.3029 49.2185 92.827C49.2575 90.2431 49.1757 87.6593 49.2497 85.0793C49.2848 83.9172 48.9496 83.4949 47.7258 83.5298C43.7661 83.6421 44.6079 83.1463 44.53 86.6831C44.4871 88.682 44.4832 90.6848 44.53 92.6875C44.569 94.2255 43.8869 94.977 42.3397 94.9731C40.391 94.9692 38.4423 94.977 36.4936 94.9692C35.0594 94.9615 34.3695 94.2797 34.3929 92.8076C34.4358 90.2896 34.3306 87.7678 34.4319 85.2536C34.4864 83.8939 34.0538 83.5104 32.6898 83.522C24.5715 83.5801 16.4494 83.5569 8.33114 83.5491C3.54516 83.5569 1.66663 81.6626 1.66663 76.8474C1.66663 56.7692 1.66663 36.6911 1.66663 16.6129C1.66663 12.0069 3.66208 10.008 8.30776 10.0041C22.2058 9.99636 36.1078 10.0002 50.0058 10.0002ZM49.9824 27.7541C35.6323 27.7541 21.286 27.7773 6.93588 27.7192C5.31457 27.7115 4.73386 27.9826 4.74555 29.7917C4.8313 45.5389 4.79232 61.2861 4.79622 77.0333C4.79622 79.8457 5.38862 80.4423 8.21032 80.4462C16.0674 80.4539 23.9246 80.4539 31.7778 80.4462C32.9976 80.4462 34.4202 80.8723 34.9074 79.0903C34.9658 78.8773 35.4374 78.641 35.7219 78.6371C38.1851 78.5984 40.6482 78.5984 43.1152 78.6255C43.4036 78.6255 43.8752 78.8269 43.9493 79.04C44.6352 81.004 46.2838 80.3145 47.6557 80.4656C48.9925 80.6128 49.277 80.0317 49.2497 78.8192C49.1796 75.5922 49.2536 72.3653 49.2146 69.1384C49.1952 67.6044 49.8382 66.849 51.405 66.8683C53.2874 66.8877 55.1698 66.9032 57.0523 66.8645C58.7126 66.8296 59.3868 67.6044 59.3556 69.2314C59.305 71.9392 59.34 74.6509 59.34 77.3626C59.34 80.5547 59.34 80.4888 62.5593 80.4849C63.7869 80.4849 64.126 80.0898 64.0675 78.9276C63.9779 77.1883 64.0675 75.445 64.0403 73.7018C64.0169 72.346 64.6561 71.6216 66.0045 71.6022C68.0818 71.5712 70.1592 71.5673 72.2365 71.6022C73.5927 71.6254 74.1968 72.3847 74.1696 73.7289C74.1345 75.3404 74.3293 76.9791 74.1228 78.5635C73.8461 80.6631 75.1166 80.4501 76.4534 80.4694C77.8721 80.4888 78.9945 80.6864 78.9321 78.4938C78.7529 72.497 78.862 66.4926 78.8737 60.4881C78.8737 58.187 79.1855 57.8771 81.4265 57.8578C83.0478 57.8423 84.673 57.8461 86.2943 57.8578C88.7185 57.8733 88.9796 58.1251 88.9835 60.5346C88.9913 66.601 88.9796 72.6675 88.9991 78.7339C88.9991 79.2802 88.7146 80.206 89.3148 80.3067C90.8347 80.5624 92.4522 80.7561 93.9254 80.175C95.2037 79.6714 95.2271 78.4124 95.2271 77.196C95.2115 61.383 95.1959 45.5738 95.2544 29.7607C95.2622 28.1841 94.888 27.7076 93.2394 27.7153C78.8269 27.7812 64.4105 27.7541 49.998 27.7541H49.9824ZM50.0175 24.6395C64.3598 24.6395 78.7022 24.6008 93.0446 24.686C94.8802 24.6976 95.3752 24.1553 95.231 22.4353C95.0868 20.7037 95.1998 18.9527 95.1998 17.2133C95.1998 13.5603 94.7516 13.1148 91.0569 13.1148C63.67 13.1148 36.2792 13.1148 8.89237 13.1148C8.43637 13.1148 7.98428 13.0954 7.52828 13.1226C5.60688 13.2426 4.8313 13.998 4.80012 15.8962C4.76114 18.1547 4.90145 20.4209 4.75335 22.6677C4.64422 24.3102 5.18596 24.6821 6.79168 24.6744C21.2003 24.6085 35.6089 24.6356 50.0136 24.6356L50.0175 24.6395ZM81.9877 76.3089C81.9877 80.8839 82.0734 85.4628 81.9409 90.0378C81.8942 91.723 82.5879 91.8973 83.9754 91.9089C85.3355 91.9205 85.8929 91.6726 85.8812 90.1269C85.8032 80.9769 85.7993 71.823 85.8812 62.673C85.8968 61.0847 85.2771 60.9336 83.9637 60.9259C82.5723 60.922 81.8903 61.1079 81.937 62.7776C82.0656 67.2867 81.9799 71.7998 81.9799 76.3128L81.9877 76.3089ZM56.2065 80.9033C56.2065 77.75 56.1169 74.5928 56.2416 71.4434C56.3079 69.7544 55.3023 69.9868 54.2656 69.9674C53.1978 69.9519 52.2897 69.8047 52.3131 71.4589C52.4066 77.7655 52.4066 84.0721 52.3131 90.3787C52.2897 92.0522 53.2328 91.8585 54.2851 91.8702C55.3608 91.8818 56.304 92.0096 56.2416 90.3594C56.1208 87.2099 56.2065 84.0527 56.2065 80.8994V80.9033ZM71.0244 83.5646C71.0244 81.1202 70.9269 78.672 71.0594 76.2353C71.1491 74.616 70.241 74.6587 69.1341 74.7051C68.1247 74.7478 67.0958 74.4495 67.1348 76.1656C67.24 80.9227 67.2322 85.6836 67.1348 90.4368C67.1036 91.9786 67.9571 91.9244 68.9665 91.8585C69.898 91.8004 71.1296 92.2963 71.0478 90.5066C70.9425 88.1978 71.0244 85.8773 71.0244 83.5646ZM37.5342 86.6366C37.5342 87.9227 37.6238 89.2166 37.5108 90.4949C37.3744 92.0832 38.4111 91.8857 39.3777 91.8663C40.3637 91.8469 41.5017 92.1956 41.416 90.4485C41.2991 88.0738 41.303 85.6836 41.416 83.309C41.4861 81.8756 40.8937 81.6819 39.6232 81.6006C37.8889 81.4921 37.277 82.0383 37.5069 83.7428C37.6355 84.6919 37.5303 85.672 37.5303 86.6366H37.5342Z" fill="#DCDFEE" fill-opacity="0.5"/>
<path d="M25.5809 38.9182C29.8525 36.067 31.4738 36.067 35.6907 38.8097C35.8427 37.8219 35.8622 36.7876 36.1701 35.8462C37.2809 32.4295 41.1666 30.6708 44.5261 31.9879C47.9519 33.3321 49.6706 37.4229 47.8739 40.6343C47.0672 42.0792 47.5154 42.4821 48.6222 43.222C51.0971 44.8839 52.5859 47.2741 53.1042 50.1988C53.4355 52.0738 52.8977 52.7091 50.9685 52.744C48.1117 52.7904 45.2588 52.7866 42.402 52.744C41.3069 52.7285 40.769 52.9376 41.3224 54.1502C41.5563 54.6693 41.6498 55.2658 41.72 55.8392C41.872 57.0749 41.3692 57.9 40.0441 57.9039C33.8122 57.931 27.5842 57.931 21.3523 57.9039C20.0311 57.8962 19.5361 57.0555 19.6959 55.8237C19.7699 55.2503 19.8596 54.6538 20.0973 54.1347C20.6663 52.8873 20.0545 52.7323 18.9983 52.744C16.2077 52.7788 13.4172 52.7788 10.6267 52.744C8.49483 52.7168 7.91802 52.0389 8.33894 49.9858C8.96641 46.9332 10.6267 44.5275 13.2769 42.8695C14.0603 42.3775 14.337 42.0947 13.7914 41.134C12.3143 38.5192 12.6183 35.792 14.3955 33.7621C16.1493 31.7593 18.7878 31.0465 21.2782 31.9026C23.9986 32.8401 25.4757 34.9746 25.5809 38.1395C25.5887 38.3332 25.5809 38.5231 25.5809 38.9143V38.9182ZM30.706 54.8203C32.7755 54.8203 34.8489 54.7971 36.9184 54.832C37.846 54.8475 38.3371 54.6848 37.7524 53.6737C36.2091 50.9968 33.8746 49.517 30.7956 49.4822C27.6349 49.4512 25.2341 50.9349 23.6478 53.6776C23.0593 54.6964 23.5738 54.8475 24.4897 54.832C26.5592 54.7971 28.6326 54.8203 30.7021 54.8203H30.706ZM17.3302 49.6449C18.3006 49.6449 19.2906 49.5248 20.2415 49.672C22.0928 49.9548 23.453 49.1374 24.8132 48.0721C25.4133 47.6034 25.5147 47.3554 25.008 46.7356C21.8161 42.8037 14.2201 43.8535 12.1428 48.5098C11.7491 49.3969 11.9401 49.6642 12.8638 49.6487C14.3526 49.6255 15.8414 49.641 17.3341 49.6487L17.3302 49.6449ZM43.8596 49.6449C45.4147 49.6449 46.9658 49.6294 48.5209 49.6487C49.3939 49.6604 49.6823 49.4628 49.2731 48.5292C47.2348 43.8728 39.631 42.7843 36.4312 46.7279C36.1584 47.061 35.6596 47.4368 36.2792 47.8164C37.5537 48.5989 38.5436 49.9432 40.3676 49.6797C41.5095 49.5132 42.6943 49.6487 43.8596 49.6449ZM33.972 43.0671C33.9447 41.3432 32.4364 39.875 30.7021 39.875C28.8859 39.875 27.3464 41.4672 27.4361 43.2608C27.5218 45.004 29.0223 46.3715 30.7995 46.3211C32.565 46.2746 34.0032 44.8026 33.972 43.0671ZM22.4358 37.911C22.4358 36.1135 21.0678 34.7112 19.2789 34.6802C17.4042 34.6492 15.97 36.1019 16.0129 37.9885C16.0518 39.7588 17.5134 41.1805 19.2633 41.1534C21.021 41.1263 22.4358 39.6813 22.4396 37.911H22.4358ZM45.3913 37.8684C45.3757 36.0709 43.9921 34.6879 42.1994 34.6763C40.3364 34.6647 38.9022 36.1523 38.9684 38.0272C39.0308 39.7975 40.5079 41.1999 42.2617 41.1534C44.0155 41.103 45.4108 39.6426 45.3913 37.8684Z" fill="#DCDFEE" fill-opacity="0.5"/>
<path d="M78.2072 51.5277C77.4044 51.3456 76.8431 51.2875 76.3365 51.0861C75.7441 50.8536 75.444 50.3074 75.4791 49.6915C75.518 48.9981 75.9039 48.3279 76.6054 48.3008C78.7373 48.2194 80.8808 48.2039 83.0127 48.324C83.8117 48.3705 84.1507 49.1879 84.026 49.9549C83.7259 51.795 83.3791 53.6351 82.9737 55.4558C82.8061 56.2112 82.2059 56.7186 81.407 56.6528C80.1832 56.5521 79.9221 55.6107 79.8792 54.2432C76.9328 56.9123 74.0994 59.349 71.4297 61.9483C70.0188 63.3236 68.7951 63.5753 66.9672 62.6999C63.4128 60.9992 59.7142 59.5969 56.113 57.9854C54.975 57.4779 54.1643 57.5128 53.1393 58.3185C49.581 61.1193 45.933 63.8 42.3163 66.5272C41.9538 66.7984 41.5875 67.0657 41.2289 67.3407C40.2818 68.069 39.2412 68.9484 38.2474 67.5848C37.2458 66.2096 38.5085 65.5084 39.4205 64.8111C41.112 63.5095 42.8268 62.235 44.53 60.9489C47.1646 58.9616 49.8343 57.0169 52.4105 54.9599C53.568 54.0341 54.5969 53.9023 55.9571 54.5144C59.7298 56.2189 63.5726 57.7684 67.3491 59.4574C68.378 59.9184 69.0796 59.8681 69.9253 59.0662C72.5911 56.5482 75.3388 54.1193 78.2072 51.5161V51.5277Z" fill="#DCDFEE" fill-opacity="0.5"/>
<path d="M15.5725 16.698C16.9794 16.7639 17.8252 17.5076 17.8719 18.8286C17.9187 20.1341 17.1665 21.0406 15.7868 21.1064C14.3214 21.1723 13.4445 20.3278 13.425 18.91C13.4016 17.5696 14.2708 16.8452 15.5764 16.7019L15.5725 16.698Z" fill="#DCDFEE" fill-opacity="0.5"/>
<path d="M24.4117 16.6941C25.7758 16.8684 26.6138 17.6199 26.5631 18.9564C26.5085 20.3703 25.6121 21.2032 24.1506 21.0986C22.7826 21.0018 22.046 20.0876 22.1201 18.7743C22.1941 17.4456 23.0749 16.7483 24.4117 16.6902V16.6941Z" fill="#DCDFEE" fill-opacity="0.5"/>
<path d="M33.0718 16.6941C34.4241 16.8529 35.2543 17.5463 35.2192 18.9254C35.1841 20.3781 34.3189 21.18 32.873 21.0987C31.5167 21.0212 30.7918 20.1573 30.8386 18.8053C30.8853 17.4108 31.7622 16.7948 33.0718 16.6941Z" fill="#DCDFEE" fill-opacity="0.5"/>
</g>
<defs>
<clipPath id="clip0_1_100">
<rect width="96.6667" height="85" fill="white" transform="translate(1.66663 10)"/>
</clipPath>
</defs>
</svg>
